<svg width="76" height="42" viewBox="0 0 76 42" fill="none" xmlns="http://www.w3.org/2000/svg">
<path fill-rule="evenodd" clip-rule="evenodd" d="M31.2914 8.91564C31.7008 8.06035 32.5677 7.51563 33.5194 7.51563L38.1426 7.51563C38.9759 7.51563 39.753 7.93426 40.2088 8.62878C40.311 8.78459 40.394 8.94956 40.4575 9.12031C41.1851 8.56136 42.0846 8.17006 43.1617 8.17006L52.3568 8.17006C53.5351 8.17006 54.4655 8.6369 55.1589 9.311C55.9258 8.65022 56.9039 8.17006 58.1008 8.17006H67.288C69.1424 8.17006 70.39 9.32085 71.0624 10.6331C71.0667 10.6415 71.071 10.65 71.0752 10.6584C71.5457 11.6033 71.7496 12.6231 71.7496 13.6615C71.7496 14.0119 71.7272 14.3656 71.686 14.7209C71.6849 14.7301 71.6838 14.7394 71.6826 14.7487L70.0746 27.3349C69.8899 28.7585 69.3933 30.0775 68.5265 31.2104L68.5185 31.2208C67.6797 32.305 66.4147 33.2887 64.7036 33.2887L55.5164 33.2887C54.8015 33.2887 54.1759 33.1185 53.6386 32.8332C53.233 33.121 52.7377 33.2887 52.2071 33.2887L38.1426 33.2887C37.4338 33.2887 36.7591 32.9853 36.2906 32.4557C35.822 31.9262 35.6048 31.2216 35.6942 30.5215L36.7267 22.4404C36.8701 21.3246 37.2521 20.1346 38.05 19.2216C38.0306 19.2012 38.0116 19.1804 37.9929 19.1593C37.6525 18.7747 37.4446 18.2979 37.3906 17.7974L30.4251 33.6086C30.0315 34.5019 29.1446 35.0788 28.1648 35.0788L22.677 35.0789C21.8299 35.0789 21.042 34.6464 20.5899 33.9332C20.4475 33.7086 20.3446 33.466 20.282 33.2153C20.231 33.2184 20.1797 33.22 20.128 33.22H14.0452C13.3361 33.22 12.6612 32.9163 12.1926 32.3864C11.8358 31.9828 11.6249 31.4777 11.5843 30.9504H7.7103C7.00115 30.9504 6.32627 30.6467 5.85771 30.1168C5.38915 29.5869 5.17219 28.8819 5.26214 28.1816L5.55367 25.912C5.59458 25.5935 5.69779 25.2861 5.85746 25.0071L14.8241 9.34197C15.2631 8.57496 16.0817 8.10137 16.9684 8.10137L22.7124 8.10137C23.4215 8.10137 24.0963 8.40497 24.5648 8.93478C25.0334 9.46459 25.2505 10.1694 25.1607 10.8696L23.7104 22.1795C23.7603 22.2271 23.8084 22.277 23.8545 22.329C24.1122 22.6199 24.294 22.9638 24.3907 23.3307L31.2914 8.91564ZM20.4196 28.4933H21.4281L22.0033 23.9541H20.9948L22.7124 10.5585L16.9684 10.5585L8.00183 26.2237L7.7103 28.4933H14.3368L14.0452 30.7629L20.128 30.7629L20.4196 28.4933ZM15.4714 19.6492L14.9198 23.9541H13.0052L15.4714 19.6492ZM22.677 32.6217L33.5194 9.97275L38.1426 9.97275L28.1648 32.6217L22.677 32.6217ZM40.2385 14.4386L39.8445 17.5347H45.9273L46.0376 16.6466C46.0437 16.5998 46.051 16.5537 46.0594 16.5085C46.0632 16.4877 46.0673 16.4671 46.0716 16.4466C46.0747 16.4319 46.0779 16.4173 46.0813 16.4028C46.0833 16.394 46.0854 16.3852 46.0875 16.3764C46.0906 16.3636 46.0938 16.3509 46.0972 16.3382C46.1444 16.1568 46.2117 15.9891 46.2988 15.835C46.3047 15.8247 46.3106 15.8144 46.3167 15.8042C46.3563 15.7369 46.3999 15.6724 46.4474 15.6104C46.668 15.3144 46.9096 15.1664 47.1723 15.1664C47.4349 15.1664 47.6424 15.3103 47.7947 15.5981C47.905 15.8201 47.9602 16.0668 47.9602 16.3382C47.9602 16.4369 47.9523 16.5397 47.9365 16.6466L47.8499 17.3003C47.8411 17.3738 47.8284 17.4422 47.812 17.5054C47.7874 17.5999 47.7543 17.6829 47.7126 17.7545C47.6325 17.8922 47.5206 17.9875 47.3771 18.0404L40.7506 20.2853C39.8734 20.5814 39.3481 21.4037 39.1748 22.7523L38.1426 30.8316L52.2071 30.8316L52.7902 26.2924H44.8085L45.0764 24.1708C45.093 24.0433 45.1201 23.9314 45.1578 23.8352C45.2391 23.6274 45.3696 23.4925 45.5491 23.4307L52.1835 21.1734C53.0607 20.8856 53.586 20.0633 53.7593 18.7065L54.303 14.4386C54.3073 14.4027 54.3113 14.3668 54.315 14.3311C54.3151 14.3306 54.3152 14.33 54.3152 14.3294C54.3386 14.1048 54.3503 13.8863 54.3503 13.6739C54.3503 12.9502 54.2084 12.3088 53.9248 11.7497C53.8314 11.5674 53.7297 11.4073 53.6198 11.2694C53.2784 10.8413 52.8574 10.6272 52.3568 10.6272L43.1617 10.6272C42.4946 10.6272 41.8721 11.0013 41.2943 11.7497C40.7218 12.498 40.3698 13.3943 40.2385 14.4386ZM53.5702 27.0201C53.5335 27.2997 53.5151 27.567 53.5151 27.8219C53.5151 28.5373 53.6569 29.1664 53.9406 29.7091C54.1543 30.132 54.4149 30.4353 54.7226 30.6192C54.9594 30.7608 55.224 30.8316 55.5164 30.8316L64.7036 30.8316C65.3708 30.8316 65.9906 30.4615 66.5631 29.7214C67.1357 28.9731 67.4903 28.0727 67.6269 27.0201L69.2342 14.4386C69.2657 14.1673 69.2815 13.9082 69.2815 13.6615C69.2815 12.9461 69.1423 12.3088 68.8639 11.7497C68.4804 11.0013 67.9552 10.6272 67.288 10.6272L58.1008 10.6272C57.5206 10.6272 56.9776 10.9058 56.4717 11.463C56.3913 11.5516 56.3119 11.6471 56.2334 11.7497C55.8058 12.3085 55.5013 12.9499 55.3198 13.6739C55.2582 13.9193 55.2108 14.1742 55.1776 14.4386L54.6185 18.815L53.5702 27.0201ZM61.4101 25.8607C61.5772 25.6477 61.6969 25.401 61.7691 25.1206C61.7725 25.1076 61.7757 25.0945 61.7789 25.0813C61.7817 25.0695 61.7844 25.0577 61.7871 25.0458C61.7912 25.0271 61.7952 25.0082 61.799 24.9892C61.7996 24.9861 61.8002 24.983 61.8008 24.9799C61.8114 24.9252 61.8204 24.8693 61.8277 24.8122L62.8678 16.6466C62.8835 16.5397 62.8914 16.4369 62.8914 16.3382C62.8914 16.0668 62.8363 15.8201 62.7259 15.5981C62.5736 15.3103 62.3687 15.1664 62.1114 15.1664C61.8487 15.1664 61.6071 15.3144 61.3865 15.6104C61.2243 15.8219 61.1076 16.0645 61.0363 16.3382C61.0329 16.3512 61.0296 16.3644 61.0264 16.3775C61.0235 16.3893 61.0207 16.4012 61.018 16.4131C61.0159 16.4228 61.0137 16.4325 61.0116 16.4423C61.0073 16.4627 61.0032 16.4832 60.9993 16.5039C60.9906 16.5506 60.9831 16.5982 60.9767 16.6466L59.9667 24.5765L59.9666 24.5772L59.9367 24.8122C59.9209 24.9191 59.913 25.0219 59.913 25.1206C59.913 25.4002 59.9682 25.6468 60.0785 25.8607C60.2256 26.1485 60.4304 26.2924 60.6931 26.2924C60.9505 26.2924 61.1895 26.1485 61.4101 25.8607Z" fill="#950E0E"/>
<path fill-rule="evenodd" clip-rule="evenodd" d="M30.2992 6.93908C30.7086 6.08379 31.5755 5.53906 32.5272 5.53906L37.1504 5.53906C37.9837 5.53906 38.7608 5.9577 39.2166 6.65222C39.3188 6.80802 39.4018 6.97299 39.4653 7.14375C40.1929 6.5848 41.0924 6.1935 42.1695 6.1935L51.3646 6.1935C52.5429 6.1935 53.4733 6.66034 54.1667 7.33443C54.9336 6.67366 55.9118 6.1935 57.1086 6.1935L66.2958 6.1935C68.1502 6.1935 69.3978 7.34429 70.0702 8.65649C70.0746 8.66493 70.0788 8.67339 70.083 8.68188C70.5535 9.62674 70.7574 10.6465 70.7574 11.685C70.7574 12.0354 70.735 12.3891 70.6938 12.7443C70.6927 12.7536 70.6916 12.7628 70.6904 12.7721L69.0824 25.3583C68.8977 26.782 68.4011 28.101 67.5343 29.2338L67.5263 29.2442C66.6875 30.3284 65.4225 31.3121 63.7114 31.3121L54.5242 31.3121C53.8093 31.3121 53.1838 31.1419 52.6464 30.8567C52.2408 31.1444 51.7455 31.3121 51.2149 31.3121L37.1504 31.3121C36.4416 31.3121 35.7669 31.0087 35.2984 30.4792C34.8298 29.9496 34.6126 29.245 34.702 28.545L35.7345 20.4638C35.8779 19.3481 36.2599 18.1581 37.0578 17.245C37.0385 17.2246 37.0194 17.2038 37.0007 17.1827C36.6603 16.7982 36.4525 16.3213 36.3984 15.8208L29.4329 31.6321C29.0394 32.5253 28.1524 33.1023 27.1726 33.1023L21.6848 33.1023C20.8377 33.1023 20.0498 32.6698 19.5977 31.9567C19.4553 31.732 19.3525 31.4895 19.2898 31.2387C19.2388 31.2419 19.1875 31.2434 19.1358 31.2434L13.053 31.2434C12.3439 31.2434 11.669 30.9398 11.2005 30.4098C10.8436 30.0062 10.6327 29.5011 10.5921 28.9738H6.71811C6.00896 28.9738 5.33408 28.6702 4.86552 28.1402C4.39696 27.6103 4.18 26.9053 4.26995 26.205L4.56148 23.9354C4.60239 23.617 4.7056 23.3095 4.86528 23.0306L13.8319 7.36541C14.2709 6.5984 15.0895 6.12481 15.9763 6.12481L21.7202 6.12481C22.4293 6.12481 23.1041 6.42841 23.5727 6.95822C24.0412 7.48803 24.2583 8.19287 24.1685 8.89309L22.7182 20.203C22.7681 20.2505 22.8162 20.3004 22.8623 20.3524C23.12 20.6434 23.3018 20.9872 23.3985 21.3542L30.2992 6.93908ZM19.4274 26.5167H20.4359L21.0111 21.9775H20.0026L21.7202 8.58194L15.9763 8.58194L7.00964 24.2471L6.71811 26.5167H13.3446L13.053 28.7863L19.1358 28.7863L19.4274 26.5167ZM14.4792 17.6727L13.9276 21.9775H12.013L14.4792 17.6727ZM21.6848 30.6452L32.5272 7.99619L37.1504 7.99619L27.1726 30.6452L21.6848 30.6452ZM39.2463 12.4621L38.8523 15.5581L44.9351 15.5581L45.0454 14.67C45.0516 14.6232 45.0588 14.5772 45.0672 14.5319C45.071 14.5111 45.0751 14.4905 45.0794 14.4701C45.0825 14.4554 45.0857 14.4407 45.0891 14.4262C45.0911 14.4174 45.0932 14.4086 45.0953 14.3999C45.0984 14.387 45.1017 14.3743 45.105 14.3616C45.1523 14.1803 45.2195 14.0125 45.3066 13.8585C45.3125 13.8481 45.3184 13.8378 45.3245 13.8276C45.3641 13.7604 45.4077 13.6958 45.4552 13.6339C45.6758 13.3378 45.9174 13.1898 46.1801 13.1898C46.4427 13.1898 46.6502 13.3337 46.8025 13.6215C46.9128 13.8436 46.968 14.0903 46.968 14.3616C46.968 14.4603 46.9601 14.5631 46.9444 14.67L46.8577 15.3237C46.8489 15.3972 46.8363 15.4656 46.8198 15.5288C46.7952 15.6233 46.7621 15.7063 46.7205 15.7779C46.6403 15.9157 46.5284 16.011 46.3849 16.0638L39.7585 18.3088C38.8812 18.6048 38.3559 19.4271 38.1826 20.7757L37.1504 28.855L51.2149 28.855L51.798 24.3158H43.8163L44.0842 22.1942C44.1008 22.0667 44.1279 21.9549 44.1656 21.8587C44.2469 21.6508 44.3774 21.516 44.5569 21.4541L51.1913 19.1969C52.0685 18.9091 52.5938 18.0867 52.7671 16.7299L53.3108 12.4621C53.3151 12.4261 53.3191 12.3903 53.3229 12.3546C53.3229 12.354 53.323 12.3534 53.323 12.3529C53.3464 12.1283 53.3581 11.9097 53.3581 11.6973C53.3581 10.9737 53.2163 10.3323 52.9326 9.77309C52.8392 9.59079 52.7375 9.4307 52.6276 9.29281C52.2862 8.86469 51.8652 8.65063 51.3646 8.65063L42.1695 8.65063C41.5024 8.65063 40.8799 9.02478 40.3021 9.77309C39.7296 10.5214 39.3776 11.4177 39.2463 12.4621ZM52.578 25.0436C52.5413 25.3231 52.5229 25.5904 52.5229 25.8453C52.5229 26.5607 52.6647 27.1898 52.9484 27.7325C53.1621 28.1554 53.4227 28.4588 53.7304 28.6427C53.9672 28.7842 54.2318 28.855 54.5242 28.855L63.7114 28.855C64.3786 28.855 64.9984 28.485 65.571 27.7449C66.1435 26.9966 66.4981 26.0961 66.6347 25.0436L68.242 12.4621C68.2735 12.1907 68.2893 11.9317 68.2893 11.685C68.2893 10.9696 68.1501 10.3323 67.8717 9.77309C67.4882 9.02478 66.963 8.65063 66.2958 8.65063L57.1086 8.65063C56.5284 8.65063 55.9854 8.92925 55.4795 9.48649C55.3991 9.57499 55.3197 9.67053 55.2412 9.77309C54.8136 10.3319 54.5091 10.9734 54.3276 11.6973C54.266 11.9428 54.2187 12.1977 54.1854 12.4621L53.6263 16.8384L52.578 25.0436ZM60.4179 23.8841C60.585 23.6712 60.7047 23.4245 60.7769 23.144C60.7803 23.131 60.7835 23.1179 60.7867 23.1048C60.7895 23.093 60.7922 23.0811 60.7949 23.0692C60.799 23.0505 60.803 23.0317 60.8068 23.0127C60.8074 23.0096 60.808 23.0065 60.8086 23.0034C60.8193 22.9486 60.8282 22.8927 60.8355 22.8356L61.8756 14.67C61.8913 14.5631 61.8992 14.4603 61.8992 14.3616C61.8992 14.0903 61.8441 13.8436 61.7337 13.6215C61.5814 13.3337 61.3766 13.1898 61.1192 13.1898C60.8565 13.1898 60.6149 13.3378 60.3943 13.6339C60.2322 13.8454 60.1154 14.088 60.0441 14.3616C60.0407 14.3747 60.0374 14.3878 60.0342 14.401C60.0313 14.4128 60.0285 14.4246 60.0259 14.4365C60.0237 14.4462 60.0215 14.4559 60.0194 14.4657C60.0151 14.4861 60.011 14.5066 60.0071 14.5273C59.9984 14.574 59.9909 14.6216 59.9846 14.67L58.9745 22.6L58.9744 22.6007L58.9445 22.8356C58.9287 22.9425 58.9208 23.0453 58.9208 23.144C58.9208 23.4236 58.976 23.6703 59.0863 23.8841C59.2334 24.1719 59.4383 24.3158 59.7009 24.3158C59.9583 24.3158 60.1973 24.1719 60.4179 23.8841Z" fill="#C61515"/>
<g filter="url(#filter0_f_11221_49402)">
<path d="M32.5278 7.99634L37.1511 7.99634L27.1733 30.6453L21.6855 30.6453L32.5278 7.99634Z" fill="#372F2F"/>
<path d="M51.3653 8.65078C52.0271 8.65078 52.5498 9.02493 52.9332 9.77324C53.2169 10.3324 53.3587 10.9738 53.3587 11.6975C53.3587 11.9442 53.343 12.1991 53.3115 12.4622L52.7678 16.7301C52.5944 18.0869 52.0692 18.9092 51.1919 19.197L44.5576 21.4543C44.2949 21.5447 44.1374 21.7914 44.0848 22.1944L43.8169 24.316H51.7986L51.2156 28.8552L37.1511 28.8552L38.1832 20.7759C38.3566 19.4273 38.8819 18.6049 39.7591 18.3089L46.3856 16.064C46.6535 15.9653 46.8111 15.7186 46.8583 15.3239L46.945 14.6702C46.9608 14.5633 46.9686 14.4605 46.9686 14.3618C46.9686 14.0904 46.9135 13.8437 46.8032 13.6217C46.6508 13.3339 46.4433 13.19 46.1807 13.19C45.9181 13.19 45.6764 13.338 45.4558 13.634C45.2352 13.9218 45.0986 14.2672 45.0461 14.6702L44.9358 15.5583L38.853 15.5583L39.2469 12.4622C39.3783 11.4179 39.7302 10.5216 40.3028 9.77324C40.8806 9.02493 41.503 8.65078 42.1702 8.65078L51.3653 8.65078Z" fill="#372F2F"/>
<path d="M57.1093 8.65078L66.2965 8.65078C66.9636 8.65078 67.4889 9.02493 67.8723 9.77324C68.1507 10.3324 68.29 10.9697 68.29 11.6851C68.29 11.9318 68.2742 12.1909 68.2427 12.4622L66.6353 25.0437C66.4987 26.0963 66.1442 26.9967 65.5716 27.745C64.999 28.4851 64.3792 28.8552 63.7121 28.8552H54.5249C53.8525 28.8552 53.3272 28.481 52.949 27.7327C52.6654 27.19 52.5235 26.5609 52.5235 25.8455C52.5235 25.5905 52.5419 25.3233 52.5787 25.0437L54.1861 12.4622C54.3174 11.4179 54.6693 10.5216 55.2419 9.77324C55.8144 9.02493 56.4369 8.65078 57.1093 8.65078ZM61.1198 13.19C60.8572 13.19 60.6155 13.338 60.3949 13.634C60.1743 13.9218 60.0377 14.2672 59.9852 14.6702L58.9451 22.8358C58.9294 22.9427 58.9215 23.0455 58.9215 23.1441C58.9215 23.4237 58.9767 23.6704 59.087 23.8842C59.234 24.172 59.4389 24.316 59.7015 24.316C59.9589 24.316 60.1979 24.172 60.4186 23.8842C60.6444 23.5964 60.7836 23.2469 60.8362 22.8358L61.8762 14.6702C61.892 14.5633 61.8999 14.4605 61.8999 14.3618C61.8999 14.0904 61.8447 13.8437 61.7344 13.6217C61.5821 13.3339 61.3772 13.19 61.1198 13.19Z" fill="#372F2F"/>
<path d="M15.9769 8.58209H21.7209L20.0032 21.9777H21.0118L20.4366 26.5169H19.428L19.1365 28.7865L13.0537 28.7865L13.3452 26.5169H6.71875L7.01028 24.2473L15.9769 8.58209ZM13.9283 21.9777L14.4798 17.6728L12.0136 21.9777H13.9283Z" fill="#372F2F"/>
</g>
<g filter="url(#filter1_i_11221_49402)">
<path d="M32.5278 7.99634L37.1511 7.99634L27.1733 30.6453L21.6855 30.6453L32.5278 7.99634Z" fill="white"/>
<path d="M51.3653 8.65078C52.0271 8.65078 52.5498 9.02493 52.9332 9.77324C53.2169 10.3324 53.3587 10.9738 53.3587 11.6975C53.3587 11.9442 53.343 12.1991 53.3115 12.4622L52.7678 16.7301C52.5944 18.0869 52.0692 18.9092 51.1919 19.197L44.5576 21.4543C44.2949 21.5447 44.1374 21.7914 44.0848 22.1944L43.8169 24.316H51.7986L51.2156 28.8552L37.1511 28.8552L38.1833 20.7759C38.3566 19.4273 38.8819 18.6049 39.7591 18.3089L46.3856 16.064C46.6535 15.9653 46.8111 15.7186 46.8583 15.3239L46.945 14.6702C46.9608 14.5633 46.9686 14.4605 46.9686 14.3618C46.9686 14.0904 46.9135 13.8437 46.8032 13.6217C46.6508 13.3339 46.4433 13.19 46.1807 13.19C45.9181 13.19 45.6764 13.338 45.4558 13.634C45.2352 13.9218 45.0986 14.2672 45.0461 14.6702L44.9358 15.5583L38.853 15.5583L39.247 12.4622C39.3783 11.4179 39.7302 10.5216 40.3028 9.77324C40.8806 9.02493 41.503 8.65078 42.1702 8.65078L51.3653 8.65078Z" fill="white"/>
<path d="M57.1093 8.65078L66.2965 8.65078C66.9636 8.65078 67.4889 9.02493 67.8723 9.77324C68.1507 10.3324 68.29 10.9697 68.29 11.6851C68.29 11.9318 68.2742 12.1909 68.2427 12.4622L66.6353 25.0437C66.4987 26.0963 66.1442 26.9967 65.5716 27.745C64.999 28.4851 64.3792 28.8552 63.7121 28.8552H54.5249C53.8525 28.8552 53.3272 28.481 52.949 27.7327C52.6654 27.19 52.5235 26.5609 52.5235 25.8455C52.5235 25.5906 52.5419 25.3233 52.5787 25.0437L54.1861 12.4622C54.3174 11.4179 54.6693 10.5216 55.2419 9.77324C55.8144 9.02493 56.4369 8.65078 57.1093 8.65078ZM61.1198 13.19C60.8572 13.19 60.6155 13.338 60.3949 13.634C60.1743 13.9218 60.0377 14.2672 59.9852 14.6702L58.9451 22.8358C58.9294 22.9427 58.9215 23.0455 58.9215 23.1442C58.9215 23.4237 58.9766 23.6704 59.087 23.8842C59.234 24.1721 59.4389 24.316 59.7015 24.316C59.9589 24.316 60.1979 24.1721 60.4186 23.8842C60.6444 23.5964 60.7836 23.2469 60.8362 22.8358L61.8762 14.6702C61.892 14.5633 61.8999 14.4605 61.8999 14.3618C61.8999 14.0904 61.8447 13.8437 61.7344 13.6217C61.5821 13.3339 61.3772 13.19 61.1198 13.19Z" fill="white"/>
<path d="M15.9769 8.58209H21.7209L20.0032 21.9777H21.0118L20.4366 26.5169H19.428L19.1365 28.7865L13.0537 28.7865L13.3452 26.5169H6.71875L7.01028 24.2473L15.9769 8.58209ZM13.9283 21.9777L14.4798 17.6728L12.0136 21.9777H13.9283Z" fill="white"/>
</g>
<defs>
<filter id="filter0_f_11221_49402" x="5.26287" y="6.54046" width="64.4821" height="25.5607" filterUnits="userSpaceOnUse" color-interpolation-filters="sRGB">
<feFlood flood-opacity="0" result="BackgroundImageFix"/>
<feBlend mode="normal" in="SourceGraphic" in2="BackgroundImageFix" result="shape"/>
<feGaussianBlur stdDeviation="0.727941" result="effect1_foregroundBlur_11221_49402"/>
</filter>
<filter id="filter1_i_11221_49402" x="6.71875" y="6.54046" width="61.5703" height="24.1048" filterUnits="userSpaceOnUse" color-interpolation-filters="sRGB">
<feFlood flood-opacity="0" result="BackgroundImageFix"/>
<feBlend mode="normal" in="SourceGraphic" in2="BackgroundImageFix" result="shape"/>
<feColorMatrix in="SourceAlpha" type="matrix" values="0 0 0 0 0 0 0 0 0 0 0 0 0 0 0 0 0 0 127 0" result="hardAlpha"/>
<feOffset dy="-1.45588"/>
<feGaussianBlur stdDeviation="0.727941"/>
<feComposite in2="hardAlpha" operator="arithmetic" k2="-1" k3="1"/>
<feColorMatrix type="matrix" values="0 0 0 0 0 0 0 0 0 0 0 0 0 0 0 0 0 0 0.24 0"/>
<feBlend mode="normal" in2="shape" result="effect1_innerShadow_11221_49402"/>
</filter>
</defs>
</svg>
