<svg width="76" height="42" viewBox="0 0 76 42" fill="none" xmlns="http://www.w3.org/2000/svg">
<path fill-rule="evenodd" clip-rule="evenodd" d="M52.5675 15.7918C53.3051 14.6083 54.1269 13.4925 54.9504 12.4689C56.5202 10.5175 58.9204 7.67839 61.666 7.67839C63.0259 7.67839 64.2756 8.17871 65.2669 9.10255C66.3096 10.074 66.8822 11.3634 66.8822 12.7842C66.8822 14.0421 66.3102 15.1642 65.5743 16.1511C66.3471 16.6274 67.0489 17.2417 67.6694 17.9845C69.1481 19.7554 69.8753 21.8626 69.8753 24.1631C69.8753 26.9266 68.8297 29.3565 66.7796 31.2283C64.7848 33.0496 62.3419 33.9499 59.6366 33.9499C56.9083 33.9499 54.4579 33.0158 52.5611 31.0529C52.2728 30.7549 52.0087 30.4448 51.767 30.1233C51.376 30.6311 50.9233 31.1062 50.4083 31.5446C48.4856 33.1825 46.1575 33.9494 43.6322 33.9494C41.3709 33.9494 39.2637 33.3046 37.4108 32.0157C35.2084 30.4838 33.8877 28.2797 33.8877 25.5849C33.8877 25.5798 33.8877 25.5746 33.8877 25.5695L31.1057 30.7956C30.1582 32.5756 28.6283 34.0009 26.4876 34.0009C25.2177 34.0009 24.0389 33.5516 23.1058 32.6943C23.0176 32.6135 22.9328 32.5298 22.8521 32.4438C21.2102 33.4582 19.3273 33.9488 17.2973 33.9488C16.193 33.9488 15.0984 33.7963 14.0396 33.4846C12.7824 33.1149 11.6082 32.5384 10.5748 31.7332C9.08115 30.5692 8.09961 28.9783 8.09961 27.0578C8.09961 25.7672 8.54655 24.5642 9.41967 23.6077C9.68322 23.3195 9.97272 23.069 10.2836 22.8575C9.81182 22.0713 9.55692 21.1119 9.55692 20.0499C9.55692 19.4379 9.63477 18.7925 9.71205 18.1856L10.3366 13.2724C10.5304 11.7474 11.0892 10.2717 12.3637 9.31517C13.4802 8.47672 14.8948 8.27213 16.257 8.27213H21.5395C24.7258 8.27213 27.4328 9.96507 27.4328 13.3785C27.4328 15.1912 26.9126 16.6721 25.7096 17.5203C26.0741 17.9604 26.1462 18.2848 26.4161 18.7645L30.6092 10.8872C31.5625 9.09682 33.1046 7.67725 35.2533 7.67725C36.5036 7.67725 37.6691 8.11108 38.5993 8.94208C38.6391 8.97761 38.6778 9.01372 38.7164 9.04982C38.8594 8.97188 39.0048 8.89623 39.153 8.82402C40.5918 8.12025 42.1316 7.72825 43.7371 7.72825C46.003 7.72825 48.0727 8.46068 49.7907 9.93125C51.5675 11.4528 52.5104 13.4799 52.5681 15.7895L52.5675 15.7918Z" fill="#850001"/>
<path fill-rule="evenodd" clip-rule="evenodd" d="M51.5298 14.6486C52.2674 13.4651 53.0892 12.3493 53.9127 11.3257C55.4825 9.37431 57.8827 6.53517 60.6283 6.53517C61.9882 6.53517 63.2384 7.03548 64.2298 7.95932C65.2724 8.93073 65.8451 10.2202 65.8451 11.6409C65.8451 12.8989 65.273 14.021 64.5372 15.0079C65.3099 15.4841 66.0118 16.0985 66.6323 16.8412C68.1109 18.6121 68.8382 20.7194 68.8382 23.0198C68.8382 25.7833 67.7926 28.2133 65.7425 30.085C63.7477 31.9064 61.3048 32.8067 58.5995 32.8067C55.8712 32.8067 53.4208 31.8731 51.524 29.9097C51.2357 29.6117 50.9715 29.3016 50.7299 28.9801C50.3389 29.4879 49.8862 29.963 49.3712 30.4014C47.4485 32.0393 45.1204 32.8061 42.595 32.8061C40.3338 32.8061 38.2266 32.1614 36.3736 30.8725C34.1712 29.3406 32.8506 27.1359 32.8506 24.4417C32.8506 24.4366 32.8506 24.4314 32.8506 24.4262L30.0686 29.6523C29.1211 31.4324 27.5911 32.8577 25.4504 32.8577C24.1806 32.8577 23.0018 32.4084 22.0687 31.5516C21.9805 31.4702 21.8957 31.3871 21.815 31.3012C20.1731 32.3155 18.2902 32.8061 16.2602 32.8061C15.1559 32.8061 14.0613 32.6537 13.0025 32.3419C11.7453 31.9723 10.5711 31.3957 9.53768 30.5905C8.04404 29.4265 7.0625 27.8356 7.0625 25.9152C7.0625 24.6251 7.50944 23.4216 8.38256 22.4651C8.64611 22.1768 8.93561 21.9264 9.24645 21.7143C8.77471 20.928 8.51981 19.9687 8.51981 18.9067C8.51981 18.2946 8.59766 17.6493 8.67494 17.0424L9.2995 12.1292C9.49327 10.6042 10.0521 9.12845 11.3266 8.17194C12.4431 7.3335 13.8577 7.12833 15.2199 7.12833H20.5024C23.6886 7.12833 26.3957 8.82127 26.3957 12.2347C26.3957 14.0474 25.6315 15.3907 24.428 16.2389C24.7924 16.6791 25.109 17.1404 25.3789 17.6207L29.5721 9.74339C30.5254 7.95245 32.0675 6.53345 34.2162 6.53345C35.4665 6.53345 36.632 6.96728 37.5622 7.79885C37.602 7.83439 37.6406 7.87049 37.6793 7.9066C37.8223 7.82866 37.9676 7.75301 38.1158 7.6808C39.5547 6.97703 41.0945 6.58503 42.7 6.58503C44.9658 6.58503 47.0356 7.31745 48.7536 8.78803C50.5304 10.3096 51.4733 12.3367 51.5309 14.6463L51.5298 14.6486ZM35.978 18.5531L35.1199 20.1652C35.752 19.7194 36.4728 19.4288 37.2525 19.3262C37.2502 19.2569 37.2485 19.1864 37.2485 19.1159C37.2485 19.0884 37.2485 19.0609 37.2491 19.0334C36.8027 18.9336 36.376 18.7726 35.9775 18.5537L35.978 18.5531Z" fill="#F43A3B"/>
<path fill-rule="evenodd" clip-rule="evenodd" d="M51.8527 14.1428C52.5038 13.1462 53.208 12.2023 53.9127 11.3255C55.4825 9.37406 57.8827 6.53491 60.6283 6.53491C61.9882 6.53491 63.2384 7.03523 64.2292 7.95907C64.3878 8.10693 64.5349 8.26167 64.6715 8.42328L64.6242 8.37858C63.6329 7.45474 62.3826 6.95442 61.0234 6.95442C58.2777 6.95442 55.8775 9.79357 54.3077 11.745C53.4842 12.7685 52.6618 13.8844 51.9248 15.0678L51.5298 14.6483L51.8527 14.1428ZM65.0101 15.3228C65.5279 15.6948 66.0106 16.1326 66.4541 16.6341C65.9847 16.1659 65.4766 15.763 64.9334 15.4283L65.0106 15.3234L65.0101 15.3228ZM51.633 30.0212C51.5961 29.9845 51.5598 29.9478 51.524 29.91C51.3752 29.7558 51.2322 29.5982 51.0961 29.4383L51.1255 29.4005C51.2847 29.612 51.4537 29.8194 51.6336 30.0212H51.633ZM35.1199 29.8338C33.9158 28.6389 33.139 27.1654 32.9169 25.4656L33.2462 24.8466C33.2462 24.8518 33.2462 24.857 33.2462 24.8615C33.2462 26.7929 33.9244 28.4727 35.1199 29.8332V29.8338ZM8.87909 30.0172C7.76203 28.9243 7.0625 27.5379 7.0625 25.9166C7.0625 24.626 7.50944 23.4231 8.38256 22.4666C8.64611 22.1783 8.93561 21.9278 9.24645 21.7158C8.77471 20.9295 8.51981 19.9701 8.51981 18.9082C8.51981 18.2961 8.59766 17.6508 8.67494 17.0439L9.2995 12.1307C9.49327 10.6056 10.0521 9.12991 11.3266 8.17341C12.4431 7.33496 13.8577 7.12979 15.2199 7.12979H20.5024C22.4718 7.12979 24.2584 7.77682 25.3351 9.07776C24.2434 8.05764 22.6425 7.54987 20.8974 7.54987H15.6149C14.2527 7.54987 12.8387 7.75447 11.7216 8.59349C10.4471 9.55 9.88831 11.0257 9.69454 12.5508L9.06998 17.464C8.9927 18.0714 8.91485 18.7162 8.91485 19.3282C8.91485 20.3902 9.16975 21.349 9.64148 22.1359C9.33007 22.3473 9.04057 22.5978 8.77759 22.8866C7.90448 23.8431 7.45754 25.0467 7.45754 26.3367C7.45754 27.7568 7.99502 28.997 8.87909 30.0177V30.0172ZM25.3784 17.6221L29.5715 9.74485C30.5248 7.95448 32.0663 6.53491 34.2156 6.53491C35.4659 6.53491 36.6314 6.96875 37.5616 7.80032C37.6014 7.83585 37.6401 7.87196 37.6781 7.90806C37.8212 7.83012 37.9671 7.75447 38.1147 7.68283C39.5535 6.97907 41.0933 6.58706 42.6988 6.58706C44.9647 6.58706 47.0344 7.31949 48.7524 8.79007C49.0627 9.05598 49.3476 9.33738 49.6071 9.6331C49.4606 9.4881 49.3078 9.34712 49.148 9.21015C47.4301 7.73957 45.3603 7.00715 43.0945 7.00715C41.4884 7.00715 39.9492 7.39915 38.5103 8.10292C38.3627 8.17513 38.2173 8.2502 38.0737 8.32872C38.0351 8.29261 37.9965 8.25651 37.9573 8.22098C37.0276 7.38941 35.8615 6.95614 34.6113 6.95614C32.4619 6.95614 30.9204 8.37514 29.9671 10.1661L25.774 18.0434L25.3789 17.6238L25.3784 17.6221ZM36.0023 19.6692C36.3829 19.5053 36.7854 19.3913 37.2052 19.3317L37.2496 19.032L37.6447 19.4515C37.6441 19.479 37.6441 19.5065 37.6441 19.5346C37.6441 19.6051 37.6453 19.6755 37.6476 19.7449C36.8679 19.8475 36.147 20.138 35.5149 20.5839L35.1199 20.1644C35.4734 19.9105 35.5991 19.8354 36.0023 19.6692Z" fill="#FF6161"/>
<path d="M16.1441 16.7541C16.8206 16.5988 17.4365 16.5214 17.9959 16.5214C19.7133 16.5214 21.11 17.1507 22.1856 18.4092C23.2092 19.599 23.7207 21.0558 23.7207 22.7797C23.7207 24.8486 23.0396 26.5639 21.6781 27.9261C20.3159 29.2878 18.5945 29.9692 16.5126 29.9692C15.6972 29.9692 14.9077 29.8569 14.1447 29.6328C13.2076 29.3572 12.4013 28.952 11.7243 28.4173C10.8742 27.7622 10.4492 27.0206 10.4492 26.1931C10.4492 25.659 10.6182 25.2062 10.9567 24.8354C11.2952 24.4646 11.7243 24.2795 12.245 24.2795C12.6441 24.2795 13.2819 24.5466 14.158 25.0813C15.034 25.616 15.8015 25.883 16.4607 25.883C17.2415 25.883 17.8874 25.6028 18.3995 25.0423C18.9117 24.4818 19.1671 23.8141 19.1671 23.0382C19.1671 22.245 18.9636 21.6025 18.5558 21.1114C18.1481 20.6203 17.5541 20.3744 16.7733 20.3744C16.3742 20.3744 15.8367 20.4867 15.1597 20.7108C14.4832 20.9349 13.9538 21.0472 13.5726 21.0472C12.4625 21.0472 11.9071 20.4265 11.9071 19.1852C11.9071 18.8924 11.9504 18.4006 12.0374 17.7112L12.662 12.7974C12.7837 11.8667 13.0524 11.246 13.4688 10.9354C13.8333 10.6598 14.5011 10.5216 15.4728 10.5216H20.7554C22.5944 10.5216 23.5137 11.1853 23.5137 12.5132C23.5137 13.8233 22.6463 14.4783 20.9116 14.4783H16.4359L16.1452 16.7541H16.1441ZM25.7034 30.0208C25.2132 30.0208 24.7968 29.8615 24.4502 29.5423C24.1031 29.2231 23.9295 28.8225 23.9295 28.3399C23.9295 27.9433 24.0506 27.521 24.294 27.0728L32.5955 11.4787C33.1509 10.4443 33.7754 9.92733 34.4692 9.92733C34.9548 9.92733 35.3711 10.0826 35.7183 10.3927C36.0655 10.7027 36.2385 11.0993 36.2385 11.5824C36.2385 11.9618 36.1082 12.3968 35.8527 12.8799L27.5511 28.474C26.9958 29.5039 26.3799 30.0214 25.7034 30.0214V30.0208ZM46.4656 19.0299C48.5821 20.0987 49.6403 21.7023 49.6403 23.8399C49.6403 25.6504 48.9552 27.1416 47.5844 28.3141C46.2834 29.4174 44.7044 29.9692 42.848 29.9692C41.2171 29.9692 39.7425 29.5125 38.4242 28.5984C36.9669 27.5811 36.2385 26.2882 36.2385 24.7191C36.2385 24.2193 36.4294 23.7534 36.8111 23.3224C37.1929 22.8915 37.6352 22.676 38.1381 22.676C38.6935 22.676 39.205 22.9602 39.6733 23.5293C40.0724 24.0463 40.4801 24.5724 40.8965 25.1071C41.4518 25.6762 42.1196 25.9604 42.9005 25.9604C43.5769 25.9604 44.1277 25.7231 44.5533 25.2492C44.9783 24.7752 45.1905 24.2021 45.1905 23.5293C45.1905 22.7533 44.9045 22.1934 44.3318 21.8484C43.9847 21.6415 43.3515 21.4604 42.4322 21.3051C41.235 21.0982 40.6364 20.4604 40.6364 19.3915C40.6364 18.8052 40.7927 18.3657 41.1046 18.0728C41.3647 17.8315 41.8071 17.6418 42.4316 17.5037C43.7673 17.1931 44.4356 16.5466 44.4356 15.5644C44.4356 14.4783 43.9155 13.935 42.8745 13.935C42.1283 13.935 41.4864 14.1419 40.9489 14.5557C40.9143 14.5729 40.5412 14.9523 39.8302 15.6933C39.4311 16.1071 39.0234 16.314 38.607 16.314C38.1041 16.314 37.6791 16.1375 37.3319 15.7839C36.9847 15.4302 36.8117 15.0039 36.8117 14.5035C36.8117 13.986 36.9767 13.4519 37.306 12.9C37.8267 12.0037 38.6416 11.2879 39.7523 10.7537C40.7932 10.2368 41.8601 9.97776 42.953 9.97776C44.4968 9.97776 45.833 10.4603 46.9604 11.426C48.0879 12.3917 48.6519 13.633 48.6519 15.15C48.6519 16.6842 47.9229 17.9771 46.4656 19.0293V19.0299ZM59.0088 17.349C59.7723 17.2625 60.2752 17.2195 60.518 17.2195C62.1143 17.2195 63.4326 17.8487 64.4735 19.1073C65.4626 20.2798 65.9568 21.6759 65.9568 23.2966C65.9568 25.2102 65.263 26.8006 63.8749 28.0677C62.4874 29.3348 60.8127 29.9687 58.8525 29.9687C56.8923 29.9687 55.2873 29.3222 54.0382 28.0293C52.7891 26.7364 52.1645 25.1071 52.1645 23.1413C52.1645 20.4346 53.6478 17.2367 56.6143 13.547C58.5572 11.1331 59.9799 9.92676 60.8819 9.92676C61.4372 9.92676 61.9228 10.1205 62.3392 10.5085C62.7555 10.8964 62.9637 11.3664 62.9637 11.9177C62.9637 12.3831 62.6339 13.0123 61.9747 13.8055C61.4718 14.3574 60.973 14.9087 60.4782 15.4606C59.9834 16.0125 59.4938 16.6418 59.0076 17.3484L59.0088 17.349ZM56.5889 23.3614C56.5889 24.0554 56.8231 24.6675 57.2914 25.2062C57.7596 25.7449 58.3409 26.012 59.0347 26.012C59.7285 26.012 60.3098 25.7449 60.7781 25.2062C61.2463 24.6675 61.4805 24.0554 61.4805 23.3614C61.4805 22.6502 61.2509 22.0381 60.7907 21.5292C60.3311 21.0163 59.7458 20.7618 59.0341 20.7618C58.3231 20.7618 57.7371 21.0163 57.2775 21.5292C56.8179 22.0381 56.5878 22.6502 56.5878 23.3614H56.5889Z" fill="#850001"/>
<path d="M15.8921 16.4765C16.5686 16.3212 17.1845 16.2438 17.7439 16.2438C19.4613 16.2438 20.8581 16.8731 21.9336 18.1316C22.9572 19.3214 23.4688 20.7782 23.4688 22.5021C23.4688 24.571 22.7877 26.2863 21.4261 27.6486C20.064 29.0102 18.3425 29.6917 16.2606 29.6917C15.4452 29.6917 14.6557 29.5793 13.8927 29.3552C12.9556 29.0796 12.1494 28.6744 11.4723 28.1397C10.6223 27.4846 10.1973 26.7431 10.1973 25.9155C10.1973 25.3814 10.3662 24.9286 10.7048 24.5578C11.0433 24.187 11.4723 24.0019 11.9931 24.0019C12.3922 24.0019 13.0294 24.269 13.906 24.8037C14.782 25.3384 15.5496 25.6054 16.2087 25.6054C16.9896 25.6054 17.6355 25.3252 18.1476 24.7647C18.6591 24.2042 18.9152 23.5366 18.9152 22.7606C18.9152 21.9674 18.7116 21.325 18.3033 20.8338C17.8956 20.3421 17.3016 20.0968 16.5207 20.0968C16.1217 20.0968 15.5842 20.2091 14.9071 20.4332C14.2307 20.6573 13.7013 20.7696 13.3195 20.7696C12.2094 20.7696 11.654 20.149 11.654 18.9076C11.654 18.6142 11.6973 18.123 11.7843 17.4336L12.4089 12.5198C12.5306 11.5891 12.7993 10.9684 13.2157 10.6578C13.5802 10.3822 14.248 10.244 15.2197 10.244H20.5022C22.3413 10.244 23.2606 10.9077 23.2606 12.2356C23.2606 13.5457 22.3932 14.2007 20.658 14.2007H16.1822L15.8916 16.4765H15.8921ZM25.4514 29.7432C24.9613 29.7432 24.5449 29.5839 24.1983 29.2647C23.8511 28.9455 23.6781 28.5449 23.6781 28.0623C23.6781 27.6657 23.7992 27.2434 24.0426 26.7952L32.3441 11.2011C32.8989 10.1667 33.524 9.64974 34.2178 9.64974C34.7034 9.64974 35.1198 9.80505 35.4669 10.1151C35.8141 10.4257 35.9871 10.8217 35.9871 11.3049C35.9871 11.6843 35.8568 12.1192 35.6013 12.6024L27.2998 28.1964C26.7444 29.2263 26.1285 29.7438 25.452 29.7438L25.4514 29.7432ZM46.2137 18.7523C48.3301 19.8211 49.3884 21.4247 49.3884 23.5623C49.3884 25.3728 48.7033 26.864 47.3324 28.0365C46.0314 29.1398 44.4524 29.6917 42.596 29.6917C40.9651 29.6917 39.4905 29.2349 38.1722 28.3208C36.7149 27.3035 35.9865 26.0106 35.9865 24.4415C35.9865 23.9417 36.1774 23.4758 36.5592 23.0448C36.941 22.6139 37.3833 22.3984 37.8862 22.3984C38.4415 22.3984 38.953 22.6826 39.4213 23.2517C39.8204 23.7692 40.2281 24.2948 40.6445 24.8295C41.1999 25.3986 41.8677 25.6828 42.6485 25.6828C43.325 25.6828 43.8757 25.4456 44.3013 24.9716C44.7264 24.4976 44.9386 23.924 44.9386 23.2517C44.9386 22.4757 44.6525 21.9158 44.0799 21.5708C43.7327 21.3639 43.0995 21.1828 42.1802 21.0275C40.983 20.8206 40.3844 20.1828 40.3844 19.1139C40.3844 18.5277 40.5407 18.0881 40.8527 17.7952C41.1128 17.554 41.5551 17.3643 42.1797 17.2261C43.5153 16.9155 44.1837 16.2691 44.1837 15.2868C44.1837 14.2007 43.6635 13.6574 42.6226 13.6574C41.8763 13.6574 41.2345 13.8643 40.697 14.2781C40.6624 14.2953 40.2893 14.6747 39.5782 15.4163C39.1791 15.8301 38.7714 16.037 38.355 16.037C37.8521 16.037 37.4271 15.8604 37.0799 15.5068C36.7328 15.1532 36.5598 14.7268 36.5598 14.2271C36.5598 13.7096 36.7247 13.1755 37.054 12.6236C37.5742 11.7272 38.3896 11.0114 39.5003 10.4773C40.5413 9.95979 41.6082 9.70132 42.701 9.70132C44.2448 9.70132 45.581 10.1839 46.7085 11.1495C47.8359 12.1152 48.3999 13.3566 48.3999 14.8736C48.3999 16.4078 47.671 17.7007 46.2142 18.7529L46.2137 18.7523ZM58.7568 17.0714C59.5203 16.9849 60.0232 16.9419 60.266 16.9419C61.8617 16.9419 63.1806 17.5711 64.2216 18.8297C65.2106 20.0022 65.7048 21.3983 65.7048 23.019C65.7048 24.9326 65.0111 26.523 63.6229 27.7901C62.2348 29.0572 60.5607 29.6911 58.6005 29.6911C56.6403 29.6911 55.0354 29.0446 53.7862 27.7517C52.5371 26.4588 51.9126 24.8295 51.9126 22.8637C51.9126 20.157 53.3958 16.9591 56.3623 13.2694C58.3052 10.8555 59.7279 9.64917 60.6299 9.64917C61.1853 9.64917 61.6708 9.84288 62.0872 10.2309C62.5036 10.6189 62.7118 11.0888 62.7118 11.6401C62.7118 12.1055 62.3819 12.7347 61.7227 13.5279C61.2199 14.0792 60.721 14.6311 60.2262 15.183C59.732 15.7349 59.2418 16.3642 58.7556 17.0708L58.7568 17.0714ZM56.3364 23.0838C56.3364 23.7778 56.5705 24.3899 57.0388 24.9286C57.5071 25.4673 58.0884 25.7344 58.7822 25.7344C59.4759 25.7344 60.0572 25.4673 60.5255 24.9286C60.9938 24.3899 61.2279 23.7778 61.2279 23.0838C61.2279 22.3726 60.9984 21.7605 60.5382 21.2522C60.0786 20.7392 59.4932 20.4848 58.7816 20.4848C58.0705 20.4848 57.4846 20.7392 57.025 21.2522C56.5653 21.7611 56.3352 22.3732 56.3352 23.0838H56.3364Z" fill="white"/>
<path d="M16.4129 16.3705C16.8881 16.2863 17.331 16.2444 17.7433 16.2444C19.0282 16.2444 20.1337 16.5969 21.0593 17.3012C20.2358 16.8078 19.286 16.5613 18.2105 16.5613C17.6511 16.5613 17.0352 16.6387 16.3587 16.794L15.8898 16.4737L16.4129 16.3711V16.3705ZM12.0779 28.5627C11.8656 28.432 11.6638 28.291 11.4723 28.1397C10.6223 27.4846 10.1973 26.7431 10.1973 25.9155C10.1973 25.3814 10.3662 24.9286 10.7048 24.5578C11.0433 24.187 11.4723 24.0019 11.9931 24.0019C12.3922 24.0019 13.0294 24.269 13.906 24.8037C14.782 25.3384 15.5496 25.6055 16.2087 25.6055C16.9896 25.6055 17.6355 25.3252 18.1476 24.7647C18.6591 24.2042 18.9152 23.5366 18.9152 22.7606C18.9152 21.9674 18.7116 21.3255 18.3039 20.8338C18.2479 20.7662 18.188 20.7031 18.1245 20.6447C18.376 20.7656 18.5917 20.9341 18.771 21.1507C19.1787 21.6419 19.3823 22.2843 19.3823 23.0775C19.3823 23.8535 19.1263 24.5211 18.6147 25.0816C18.1032 25.6421 17.4567 25.9224 16.6759 25.9224C16.0167 25.9224 15.2491 25.6553 14.3731 25.1206C13.4971 24.5859 12.8593 24.3188 12.4602 24.3188C11.94 24.3188 11.5104 24.504 11.1719 24.8747C10.8334 25.2455 10.6644 25.6983 10.6644 26.2324C10.6644 27.06 11.0894 27.801 11.9395 28.4566C11.985 28.4927 12.0312 28.5283 12.0779 28.5632V28.5627ZM12.5548 20.639C11.9545 20.3971 11.654 19.82 11.654 18.907C11.654 18.6142 11.6973 18.1225 11.7843 17.433L12.4089 12.5193C12.53 11.5885 12.7993 10.9679 13.2157 10.6573C13.5802 10.3816 14.248 10.2435 15.2191 10.2435H20.5017C21.5432 10.2435 22.2894 10.4567 22.741 10.8819C22.2987 10.667 21.7081 10.5598 20.9688 10.5598H15.6863C14.7145 10.5598 14.0467 10.6979 13.6828 10.9736C13.2664 11.2842 12.9977 11.9043 12.876 12.8356L12.2515 17.7494C12.165 18.4388 12.1211 18.9305 12.1211 19.2234C12.1211 19.8567 12.2659 20.3283 12.5548 20.6384V20.639ZM24.6596 29.5765C24.4936 29.4991 24.3396 29.3954 24.1971 29.2647C23.85 28.9461 23.6764 28.5449 23.6764 28.0623C23.6764 27.6657 23.7981 27.2434 24.0409 26.7952L32.3424 11.2011C32.8978 10.1667 33.5223 9.64974 34.2161 9.64974C34.7022 9.64974 35.118 9.80505 35.4652 10.1151L35.4888 10.1363C35.2455 10.0228 34.9773 9.96609 34.6838 9.96609C33.99 9.96609 33.3655 10.483 32.8101 11.5175L24.5091 27.1116C24.2663 27.5597 24.1447 27.9821 24.1447 28.3787C24.1447 28.8589 24.3165 29.2584 24.6602 29.5765H24.6596ZM46.7263 19.0348C46.9293 19.1563 47.1202 19.2836 47.3002 19.4165C47.1047 19.295 46.8976 19.1793 46.6796 19.0692L46.7263 19.0354V19.0348ZM38.4923 28.5317C38.3844 28.4641 38.2772 28.3936 38.1716 28.3202C36.7143 27.303 35.986 26.0101 35.986 24.4409C35.986 23.9412 36.1768 23.4752 36.5586 23.0443C36.9404 22.6133 37.3827 22.3978 37.8856 22.3978C38.3043 22.3978 38.6987 22.5594 39.0678 22.8832C38.8383 22.7709 38.6001 22.7142 38.3533 22.7142C37.8504 22.7142 37.4081 22.9296 37.0263 23.3606C36.6445 23.7916 36.4537 24.2569 36.4537 24.7573C36.4537 26.2725 37.1336 27.5305 38.4929 28.5311L38.4923 28.5317ZM41.3521 25.3688C41.7425 25.5779 42.1745 25.6822 42.648 25.6822C43.3244 25.6822 43.8752 25.445 44.3008 24.971C44.7258 24.4971 44.938 23.924 44.938 23.2512C44.938 22.6311 44.7552 22.1491 44.3896 21.8041C44.4472 21.831 44.4991 21.8585 44.5464 21.8866C45.1191 22.2316 45.4051 22.7915 45.4051 23.5675C45.4051 24.2398 45.1929 24.8134 44.7679 25.2874C44.3429 25.7613 43.7921 25.9986 43.1151 25.9986C42.4444 25.9986 41.8567 25.7888 41.3521 25.3682V25.3688ZM41.3688 20.7794C40.7126 20.4607 40.3838 19.9054 40.3838 19.1139C40.3838 18.5277 40.5401 18.0881 40.8521 17.7952C41.1122 17.554 41.5545 17.3643 42.1791 17.2261C43.5147 16.9155 44.1831 16.2691 44.1831 15.2868C44.1831 14.7624 44.0614 14.3646 43.8192 14.0936C44.3734 14.3079 44.6502 14.8111 44.6502 15.6037C44.6502 16.5866 43.9824 17.233 42.6462 17.5431C42.0217 17.6812 41.5793 17.8709 41.3192 18.1122C41.0073 18.4056 40.851 18.8451 40.851 19.4309C40.851 20.0045 41.0234 20.4544 41.3688 20.7799V20.7794ZM37.6059 15.8811C37.4139 15.7934 37.238 15.6685 37.0788 15.5063C36.7316 15.1527 36.5586 14.7263 36.5586 14.226C36.5586 13.709 36.7236 13.1743 37.0528 12.6224C37.573 11.7261 38.3885 11.0103 39.4992 10.4762C40.5401 9.95922 41.607 9.70018 42.6999 9.70018C44.0955 9.70018 45.3209 10.0945 46.3769 10.8836C45.4317 10.3059 44.3619 10.0171 43.1676 10.0171C42.0747 10.0171 41.0078 10.2756 39.9669 10.7931C38.8568 11.3272 38.0413 12.043 37.5205 12.9393C37.1907 13.4912 37.0263 14.0254 37.0263 14.5429C37.0263 15.0426 37.1999 15.4696 37.5465 15.8232C37.5661 15.8432 37.5863 15.8627 37.6065 15.8816L37.6059 15.8811ZM59.5007 16.9923C59.8577 16.9585 60.1126 16.9413 60.2649 16.9413C61.4217 16.9413 62.4332 17.272 63.2983 17.9339C62.5422 17.4835 61.687 17.2582 60.732 17.2582C60.4892 17.2582 59.9857 17.3012 59.2228 17.3878L58.7608 17.0725L59.5007 16.9929V16.9923ZM55.0325 28.7569C54.5838 28.4824 54.168 28.1472 53.7857 27.7517C52.5366 26.4588 51.912 24.8295 51.912 22.8637C51.912 20.157 53.3953 16.9591 56.3618 13.2694C58.3047 10.8555 59.7274 9.64917 60.6299 9.64917C61.1599 9.64917 61.627 9.82626 62.0307 10.1799C61.7452 10.0372 61.4338 9.96609 61.0976 9.96609C60.1957 9.96609 58.7729 11.173 56.8295 13.5864C53.863 17.276 52.3797 20.4739 52.3797 23.1807C52.3797 25.1464 53.0043 26.7751 54.2534 28.0686C54.4996 28.3237 54.7591 28.5529 55.0331 28.7575L55.0325 28.7569ZM57.7614 25.5023C58.0688 25.657 58.4091 25.7344 58.7816 25.7344C59.4754 25.7344 60.0567 25.4673 60.525 24.9286C60.9932 24.3899 61.2279 23.7778 61.2279 23.0838C61.2279 22.3726 60.9978 21.7605 60.5382 21.2522C60.4702 21.1765 60.3998 21.1066 60.3266 21.0418C60.5769 21.1679 60.8035 21.3433 61.0053 21.5685C61.465 22.0769 61.6951 22.6889 61.6951 23.4002C61.6951 24.0942 61.4609 24.7063 60.9927 25.245C60.5244 25.7837 59.9431 26.0508 59.2493 26.0508C58.6766 26.0508 58.1807 25.8685 57.762 25.5023H57.7614Z" fill="#EBECEC"/>
</svg>
