<svg width="76" height="42" viewBox="0 0 76 42" fill="none" xmlns="http://www.w3.org/2000/svg">
<path fill-rule="evenodd" clip-rule="evenodd" d="M49.791 13.9965C51.9674 11.9276 54.6533 10.8745 57.6639 10.8745C58.7349 10.8745 59.7956 11.0197 60.8292 11.2978C61.8973 11.5853 62.914 12.021 63.8589 12.5924C64.7928 13.158 65.6417 13.8411 66.3828 14.6409C67.2001 15.5225 67.8342 16.5435 68.2806 17.6572C68.7505 18.8314 68.9799 20.0713 68.9799 21.3346C68.9799 22.6847 68.7527 24.0165 68.318 25.2951C67.7814 26.8751 66.8453 28.4544 65.9481 29.857L62.1634 35.7756C61.1979 37.3235 59.6146 38.2277 57.7768 38.2277H53.8917C52.1822 38.2277 50.6875 37.222 50.1304 35.6041C50.0498 35.3728 49.9911 35.1385 49.9537 34.9035C49.7873 35.742 49.3944 36.5112 48.7362 37.1199L48.687 37.1644C47.8668 37.8942 46.8214 38.2277 45.7336 38.2277H42.8608C41.7744 38.2277 40.7306 37.8949 39.9103 37.1666L39.8839 37.1432L39.8582 37.1191C39.0424 36.3645 38.6333 35.3633 38.56 34.2883H33.4346C33.1193 34.2883 32.8078 34.2606 32.5051 34.2036L32.2631 35.1027C31.7757 36.9133 30.0838 38.2277 28.1933 38.2277H26.8159C25.761 38.2277 24.8308 37.8241 24.1454 37.1775C22.4257 38.1795 20.4868 38.6853 18.3939 38.6853C17.3215 38.6853 16.2586 38.54 15.2228 38.2613C14.1576 37.9745 13.1409 37.5446 12.196 36.9761C11.2643 36.4156 10.4177 35.7282 9.67508 34.9356C8.85113 34.0548 8.21631 33.0382 7.76549 31.9223C7.29048 30.7466 7.0625 29.5067 7.0625 28.2391C7.0625 26.8817 7.30294 25.5476 7.73983 24.2632C8.27789 22.6803 9.21692 21.0974 10.1193 19.694L13.9069 13.8024C14.865 12.2516 16.4455 11.3299 18.2862 11.3299H22.1816C23.8654 11.3299 25.3366 12.3027 25.9267 13.8827L25.9399 13.917L25.9524 13.952C26.4061 15.251 26.1686 16.6442 25.3461 17.7345L24.3704 19.089C24.421 19.116 24.4716 19.143 24.5215 19.1715C25.2442 19.5721 25.9025 20.0487 26.4933 20.596L28.164 14.3892C28.6514 12.5786 30.344 11.2642 32.2338 11.2642H33.6112C35.8375 11.2642 37.5081 13.0624 37.5 15.1438L39.1333 13.0668L39.1853 13.007C40.084 11.967 41.2877 11.2686 42.6973 11.2686H45.7336C46.8119 11.2686 47.844 11.5955 48.6628 12.3115C49.2016 12.7814 49.5704 13.3587 49.7903 13.9944L49.791 13.9965Z" fill="url(#paint0_linear_11221_49390)"/>
<path fill-rule="evenodd" clip-rule="evenodd" d="M31.7118 14.8035H33.2571C33.8134 14.8035 34.1587 15.2902 34.0165 15.8164L28.9174 34.761C28.7928 35.2237 28.3244 35.6002 27.8391 35.6002H26.2939C25.7375 35.6002 25.3922 35.1135 25.5337 34.5873L30.6328 15.6427C30.7581 15.1786 31.2243 14.8035 31.7111 14.8035H31.7118Z" fill="#264181"/>
<path fill-rule="evenodd" clip-rule="evenodd" d="M52.4689 34.3759L56.1122 29.2674C55.9802 29.2812 55.8512 29.2907 55.7332 29.2907C54.509 29.2907 53.3588 28.9944 52.2879 28.404C51.2125 27.8114 50.3534 26.9882 49.7105 25.9446C49.0566 24.8821 48.7407 23.7224 48.7407 22.4767C48.7407 20.3019 49.5668 18.4629 51.1392 16.958C52.7438 15.4218 54.6725 14.6665 56.898 14.6665C57.6955 14.6665 58.485 14.776 59.2555 14.9832C60.042 15.1949 60.7883 15.5152 61.4847 15.9363C62.1723 16.3523 62.7954 16.8522 63.3415 17.4412C63.9023 18.0462 64.3333 18.7446 64.639 19.5086C64.9637 20.3194 65.1176 21.1726 65.1176 22.0447C65.1176 23.0591 64.9454 24.0567 64.6192 25.0171C64.1691 26.3417 63.3224 27.7355 62.5703 28.912L58.7761 34.8451C58.3758 35.4961 57.7828 35.8552 57.0116 35.8552H53.1265C52.7402 35.8552 52.4169 35.6815 52.2937 35.3122C52.1728 34.9765 52.249 34.6496 52.4704 34.3752L52.4689 34.3759ZM18.2526 21.7082C18.3816 21.6966 18.5091 21.6893 18.6315 21.6893C19.8557 21.6893 21.0125 21.9834 22.082 22.5759C23.1574 23.1722 24.0165 23.999 24.6586 25.0448C25.3125 26.1088 25.6329 27.2699 25.6329 28.5171C25.6329 30.6897 24.8075 32.5251 23.2343 34.0263C21.6246 35.5618 19.6886 36.3127 17.4609 36.3127C16.6611 36.3127 15.8702 36.2033 15.0983 35.996C14.3117 35.7844 13.5625 35.4676 12.8654 35.0488C12.1785 34.6357 11.5554 34.1299 11.0086 33.5454C10.4442 32.9419 10.0146 32.2471 9.70597 31.483C9.3783 30.6729 9.22656 29.8235 9.22656 28.9506C9.22656 27.9297 9.41202 26.9291 9.74043 25.9636C10.1913 24.6383 11.0394 23.2437 11.7952 22.0687L15.5982 16.1531C15.9926 15.4999 16.5812 15.1255 17.3531 15.1255H21.2485C21.637 15.1255 21.9522 15.2985 22.093 15.6765C22.211 16.0152 22.1399 16.3399 21.9236 16.6114L18.2526 21.709V21.7082ZM46.1838 26.9722H47.7027C48.0421 26.9722 48.4174 27.0335 48.6681 27.3021C48.8807 27.5473 48.9445 27.872 48.9445 28.188V30.6861C48.9445 31.0094 48.8777 31.3422 48.6534 31.5815C48.4152 31.8457 48.0443 31.9165 47.7027 31.9165H46.1838V34.6401C46.1838 34.975 46.12 35.3341 45.8569 35.5771C45.6157 35.7917 45.2822 35.8559 44.9677 35.8559H42.0949C41.7804 35.8559 41.4476 35.7917 41.2013 35.5727C40.9433 35.3341 40.8795 34.975 40.8795 34.6401V31.9165H32.6694C32.3278 31.9165 31.962 31.8457 31.7281 31.5859C31.5002 31.3422 31.4335 31.0086 31.4335 30.6853V28.1822C31.4335 27.9691 31.4694 27.7552 31.5661 27.564C31.6739 27.3495 31.8212 27.1327 31.9576 26.9342L31.9634 26.9255L40.7666 15.7298C41.0598 15.3905 41.4579 15.0635 41.9314 15.0635H44.9677C45.2836 15.0635 45.6106 15.1277 45.8547 15.3408C46.1237 15.5758 46.1838 15.9575 46.1838 16.2947V26.9722ZM15.3541 26.7897C14.7999 27.3232 14.5316 27.9596 14.5316 28.7273C14.5316 29.4994 14.8036 30.1402 15.3563 30.6817C15.9178 31.232 16.5827 31.491 17.3692 31.491C18.1609 31.491 18.8302 31.2283 19.3998 30.6795C19.9591 30.1409 20.2376 29.5016 20.2376 28.7273C20.2376 27.1444 18.924 25.9935 17.3692 25.9935C16.5856 25.9935 15.9185 26.2468 15.3541 26.7897ZM37.4818 26.9722H40.8795V22.5555L37.4818 26.9722Z" fill="#002B8F"/>
<path fill-rule="evenodd" clip-rule="evenodd" d="M50.4243 25.544L50.3129 25.355L50.2088 25.1638L50.112 24.9704L50.0219 24.7748L49.939 24.577L49.8635 24.377L49.7954 24.1749L49.7345 23.9706L49.681 23.764L49.6341 23.5546L49.5945 23.3429L49.5622 23.1291L49.5373 22.9131L49.519 22.6949L49.508 22.4745L49.5043 22.2512L49.5131 21.8688L49.5403 21.4937L49.585 21.1251L49.648 20.7639L49.7286 20.4099L49.8276 20.0625L49.9442 19.7225L50.079 19.3889L50.2315 19.0627L50.4016 18.7431L50.59 18.4307L50.796 18.125L51.0203 17.8265L51.2622 17.5353L51.5224 17.2507L51.8002 16.9734L52.0048 16.7697C52.0854 16.6865 52.1675 16.6041 52.2525 16.5231C53.7809 15.0577 55.6209 14.325 57.7782 14.325C58.5347 14.325 59.2912 14.4264 60.0477 14.63C60.8042 14.8336 61.5197 15.1394 62.1897 15.5459C62.8641 15.9531 63.4571 16.4318 63.9739 16.9916C64.49 17.5462 64.9042 18.2023 65.2062 18.9562C65.5075 19.7093 65.6614 20.5136 65.6614 21.3681C65.6614 22.3096 65.5023 23.2663 65.1805 24.2333C64.8331 25.236 64.1631 26.5131 63.1661 28.0552L59.3682 33.9935C59.281 34.135 59.1857 34.2584 59.0808 34.3649L58.6286 34.8152L58.4644 34.9612L58.287 35.0808L58.0956 35.1743L57.8904 35.2407L57.6712 35.2808L57.4388 35.2939H53.5537L53.4569 35.2888L53.369 35.2742L53.2905 35.2494L53.2209 35.2144L53.1608 35.1691L53.1102 35.1137L53.0691 35.0487L53.0376 34.9736L53.0142 34.8933L53.0017 34.8137L53.001 34.7349L53.0112 34.6568L53.0325 34.5795L53.0655 34.5029L53.1095 34.427L53.1652 34.3518L57.2695 28.5967L57.0679 28.6273L56.8846 28.6543L56.719 28.677L56.5716 28.6959L56.4419 28.7105L56.3305 28.7207L56.2366 28.7273L56.1604 28.7295L55.9419 28.7259L55.725 28.7164L55.5102 28.6996L55.2969 28.677L55.0858 28.647L54.8761 28.6105L54.6686 28.5675L54.4627 28.5179L54.2581 28.4617L54.0558 28.3989L53.855 28.3296L53.6563 28.2537L53.4591 28.1712L53.2641 28.0822L53.0706 27.9866L52.8785 27.8844L52.6894 27.7771L52.5054 27.664L52.3258 27.5458L52.1514 27.4225L51.9813 27.294L51.8164 27.1605L51.6558 27.0218L51.5004 26.878L51.3494 26.7292L51.2035 26.5752L51.0621 26.4161L50.9257 26.2519L50.7938 26.0826L50.6662 25.9081L50.5431 25.7286L50.425 25.544H50.4243ZM10.4455 31.132L10.3905 30.9904L10.3392 30.8473L10.2915 30.7036L10.2468 30.5583L10.2065 30.4124L10.1691 30.265L10.1354 30.1168L10.1053 29.9672L10.0782 29.8162L10.0547 29.6644L10.0349 29.5111L10.0188 29.3564L10.0064 29.2002L9.99756 29.0433L9.99243 28.8849L9.99023 28.7251L9.99243 28.5514L9.9983 28.377L10.0078 28.2011L10.021 28.0253L10.0386 27.8479L10.0599 27.6698L10.0848 27.4911L10.1134 27.3115L10.1464 27.1313L10.183 26.9503L10.2233 26.7686L10.2681 26.5854L10.3164 26.4015L10.3692 26.2168L10.4257 26.0315L10.4858 25.8446L10.5547 25.6534L10.6309 25.4557L10.7152 25.2513L10.8068 25.0412L10.9065 24.8244L11.0136 24.6011L11.1287 24.3719L11.2511 24.1362L11.3808 23.8939L11.5186 23.6458L11.6638 23.3911L11.817 23.1298L11.9775 22.8627L12.1454 22.5891L12.3206 22.3096L12.5038 22.0235L16.312 16.1005L16.4491 15.8984L16.5994 15.7225L17.0517 15.2722C17.3654 14.9482 17.7598 14.7847 18.2311 14.7847H22.1265C22.3978 14.7847 22.5715 14.8913 22.6529 15.1102C22.7291 15.3291 22.6881 15.5371 22.5297 15.7364L18.3997 21.471C18.9004 21.3893 19.2684 21.3492 19.5088 21.3492C20.6795 21.3492 21.7791 21.6287 22.7958 22.1943C23.8177 22.7591 24.6358 23.5429 25.2493 24.5449C25.868 25.5476 26.1744 26.6467 26.1744 27.8428C26.1744 29.7658 25.5008 31.429 24.1571 32.8324C24.0676 32.9258 23.9753 33.0185 23.8793 33.1097L23.427 33.56L23.2826 33.695L23.1359 33.8256L22.9879 33.9519L22.8376 34.0737L22.6859 34.1912L22.5319 34.3051L22.3765 34.4138L22.2189 34.5189L22.0598 34.6196L21.8986 34.7159L21.7358 34.8079L21.5709 34.8955L21.4045 34.9787L21.2359 35.0582L21.0658 35.1334L20.8936 35.2042L20.7198 35.2706L20.5439 35.3326L20.3665 35.3903L20.1869 35.4443L20.0051 35.4939L19.8218 35.5392L19.6371 35.58L19.4502 35.6165L19.2611 35.6486L19.0705 35.6764L18.8784 35.6997L18.6842 35.7187L18.4877 35.734L18.2898 35.745L18.0897 35.7515L17.8881 35.7537L17.7451 35.7522L17.6022 35.7486L17.46 35.7428L17.3178 35.7347L17.1755 35.7238L17.0333 35.7106L16.8911 35.6953L16.7489 35.6778L16.6067 35.6574L16.4645 35.6348L16.3223 35.6099L16.1801 35.5822L16.0379 35.5523L15.8964 35.5202L15.7542 35.4859L15.612 35.4487L15.4705 35.4092L15.3297 35.3677L15.1905 35.3239L15.0519 35.2772L14.9141 35.2283L14.7778 35.1772L14.6421 35.1239L14.5073 35.0677L14.3738 35.0093L14.2412 34.9487L14.1092 34.886L13.9787 34.821L13.849 34.7532L13.72 34.6838L13.5917 34.6116L13.4649 34.5372L13.2171 34.381L12.9759 34.2175L12.7421 34.0467L12.5156 33.8694L12.2957 33.6848L12.0831 33.4936L11.8786 33.2958L11.6814 33.0914L11.5846 32.9864L11.4908 32.8791L11.3999 32.7696L11.3112 32.6579L11.2247 32.5434L11.1411 32.4266L11.0605 32.3076L10.982 32.1865L10.9058 32.0632L10.8325 31.9376L10.7614 31.8092L10.6932 31.6786L10.6273 31.5458L10.5635 31.4107L10.5026 31.2728L10.444 31.1327L10.4455 31.132ZM20.821 29.5542L20.8686 29.4126L20.909 29.2681L20.9419 29.1207L20.9676 28.9703L20.9859 28.8171L20.9969 28.6609L21.0006 28.5011L20.9837 28.1749L20.9346 27.8611L20.854 27.5604L20.7448 27.275L20.6077 27.005L20.4449 26.7525L20.2587 26.5182L20.0506 26.303L19.8218 26.1088L19.5741 25.9366L19.3102 25.7877L19.0309 25.6629L18.7377 25.5637L18.4327 25.4914L18.1182 25.4469L17.7957 25.4316L17.6315 25.4352L17.4702 25.4455L17.3126 25.463L17.158 25.4871L17.0062 25.5184L16.8581 25.5564C16.4322 25.6885 16.0833 25.8622 15.7402 26.1497C15.2946 26.6883 15.0732 27.3196 15.0732 28.0501C15.0732 28.9098 15.3796 29.6374 15.9983 30.2431C16.617 30.8488 17.3632 31.1487 18.2473 31.1487C19.5382 31.1487 20.387 30.643 20.8203 29.5534L20.821 29.5542ZM32.4009 31.132L32.3525 31.0728L32.3107 31.0072L32.2756 30.9342L32.247 30.8539L32.225 30.7663L32.2089 30.6715L32.1993 30.5693L32.1964 30.4606V27.9574L32.1979 27.8917L32.2023 27.8282L32.2096 27.7662L32.2199 27.7063L32.233 27.6487L32.2499 27.5932L32.2697 27.5399L32.2932 27.4889L32.321 27.4363L32.354 27.3772L32.3921 27.3123L32.4354 27.2415L32.4837 27.1648L32.538 27.0816L32.5974 26.9933L32.6619 26.8992L41.4489 15.724L41.5669 15.5948L42.0192 15.1445C42.2941 14.8643 42.5602 14.7234 42.8109 14.7234H45.8472C46.1441 14.7234 46.364 14.7898 46.512 14.9168C46.655 15.0438 46.7268 15.2781 46.7268 15.6189V26.6314H48.5829C48.9252 26.6314 49.1605 26.7022 49.2932 26.8452C49.4215 26.9926 49.4875 27.2115 49.4875 27.5122V30.0103C49.4875 30.311 49.4208 30.5343 49.283 30.6824C49.2712 30.6955 49.2595 30.7072 49.2463 30.7189L48.8307 31.1327L48.7757 31.1845L48.7119 31.2298L48.6386 31.2684L48.5558 31.2998L48.4634 31.3246L48.3615 31.3421L48.2508 31.3531L48.1306 31.3567H46.7276V33.965C46.7276 34.2956 46.6565 34.5196 46.5128 34.6517L46.0605 35.102L46.0033 35.1473L45.9381 35.1867L45.8655 35.2202L45.7856 35.2472L45.6984 35.2684L45.6045 35.2837L45.5034 35.2932L45.3956 35.2961H42.5228L42.4151 35.2932L42.3139 35.2837L42.2201 35.2684L42.1328 35.2472L42.0529 35.2202L41.9804 35.1867L41.9151 35.1473L41.8572 35.102L41.8066 35.048L41.7634 34.9852L41.7267 34.9137L41.6967 34.8327L41.6732 34.7422L41.6564 34.643L41.6461 34.5342L41.6424 34.4153V31.3567H33.0958L32.9756 31.3531L32.8657 31.3421L32.7652 31.3246L32.6736 31.2998L32.5915 31.2684L32.5189 31.2298L32.4552 31.1845L32.4009 31.1327V31.132ZM41.6424 26.6306V21.4783L37.6788 26.6306H41.6424Z" fill="#B3B3B3"/>
<path d="M50.0114 21.7679C50.0114 19.7121 50.7782 17.9512 52.3066 16.4908C53.835 15.0254 55.6749 14.2927 57.8323 14.2927C58.5888 14.2927 59.3453 14.3942 60.1018 14.5978C60.8583 14.8014 61.5737 15.1072 62.2437 15.5137C62.9181 15.9209 63.5112 16.3996 64.028 16.9594C64.544 17.514 64.9582 18.1701 65.2602 18.924C65.5615 19.6771 65.7154 20.4813 65.7154 21.3359C65.7154 22.2773 65.5564 23.2341 65.2346 24.2011C64.8871 25.2038 64.2171 26.4809 63.2202 28.023L59.4222 33.9612C59.0748 34.5261 58.5836 34.8114 57.9452 34.8114H54.06C53.7895 34.8114 53.6151 34.7049 53.544 34.4911C53.467 34.2772 53.508 34.0685 53.6715 33.87L57.7758 28.1149C57.2136 28.2018 56.8456 28.247 56.6667 28.247C55.4961 28.247 54.4024 27.9668 53.3849 27.4019C52.363 26.8422 51.5501 26.0584 50.9314 25.0607C50.3178 24.058 50.0114 22.9641 50.0114 21.7679ZM10.498 28.2412C10.498 27.3151 10.6615 26.3583 10.9936 25.3614C11.341 24.3587 12.0155 23.0816 13.0124 21.5395L16.8206 15.6158C17.168 15.0408 17.6584 14.7503 18.2874 14.7503H22.1828C22.454 14.7503 22.6278 14.8569 22.7091 15.0758C22.7854 15.2947 22.7443 15.5034 22.586 15.7019L18.456 21.4366C18.9567 21.3549 19.3254 21.3147 19.5651 21.3147C20.7358 21.3147 21.8353 21.5943 22.8521 22.1598C23.8739 22.7247 24.692 23.5085 25.3056 24.5105C25.9243 25.5132 26.2307 26.6123 26.2307 27.8077C26.2307 29.8584 25.4639 31.6142 23.9355 33.0745C22.402 34.5348 20.5569 35.2676 18.3951 35.2676C17.6335 35.2676 16.877 35.1661 16.1205 34.9618C15.364 34.7582 14.6486 34.4531 13.9741 34.051C13.3041 33.6445 12.706 33.1607 12.1899 32.606C11.668 32.0514 11.2597 31.3997 10.9533 30.6465C10.6513 29.8934 10.498 29.0943 10.498 28.239V28.2412ZM16.0545 25.8394C15.4358 26.4349 15.1294 27.1574 15.1294 28.0178C15.1294 28.8775 15.4358 29.6051 16.0545 30.2109C16.6732 30.8166 17.4195 31.1165 18.3035 31.1165C19.1876 31.1165 19.9389 30.8166 20.5679 30.2109C21.1968 29.6051 21.5084 28.8768 21.5084 28.0178C21.5084 26.2496 20.0438 24.9491 18.3035 24.9491C17.4195 24.9491 16.6725 25.2439 16.0545 25.8394ZM32.7042 29.9766V27.4734C32.7042 27.2954 32.735 27.137 32.801 27.0049C32.8677 26.8728 32.9901 26.6743 33.169 26.4145L41.956 15.2393C42.2726 14.8729 42.5791 14.6897 42.8657 14.6897H45.902C46.1988 14.6897 46.4188 14.7561 46.5668 14.8831C46.7098 15.0101 46.7816 15.2444 46.7816 15.5852V26.5977H48.6377C48.98 26.5977 49.2153 26.6685 49.348 26.8115C49.4763 26.9589 49.5423 27.1779 49.5423 27.4785V29.9766C49.5423 30.2773 49.4756 30.5006 49.3377 30.6487C49.2051 30.7961 48.9697 30.8728 48.6377 30.8728H46.7816V33.9313C46.7816 34.2619 46.7105 34.486 46.5668 34.618C46.4239 34.7458 46.1988 34.8114 45.902 34.8114H43.0291C42.7323 34.8114 42.508 34.7458 42.3643 34.618C42.2213 34.486 42.1495 34.2619 42.1495 33.9313V30.8728H33.6029C33.2708 30.8728 33.0407 30.7961 32.908 30.6487C32.7702 30.5013 32.7035 30.2773 32.7035 29.9766H32.7042ZM37.7344 26.5977H42.151V20.8572L37.7344 26.5977Z" fill="white"/>
<path fill-rule="evenodd" clip-rule="evenodd" d="M28.9266 34.5494L28.8921 34.5837L28.5432 34.9311L28.4464 35.0186L28.3387 35.0909L28.2229 35.1456L28.1026 35.1807L27.981 35.1931H26.4357L26.3199 35.1807L26.218 35.1464L26.1315 35.0916L26.0626 35.0194L26.0135 34.9318L25.9856 34.8311L25.9805 34.7202L26.0003 34.6012L31.0993 15.6566L31.1433 15.5377L31.2078 15.4268L31.2899 15.326L31.6733 14.9444C31.8228 14.7867 32.0318 14.6831 32.2355 14.6831H33.7808C34.1077 14.6831 34.3027 14.9509 34.2155 15.2742L29.1164 34.2188C29.0835 34.3399 29.0153 34.4538 28.9258 34.5479L28.9266 34.5494Z" fill="url(#paint1_linear_11221_49390)"/>
<path d="M57.8208 23.6384L55.8746 25.0301C55.4846 25.3469 54.9993 25.0199 55.1526 24.5397L55.9091 22.1737C55.2112 21.6797 54.5133 21.1863 53.8155 20.6915C53.4314 20.4193 53.6454 19.8851 54.1146 19.8829L56.6326 19.8946C56.8686 19.1451 57.1047 18.3956 57.3414 17.6461C57.4147 17.4119 57.62 17.2871 57.8216 17.2791C58.0224 17.2864 58.2284 17.4119 58.3017 17.6461C58.5385 18.3956 58.7738 19.1451 59.0106 19.8946L61.5286 19.8829C61.9977 19.8851 62.2118 20.4193 61.8277 20.6915C61.1298 21.1863 60.4319 21.6797 59.7341 22.1737L60.4906 24.5397C60.6438 25.0199 60.1585 25.3469 59.7685 25.0301L57.8223 23.6384H57.8208Z" fill="url(#paint2_linear_11221_49390)"/>
<path d="M53.6719 20.1274C53.7503 19.988 53.9072 19.8837 54.1139 19.8822L56.6319 19.8939L56.5593 20.1252L53.7994 20.1121C53.7547 20.1121 53.7122 20.1179 53.6719 20.1267V20.1274ZM57.395 17.5257C57.491 17.3695 57.6574 17.2856 57.8202 17.2791C58.0218 17.2871 58.227 17.4119 58.3003 17.6461C58.5371 18.3956 58.7724 19.1451 59.0092 19.8946L61.5272 19.8829C61.9963 19.8851 62.2104 20.4193 61.8263 20.6915L61.5741 20.8703C61.8688 20.5879 61.6533 20.115 61.212 20.1128L58.694 20.1245C58.4579 19.375 58.2219 18.6255 57.9851 17.876C57.9118 17.6418 57.7066 17.517 57.505 17.5089C57.4683 17.5104 57.4309 17.5155 57.3943 17.525L57.395 17.5257ZM59.7349 22.173L60.4892 24.5404C60.5918 24.8623 60.4078 25.1148 60.1579 25.1513C60.2084 25.0476 60.2209 24.9163 60.174 24.7703L59.4175 22.3971L59.7342 22.173H59.7349Z" fill="#FF6600"/>
<path d="M11.9101 8.0246H13.1049C13.2589 8.0246 13.396 8.0859 13.5008 8.19756C13.6049 8.30849 13.6584 8.44496 13.6584 8.59676V9.43674C13.6584 9.59729 13.544 9.71698 13.382 9.71698H10.8376C10.683 9.71698 10.5459 9.65641 10.4396 9.54475C10.3348 9.43455 10.2812 9.29735 10.2812 9.14629V3.24668C10.2812 3.0854 10.3949 2.96644 10.5576 2.96644H11.6337C11.7972 2.96644 11.9101 3.0854 11.9101 3.24668V8.0246ZM17.4812 2.80005C18.4606 2.80005 19.3036 3.14816 19.9963 3.83708C20.6898 4.526 21.038 5.36598 21.038 6.34098C21.038 7.31598 20.689 8.15596 19.9963 8.84488C19.3036 9.5338 18.4613 9.88337 17.4812 9.88337C16.5011 9.88337 15.6596 9.5338 14.9661 8.84488C14.2734 8.15596 13.923 7.31598 13.923 6.34098C13.923 5.36598 14.2734 4.526 14.9661 3.83708C15.6596 3.14743 16.5011 2.80005 17.4812 2.80005V2.80005ZM22.7819 4.65882H21.5841C21.4206 4.65882 21.3026 4.54132 21.3026 4.37858V3.24668C21.3026 3.08321 21.4199 2.96644 21.5841 2.96644H25.6745C25.8394 2.96644 25.956 3.08248 25.956 3.24668V4.08667C25.956 4.24211 25.8981 4.38004 25.7881 4.49024C25.6789 4.60044 25.5381 4.65882 25.3827 4.65882H24.4789V9.43674C24.4789 9.59948 24.3609 9.71698 24.1974 9.71698H23.0634C22.8992 9.71698 22.7819 9.60021 22.7819 9.43674V4.65882ZM29.781 2.80005C30.7603 2.80005 31.6034 3.14816 32.2961 3.83708C32.9895 4.526 33.3377 5.36598 33.3377 6.34098C33.3377 7.31598 32.9888 8.15596 32.2961 8.84488C31.6034 9.5338 30.7603 9.88337 29.781 9.88337C28.8009 9.88337 27.9594 9.5338 27.2659 8.84488C26.5732 8.15596 26.2228 7.31598 26.2228 6.34098C26.2228 5.36598 26.5732 4.526 27.2659 3.83708C27.9594 3.14743 28.8009 2.80005 29.781 2.80005V2.80005ZM18.7956 5.03174C18.4313 4.66977 17.9951 4.4917 17.4805 4.4917C16.9659 4.4917 16.5297 4.66831 16.1654 5.03101C15.8011 5.39372 15.6215 5.82721 15.6215 6.34025C15.6215 6.85329 15.8004 7.28606 16.1654 7.64949C16.5297 8.01219 16.9644 8.19099 17.4805 8.19099C17.9958 8.19099 18.4305 8.01219 18.7956 7.64949C19.1606 7.28679 19.3373 6.85329 19.3373 6.34025C19.3373 5.82794 19.1606 5.39372 18.7956 5.03101V5.03174ZM31.0961 5.03174C30.7318 4.66977 30.2956 4.4917 29.781 4.4917C29.2664 4.4917 28.8302 4.66831 28.4659 5.03101C28.1016 5.39372 27.9227 5.82721 27.9227 6.34025C27.9227 6.85329 28.1016 7.28606 28.4659 7.64949C28.8302 8.01219 29.2657 8.19099 29.781 8.19099C30.2963 8.19099 30.731 8.01219 31.0961 7.64949C31.4611 7.28679 31.6378 6.85329 31.6378 6.34025C31.6378 5.82794 31.4611 5.39372 31.0961 5.03101V5.03174Z" fill="#2358BA"/>
<defs>
<linearGradient id="paint0_linear_11221_49390" x1="41.1396" y1="35.6231" x2="41.1396" y2="11.1117" gradientUnits="userSpaceOnUse">
<stop stop-color="#2358BA"/>
<stop offset="1" stop-color="#1795D7"/>
</linearGradient>
<linearGradient id="paint1_linear_11221_49390" x1="34.2363" y1="14.6831" x2="26.0436" y2="35.2183" gradientUnits="userSpaceOnUse">
<stop stop-color="#FFCD01"/>
<stop offset="1" stop-color="#FF8501"/>
</linearGradient>
<linearGradient id="paint2_linear_11221_49390" x1="58.8317" y1="18.365" x2="52.1947" y2="25.4501" gradientUnits="userSpaceOnUse">
<stop stop-color="#FFCC00"/>
<stop offset="1" stop-color="#FF6600"/>
</linearGradient>
</defs>
</svg>
