<svg width="76" height="42" viewBox="0 0 76 42" fill="none" xmlns="http://www.w3.org/2000/svg">
<path d="M19.2294 32.5682C25.4192 32.5682 30.4549 27.5509 30.4549 21.3837C30.4549 15.2166 25.4192 10.1992 19.2294 10.1992C13.0397 10.1992 8.00391 15.2166 8.00391 21.3837C8.00391 27.5509 13.0397 32.5682 19.2294 32.5682ZM57.0237 32.4375C62.925 32.4375 67.7247 27.6554 67.7247 21.7757C67.7247 15.896 62.925 11.1138 57.0237 11.1138C51.1225 11.1138 46.3228 15.896 46.3228 21.7757C46.3228 27.6554 51.1225 32.4375 57.0237 32.4375Z" fill="white"/>
<path d="M29.9549 21.3837C29.9549 27.273 25.1448 32.0682 19.2294 32.0682C13.3141 32.0682 8.50391 27.273 8.50391 21.3837C8.50391 15.4944 13.3141 10.6992 19.2294 10.6992C25.1448 10.6992 29.9549 15.4944 29.9549 21.3837ZM67.2247 21.7757C67.2247 27.3775 62.6506 31.9375 57.0237 31.9375C51.3969 31.9375 46.8228 27.3775 46.8228 21.7757C46.8228 16.1739 51.3969 11.6138 57.0237 11.6138C62.6506 11.6138 67.2247 16.1739 67.2247 21.7757Z" stroke="#2B5DA8" stroke-opacity="0.1"/>
<path d="M19.0987 31.2878C24.5803 31.2878 29.039 26.8453 29.039 21.3838C29.039 15.9222 24.5803 11.4797 19.0987 11.4797C13.617 11.4797 9.15832 15.9222 9.15832 21.3838C9.13209 26.8453 13.617 31.2878 19.0987 31.2878Z" fill="white"/>
<path d="M9.65832 21.3862V21.3838C9.65832 16.2 13.8915 11.9797 19.0987 11.9797C24.3059 11.9797 28.539 16.2 28.539 21.3838C28.539 26.5675 24.3059 30.7878 19.0987 30.7878C13.8893 30.7878 9.63344 26.5658 9.65832 21.3862Z" stroke="#2B5DA8" stroke-opacity="0.1"/>
<path fill-rule="evenodd" clip-rule="evenodd" d="M11.8865 18.4308C11.9389 19.0057 12.0701 19.5022 12.2274 20.051C12.3848 20.6259 12.5422 21.1747 12.7257 21.7235C13.1978 23.1085 13.7486 24.4151 14.3781 25.8262C14.9289 26.8976 15.2698 27.7861 16.3452 27.8645C17.6041 27.969 22.7972 25.7478 24.266 25.0945C24.5545 24.9638 24.7643 24.8332 24.9217 24.6764C25.0528 25.0945 25.2102 25.5126 25.3676 25.9046C25.0004 25.983 24.502 26.2443 23.8463 26.5579C21.8006 27.5509 19.6761 28.3871 17.4468 28.8052C17.1582 28.8575 16.896 28.962 16.7648 29.2756C16.6075 29.6415 16.8435 29.9028 17.2107 30.2948C17.473 30.5822 17.7877 30.8958 18.05 31.2094C15.7944 30.9742 13.5913 29.955 11.9389 28.2303C11.9914 28.2826 12.0176 28.3349 12.0701 28.361L12.3848 28.3871L13.1978 28.4133C13.5126 28.3871 13.9585 28.4133 14.1158 28.0735C14.247 27.8384 14.142 27.5248 13.9847 27.1589C13.8535 26.8715 13.6962 26.584 13.565 26.2966C12.9618 25.0684 12.5422 24.0492 12.0701 22.7687C11.6504 21.5667 11.3881 20.6782 11.1258 19.45C11.0734 19.1625 11.0472 19.0057 10.8636 18.7444C10.4177 18.1434 9.762 19.2932 9.26367 19.9465C9.52595 18.065 10.3652 16.2619 11.6504 14.7985L11.5979 15.1643C11.5717 15.4518 11.5455 15.5563 11.7553 15.7654C12.0701 15.9222 12.2536 15.7654 12.5422 15.6086C15.0338 14.0668 16.7911 13.3351 19.6761 12.8125C19.781 12.7863 19.8859 12.7341 19.9909 12.7079C20.3843 12.4989 20.463 12.3682 20.3843 12.1069C20.3318 11.924 20.2531 11.8194 20.1482 11.6365L20.0695 11.5059H19.9909C22.1415 11.7149 24.2135 12.6034 25.8134 14.0929L25.7872 14.1713L25.7348 14.1452C25.5774 14.0929 25.42 14.0407 25.2627 13.9623L24.5545 13.7271C24.3185 13.6748 24.0824 13.6226 23.8726 13.5964C23.2956 13.5442 22.9021 13.5703 22.9284 14.1191C22.9284 14.3281 23.0333 14.5372 23.1382 14.7724C23.6365 15.8176 24.1349 16.8629 24.5807 17.9082C24.4496 18.666 24.3709 19.4761 24.3709 20.2601C23.9513 19.1887 23.5316 18.0911 23.0857 17.0458C22.6136 15.896 22.0104 14.6156 21.4858 14.1452C20.8826 13.5964 20.2269 13.5964 19.2565 13.8316C17.5254 14.2497 15.8993 14.903 14.3256 15.7131C13.5913 16.1051 12.5946 16.4971 12.1487 17.2288C11.9127 17.6469 11.8602 18.0389 11.8865 18.4308ZM14.5879 18.7183C14.7191 18.8751 14.9027 18.7967 15.0863 18.6922C15.9255 18.1956 17.1583 17.7775 18.1025 17.3856V25.3819C18.1287 25.7739 18.1811 25.8523 18.627 25.7739C18.9942 25.7217 19.4138 25.5126 19.6237 25.4081C19.7286 25.3558 19.8335 25.2774 19.9122 25.1729V24.0231C19.9122 23.6834 19.8859 23.3436 19.8859 23.0039C19.8597 21.2008 19.8597 19.3977 19.8335 17.6207C19.8335 17.072 19.7548 15.9744 19.2827 15.5824C19.0729 15.4257 18.8368 15.5302 18.2336 15.7392C17.0271 16.1574 15.9518 16.6016 14.7191 17.1765C14.4043 17.3594 14.2732 17.3856 14.247 17.5685C14.1945 17.8298 14.3519 18.4308 14.5879 18.7183ZM10.7587 26.7408C11.3881 26.4272 11.0209 25.4081 10.8373 24.8593C10.68 24.3367 10.4702 23.814 10.2079 23.3698C10.0243 23.0039 9.762 22.7426 9.26367 22.7165C9.31613 23.1607 9.42104 23.605 9.52595 24.0492C9.70955 24.0492 9.78823 24.1015 9.89314 24.2321C10.0767 24.4935 10.1816 24.7809 10.2341 25.0684C10.2603 25.3035 10.2603 25.4603 10.1554 25.6694C10.2603 25.8785 10.3915 26.1136 10.4964 26.3227C10.5751 26.4534 10.6537 26.584 10.7587 26.7408ZM57.077 12.2898C62.2964 12.2898 66.519 16.4709 66.519 21.6189C66.519 26.7669 62.2964 30.9481 57.077 30.9481C54.6641 30.9481 52.4871 30.0596 50.8086 28.5962C52.4085 26.2966 53.3264 23.5004 53.3264 20.4691C53.3264 18.0911 52.7494 15.8699 51.7265 13.91C53.2477 12.8909 55.0837 12.2898 57.077 12.2898Z" fill="#2B5DA8"/>
<path d="M11.3876 18.4642L11.3874 18.4642L11.3885 18.4763C11.3948 18.545 11.4021 18.6126 11.4103 18.6792C11.3731 18.6093 11.328 18.5358 11.2727 18.457L11.2728 18.4569L11.2651 18.4465C11.17 18.3183 11.0425 18.2008 10.8741 18.1329C10.7006 18.0631 10.5264 18.0631 10.3726 18.1022C10.3219 18.115 10.273 18.1322 10.226 18.1527C10.4981 17.4091 10.8667 16.6956 11.3218 16.0334C11.3475 16.0632 11.3745 16.0918 11.4024 16.1196L11.4598 16.1768L11.5324 16.2129C11.8072 16.3498 12.0671 16.3596 12.3123 16.2803C12.3302 16.2746 12.3478 16.2684 12.3649 16.2619C12.1197 16.4568 11.8926 16.6882 11.7218 16.9686L11.7174 16.9757L11.7133 16.983C11.42 17.5025 11.3562 17.9958 11.3876 18.4642ZM14.6495 27.5709C14.6246 27.4414 14.583 27.3113 14.5362 27.1874C14.611 27.3077 14.6893 27.4221 14.7723 27.5273C15.13 27.9808 15.6043 28.3111 16.3063 28.363C16.5339 28.3815 16.8067 28.3471 17.0829 28.2929C17.3694 28.2368 17.6977 28.1514 18.0496 28.047C18.7537 27.8381 19.5801 27.5449 20.4048 27.231C22.0555 26.6027 23.73 25.8801 24.4692 25.5513L24.4692 25.5513L24.4723 25.55C24.537 25.5206 24.5998 25.4906 24.6606 25.4595C24.6777 25.5061 24.6949 25.5525 24.7122 25.5987C24.6446 25.627 24.5767 25.6568 24.5089 25.6876C24.335 25.7663 24.141 25.8603 23.9361 25.9595C23.8365 26.0078 23.7343 26.0572 23.6306 26.1068L23.6306 26.1068L23.628 26.1081C21.6037 27.0907 19.5243 27.9067 17.356 28.3135C17.0098 28.3765 16.5344 28.5333 16.3045 29.0804C16.1591 29.4205 16.2036 29.736 16.3497 30.0104C16.4327 30.1663 16.5526 30.3147 16.6739 30.4504C15.5256 30.1472 14.4245 29.6256 13.4485 28.8986C13.5653 28.8903 13.7058 28.8763 13.8279 28.8483C14.0698 28.7927 14.3893 28.6558 14.5617 28.3003C14.6968 28.0462 14.6901 27.7822 14.6495 27.5709ZM20.7847 12.6981C20.9083 12.5066 20.9256 12.3131 20.9033 12.1455C21.8188 12.3278 22.7056 12.6412 23.5287 13.078C23.5065 13.0781 23.4843 13.0784 23.4623 13.0791C23.3166 13.0837 23.1467 13.1032 22.9845 13.1698C22.8101 13.2413 22.6479 13.3665 22.5429 13.5624C22.4458 13.7438 22.4207 13.9429 22.4284 14.1317C22.4305 14.3133 22.4762 14.4756 22.5242 14.6073C22.5627 14.7127 22.6125 14.8228 22.6544 14.9156C22.6639 14.9367 22.6731 14.957 22.6816 14.976L22.6814 14.9761L22.6869 14.9875C22.6952 15.0049 22.7035 15.0223 22.7118 15.0398C22.4438 14.539 22.1406 14.0613 21.821 13.7742C21.4435 13.4312 21.031 13.2482 20.5629 13.1973C20.4254 13.1824 20.2854 13.1791 20.143 13.1853L20.1713 13.1783L20.2255 13.1495C20.4222 13.0449 20.6485 12.9092 20.7847 12.6981ZM23.3723 16.4363C23.6112 16.9489 23.8434 17.4598 24.0633 17.9702C24.058 18.0028 24.0528 18.0356 24.0476 18.0684C23.8838 17.659 23.7173 17.2521 23.547 16.8528C23.4907 16.7158 23.4324 16.5764 23.3723 16.4363ZM14.2255 15.2027C15.2431 14.6481 16.1837 14.2369 17.2274 13.9104C16.1956 14.2707 15.1987 14.7078 14.2255 15.2027ZM18.6025 17.3856V16.6366L17.9107 16.9238C17.6777 17.0205 17.4161 17.1226 17.1411 17.2299C16.3827 17.5258 15.5221 17.8616 14.8773 18.2351C14.8461 18.1674 14.8157 18.0863 14.7902 17.9967C14.7654 17.9097 14.7493 17.8281 14.7417 17.7616C14.7407 17.7528 14.7399 17.7446 14.7393 17.7371C14.7443 17.7343 14.7497 17.7314 14.7554 17.7283C14.7635 17.7239 14.7721 17.7192 14.7812 17.7143C14.8272 17.6893 14.8852 17.6578 14.9502 17.6204C16.1616 17.056 17.2159 16.6211 18.3973 16.2117C18.4538 16.1921 18.5053 16.1741 18.553 16.1574C18.6386 16.1274 18.712 16.1017 18.7806 16.0788C18.8866 16.0435 18.9558 16.0237 19.0053 16.0136C19.0061 16.0135 19.0069 16.0133 19.0077 16.0131C19.0906 16.1159 19.1807 16.3215 19.2449 16.6412C19.3147 16.989 19.3335 17.3647 19.3335 17.6207H19.3334L19.3335 17.6281C19.3466 18.5144 19.3532 19.4076 19.3597 20.3062L19.3598 20.3168C19.3663 21.2101 19.3729 22.1087 19.3859 23.0077C19.386 23.186 19.3929 23.3626 19.3993 23.5284L19.3994 23.5328C19.4061 23.7043 19.4122 23.8645 19.4122 24.0231V24.9546C19.4084 24.9566 19.4046 24.9586 19.4007 24.9605L19.4122 24.9835V24.9835L19.4007 24.9605C19.1876 25.0667 18.8671 25.2218 18.6025 25.2713V17.3856ZM57.077 12.7898C62.0256 12.7898 66.019 16.7524 66.019 21.6189C66.019 26.4855 62.0256 30.4481 57.077 30.4481C54.9492 30.4481 53.0163 29.7198 51.4754 28.5004C52.9744 26.1926 53.8264 23.4378 53.8264 20.4691C53.8264 18.1734 53.3064 16.0168 52.3761 14.0895C53.7411 13.2675 55.3456 12.7898 57.077 12.7898Z" stroke="#2B5DA8" stroke-opacity="0.1"/>
<mask id="path-7-inside-1_11221_49395" fill="white">
<path fill-rule="evenodd" clip-rule="evenodd" d="M65.127 26.5057C65.0746 26.5841 65.0484 26.6363 64.9959 26.7147C65.0484 26.6625 65.1008 26.5841 65.127 26.5057ZM65.2582 26.2966C65.2319 26.375 65.1795 26.4273 65.1533 26.4795C65.1795 26.4273 65.2319 26.375 65.2582 26.2966ZM65.3369 26.1659C65.3106 26.2182 65.2844 26.2705 65.2582 26.2966C65.2844 26.2443 65.3106 26.1921 65.3369 26.1659ZM65.468 25.9308L65.3893 26.0876C65.3893 26.0614 65.4155 26.0092 65.468 25.9308ZM65.5467 25.7478L65.468 25.9046L65.5467 25.7478ZM65.6516 25.5649C65.6254 25.591 65.6254 25.6433 65.5991 25.6694C65.5991 25.6433 65.6254 25.591 65.6516 25.5649ZM65.7303 25.3559C65.704 25.382 65.704 25.4343 65.6778 25.4604C65.704 25.4081 65.7303 25.382 65.7303 25.3559ZM65.8352 25.1468C65.8352 25.1729 65.809 25.1991 65.809 25.2252L65.8352 25.1468ZM65.9139 24.9377C65.9139 24.9639 65.8876 24.99 65.8876 25.0161C65.8876 24.99 65.8876 24.9639 65.9139 24.9377ZM52.4328 29.7722C52.4065 29.746 52.3541 29.7199 52.3279 29.7199C52.3541 29.746 52.4065 29.746 52.4328 29.7722ZM58.0193 30.9742H57.9144H58.0193ZM51.0427 28.2565C51.0689 28.4656 51.1214 28.7008 51.1476 28.9098C51.0427 28.8053 50.9116 28.7269 50.8066 28.6224C50.8853 28.4917 50.964 28.361 51.0427 28.2565Z"/>
</mask>
<path fill-rule="evenodd" clip-rule="evenodd" d="M65.127 26.5057C65.0746 26.5841 65.0484 26.6363 64.9959 26.7147C65.0484 26.6625 65.1008 26.5841 65.127 26.5057ZM65.2582 26.2966C65.2319 26.375 65.1795 26.4273 65.1533 26.4795C65.1795 26.4273 65.2319 26.375 65.2582 26.2966ZM65.3369 26.1659C65.3106 26.2182 65.2844 26.2705 65.2582 26.2966C65.2844 26.2443 65.3106 26.1921 65.3369 26.1659ZM65.468 25.9308L65.3893 26.0876C65.3893 26.0614 65.4155 26.0092 65.468 25.9308ZM65.5467 25.7478L65.468 25.9046L65.5467 25.7478ZM65.6516 25.5649C65.6254 25.591 65.6254 25.6433 65.5991 25.6694C65.5991 25.6433 65.6254 25.591 65.6516 25.5649ZM65.7303 25.3559C65.704 25.382 65.704 25.4343 65.6778 25.4604C65.704 25.4081 65.7303 25.382 65.7303 25.3559ZM65.8352 25.1468C65.8352 25.1729 65.809 25.1991 65.809 25.2252L65.8352 25.1468ZM65.9139 24.9377C65.9139 24.9639 65.8876 24.99 65.8876 25.0161C65.8876 24.99 65.8876 24.9639 65.9139 24.9377ZM52.4328 29.7722C52.4065 29.746 52.3541 29.7199 52.3279 29.7199C52.3541 29.746 52.4065 29.746 52.4328 29.7722ZM58.0193 30.9742H57.9144H58.0193ZM51.0427 28.2565C51.0689 28.4656 51.1214 28.7008 51.1476 28.9098C51.0427 28.8053 50.9116 28.7269 50.8066 28.6224C50.8853 28.4917 50.964 28.361 51.0427 28.2565Z" fill="black"/>
<path d="M65.127 26.5057L66.0754 26.8229L64.2959 25.9496L65.127 26.5057ZM64.9959 26.7147L64.1648 26.1586L65.7017 27.4231L64.9959 26.7147ZM65.3369 26.1659L66.2306 26.6145L64.631 25.4575L65.3369 26.1659ZM65.2582 26.2966L64.3644 25.8481L65.964 27.005L65.2582 26.2966ZM65.468 25.9308L66.3618 26.3793L64.6369 25.3747L65.468 25.9308ZM65.3893 26.0876H64.3893L66.2831 26.5361L65.3893 26.0876ZM65.5991 25.6694H64.5991V28.0774L66.3049 26.3778L65.5991 25.6694ZM65.7303 25.3559H66.7303V22.9479L65.0245 24.6475L65.7303 25.3559ZM65.6778 25.4604L64.784 25.0119L66.3836 26.1688L65.6778 25.4604ZM65.8352 25.1468H66.8352L64.8869 24.8295L65.8352 25.1468ZM65.809 25.2252H64.809L66.7573 25.5425L65.809 25.2252ZM65.9139 24.9377H66.9139V22.5298L65.2081 24.2293L65.9139 24.9377ZM52.3279 29.7199V28.7199H49.9074L51.622 30.4283L52.3279 29.7199ZM51.0427 28.2565L52.0349 28.132L51.7277 25.6837L50.2437 27.6551L51.0427 28.2565ZM51.1476 28.9098L50.4418 29.6182L52.5018 31.6707L52.1398 28.7853L51.1476 28.9098ZM50.8066 28.6224L49.95 28.1065L49.5458 28.7777L50.1008 29.3308L50.8066 28.6224ZM64.2959 25.9496C64.255 26.0107 64.2244 26.0617 64.2048 26.0943C64.1851 26.1271 64.1764 26.1413 64.1648 26.1586L65.827 27.2708C65.8679 27.2097 65.8985 27.1587 65.9181 27.1261C65.9378 27.0933 65.9466 27.0791 65.9581 27.0618L64.2959 25.9496ZM65.7017 27.4231C65.851 27.2744 65.9942 27.0656 66.0754 26.8229L64.1787 26.1884C64.196 26.1366 64.2156 26.1019 64.2285 26.0817C64.2416 26.0612 64.2605 26.0358 64.2901 26.0063L65.7017 27.4231ZM64.3098 25.9793C64.3388 25.8927 64.3769 25.8383 64.3746 25.8417C64.374 25.8427 64.3727 25.8446 64.3675 25.8522C64.3636 25.8579 64.3549 25.8705 64.3459 25.8838C64.3366 25.8977 64.3236 25.9176 64.3093 25.9411C64.295 25.9647 64.2775 25.9951 64.2595 26.031L66.047 26.9281C66.0356 26.9509 66.0254 26.9683 66.0191 26.9787C66.0128 26.989 66.0084 26.9956 66.0081 26.996C66.0079 26.9964 66.0081 26.9961 66.0093 26.9943C66.0106 26.9925 66.012 26.9904 66.0147 26.9865C66.0191 26.9801 66.0276 26.9677 66.0368 26.954C66.0738 26.8987 66.1513 26.7789 66.2065 26.6139L64.3098 25.9793ZM66.047 26.9281C66.0356 26.9509 66.0254 26.9683 66.0191 26.9787C66.0128 26.989 66.0084 26.9956 66.0081 26.996C66.0079 26.9964 66.0081 26.9961 66.0093 26.9943C66.0106 26.9925 66.012 26.9904 66.0147 26.9865C66.0191 26.9801 66.0276 26.9677 66.0368 26.954C66.0738 26.8987 66.1513 26.7789 66.2065 26.6139L64.3098 25.9793C64.3388 25.8927 64.3769 25.8383 64.3746 25.8417C64.374 25.8427 64.3727 25.8446 64.3675 25.8522C64.3636 25.8579 64.3549 25.8705 64.3459 25.8838C64.3366 25.8977 64.3236 25.9176 64.3093 25.9411C64.295 25.9647 64.2775 25.9951 64.2595 26.031L66.047 26.9281ZM64.4431 25.7174C64.436 25.7316 64.4323 25.7388 64.4292 25.7448C64.4263 25.7505 64.4269 25.7491 64.43 25.7436C64.4328 25.7388 64.4423 25.7225 64.4579 25.7001C64.4722 25.6796 64.5034 25.637 64.5524 25.5882L65.964 27.005C66.0755 26.8939 66.1423 26.7781 66.165 26.7386C66.1946 26.687 66.2206 26.6345 66.2306 26.6145L64.4431 25.7174ZM66.1519 26.7451C66.159 26.731 66.1627 26.7237 66.1658 26.7178C66.1687 26.7121 66.1681 26.7135 66.165 26.719C66.1622 26.7238 66.1528 26.7401 66.1371 26.7625C66.1228 26.783 66.0917 26.8255 66.0427 26.8743L64.631 25.4575C64.5196 25.5686 64.4527 25.6844 64.43 25.724C64.4005 25.7756 64.3745 25.828 64.3644 25.8481L66.1519 26.7451ZM64.5742 25.4822L64.4955 25.639L66.2831 26.5361L66.3618 26.3793L64.5742 25.4822ZM66.3893 26.0876C66.3893 26.2328 66.356 26.3401 66.3426 26.3803C66.3261 26.4297 66.3095 26.4638 66.3028 26.4773C66.2895 26.5037 66.2838 26.5097 66.2991 26.4869L64.6369 25.3747C64.5997 25.4302 64.5547 25.5016 64.5152 25.5802C64.4982 25.6141 64.3893 25.8188 64.3893 26.0876H66.3893ZM64.6529 25.2993L64.5742 25.4561L66.3618 26.3532L66.4404 26.1964L64.6529 25.2993ZM66.3618 26.3532L66.4404 26.1964L64.6529 25.2993L64.5742 25.4561L66.3618 26.3532ZM64.9458 24.8565C64.8834 24.9186 64.8366 24.9808 64.8019 25.0348C64.7675 25.0882 64.7431 25.1366 64.7262 25.1735C64.7095 25.2102 64.6976 25.2415 64.6904 25.2613C64.6836 25.2801 64.678 25.2971 64.677 25.2999C64.6747 25.3069 64.6771 25.2997 64.6804 25.2905C64.6841 25.2803 64.6923 25.2584 64.7049 25.2307C64.7177 25.2028 64.7376 25.1629 64.7669 25.1174C64.7965 25.0715 64.8375 25.0166 64.8933 24.961L66.3049 26.3778C66.3673 26.3157 66.4141 26.2535 66.4488 26.1996C66.4832 26.1461 66.5077 26.0977 66.5245 26.0608C66.5413 26.0241 66.5531 25.9928 66.5603 25.973C66.5671 25.9543 66.5728 25.9373 66.5737 25.9345C66.576 25.9275 66.5737 25.9347 66.5704 25.9438C66.5666 25.9541 66.5585 25.9759 66.5458 26.0037C66.5331 26.0316 66.5131 26.0714 66.4839 26.1169C66.4543 26.1629 66.4132 26.2177 66.3574 26.2733L64.9458 24.8565ZM66.5991 25.6694C66.5991 25.8092 66.5682 25.9124 66.5562 25.95C66.5404 25.9996 66.523 26.0384 66.5093 26.0657C66.4879 26.1083 66.4434 26.1876 66.3574 26.2733L64.9458 24.8565C64.8335 24.9684 64.7628 25.0868 64.7218 25.1686C64.6967 25.2186 64.5991 25.4128 64.5991 25.6694H66.5991ZM65.0245 24.6475C64.9621 24.7096 64.9153 24.7718 64.8806 24.8257C64.8462 24.8792 64.8217 24.9276 64.8049 24.9645C64.7881 25.0012 64.7763 25.0325 64.7691 25.0523C64.7623 25.071 64.7566 25.0881 64.7557 25.0909C64.7534 25.0979 64.7557 25.0906 64.759 25.0815C64.7628 25.0713 64.7709 25.0494 64.7836 25.0217C64.7963 24.9937 64.8163 24.9539 64.8455 24.9084C64.8751 24.8624 64.9162 24.8076 64.972 24.752L66.3836 26.1688C66.446 26.1066 66.4928 26.0445 66.5275 25.9905C66.5619 25.9371 66.5864 25.8886 66.6032 25.8518C66.6199 25.815 66.6318 25.7838 66.639 25.7639C66.6458 25.7452 66.6515 25.7282 66.6524 25.7254C66.6547 25.7184 66.6524 25.7256 66.649 25.7348C66.6453 25.745 66.6372 25.7668 66.6245 25.7946C66.6118 25.8225 66.5918 25.8623 66.5625 25.9078C66.533 25.9538 66.4919 26.0087 66.4361 26.0643L65.0245 24.6475ZM66.5716 25.9089C66.5617 25.9286 66.5342 25.9745 66.5705 25.9142C66.581 25.8969 66.6172 25.837 66.65 25.7578C66.6851 25.6727 66.7303 25.533 66.7303 25.3559H64.7303C64.7303 25.1918 64.7721 25.0652 64.8016 24.9939C64.8286 24.9287 64.8566 24.8834 64.8572 24.8824C64.8589 24.8797 64.8601 24.8777 64.8561 24.8842C64.8533 24.8886 64.8472 24.8985 64.8404 24.9098C64.826 24.9338 64.8057 24.9687 64.784 25.0119L66.5716 25.9089ZM64.8352 25.1468C64.8352 25.0664 64.8453 24.997 64.8573 24.9421C64.8692 24.8878 64.8839 24.8442 64.8952 24.8141C64.9064 24.7842 64.9168 24.7616 64.922 24.7505C64.9268 24.7403 64.931 24.7322 64.9283 24.7375C64.9277 24.7387 64.9203 24.7534 64.9124 24.7701C64.9041 24.7878 64.8909 24.8169 64.8772 24.8533C64.8634 24.8899 64.8467 24.9401 64.8334 25.0009C64.8199 25.0623 64.809 25.1382 64.809 25.2252H66.809C66.809 25.3056 66.7989 25.375 66.7868 25.4299C66.7749 25.4841 66.7603 25.5278 66.749 25.5579C66.7377 25.5878 66.7274 25.6104 66.7221 25.6215C66.7173 25.6317 66.7132 25.6398 66.7158 25.6345C66.7165 25.6333 66.7239 25.6186 66.7317 25.6019C66.7401 25.5842 66.7533 25.5551 66.767 25.5187C66.7808 25.4821 66.7974 25.4319 66.8108 25.3711C66.8243 25.3097 66.8352 25.2338 66.8352 25.1468H64.8352ZM66.7573 25.5425L66.7835 25.4641L64.8869 24.8295L64.8606 24.9079L66.7573 25.5425ZM64.9139 24.9377C64.9139 24.8573 64.924 24.788 64.936 24.7331C64.9479 24.6788 64.9626 24.6351 64.9739 24.6051C64.9851 24.5752 64.9955 24.5526 65.0007 24.5414C65.0055 24.5312 65.0096 24.5231 65.007 24.5284C65.0064 24.5297 64.9989 24.5443 64.9911 24.561C64.9828 24.5787 64.9696 24.6078 64.9558 24.6443C64.9421 24.6809 64.9254 24.7311 64.912 24.7919C64.8986 24.8533 64.8876 24.9292 64.8876 25.0161H66.8876C66.8876 25.0966 66.8776 25.1659 66.8655 25.2208C66.8536 25.2751 66.839 25.3188 66.8276 25.3488C66.8164 25.3787 66.806 25.4013 66.8008 25.4125C66.796 25.4226 66.7919 25.4308 66.7945 25.4255C66.7952 25.4242 66.8026 25.4096 66.8104 25.3929C66.8188 25.3752 66.832 25.3461 66.8457 25.3096C66.8594 25.273 66.8761 25.2228 66.8895 25.162C66.903 25.1006 66.9139 25.0247 66.9139 24.9377H64.9139ZM66.8876 25.0161C66.8876 24.9845 66.8924 25.0945 66.8608 25.2203C66.8208 25.3799 66.7377 25.5286 66.6197 25.6461L65.2081 24.2293C64.8698 24.5664 64.8876 24.9745 64.8876 25.0161H66.8876ZM53.1386 29.0638C53.0264 28.952 52.9078 28.8818 52.8262 28.8412C52.776 28.8161 52.5828 28.7199 52.3279 28.7199V30.7199C52.1892 30.7199 52.0868 30.6895 52.0494 30.6776C52.0001 30.662 51.9616 30.6449 51.9344 30.6313C51.8921 30.6103 51.8129 30.5662 51.727 30.4806L53.1386 29.0638ZM51.622 30.4283C51.6844 30.4904 51.7466 30.5369 51.8005 30.5713C51.854 30.6055 51.9023 30.6297 51.9391 30.6463C51.9757 30.6629 52.0069 30.6747 52.0266 30.6818C52.0453 30.6885 52.0623 30.6941 52.0651 30.6951C52.0721 30.6974 52.065 30.6951 52.0559 30.6918C52.0458 30.6882 52.024 30.6801 51.9964 30.6676C51.9687 30.655 51.9289 30.6353 51.8835 30.6063C51.8376 30.5769 51.7827 30.5361 51.727 30.4806L53.1386 29.0638C53.0762 29.0017 53.014 28.9551 52.9601 28.9207C52.9067 28.8866 52.8583 28.8624 52.8216 28.8457C52.7849 28.8291 52.7538 28.8174 52.734 28.8103C52.7153 28.8035 52.6983 28.7979 52.6955 28.797C52.6885 28.7947 52.6956 28.797 52.7047 28.8003C52.7148 28.8039 52.7366 28.812 52.7642 28.8245C52.7919 28.8371 52.8317 28.8568 52.8771 28.8858C52.923 28.9151 52.9779 28.9559 53.0337 29.0115L51.622 30.4283ZM58.0193 29.9742H57.9144V31.9742H58.0193V29.9742ZM57.9144 31.9742H58.0193V29.9742H57.9144V31.9742ZM50.0505 28.381C50.0673 28.5152 50.0918 28.6519 50.1105 28.7576C50.1311 28.874 50.146 28.9594 50.1554 29.0343L52.1398 28.7853C52.123 28.6512 52.0985 28.5144 52.0798 28.4087C52.0592 28.2923 52.0443 28.2069 52.0349 28.132L50.0505 28.381ZM51.8534 28.2014C51.7494 28.0978 51.6401 28.0147 51.5897 27.9756C51.5581 27.9512 51.5408 27.9377 51.5261 27.9255C51.5126 27.9144 51.5098 27.9113 51.5125 27.914L50.1008 29.3308C50.2048 29.4344 50.3142 29.5174 50.3646 29.5565C50.3962 29.581 50.4134 29.5944 50.4282 29.6067C50.4417 29.6178 50.4445 29.6209 50.4418 29.6182L51.8534 28.2014ZM51.6633 29.1382C51.7495 28.9952 51.8003 28.9128 51.8416 28.8579L50.2437 27.6551C50.1277 27.8092 50.0212 27.9882 49.95 28.1065L51.6633 29.1382Z" fill="#2B5DA8" fill-opacity="0.1" mask="url(#path-7-inside-1_11221_49395)"/>
<path fill-rule="evenodd" clip-rule="evenodd" d="M62.9772 14.3019C64.9967 15.896 66.3081 18.274 66.5179 20.9656C66.4917 20.4952 66.413 20.051 66.3081 19.6067L66.177 19.4499C66.0983 19.3193 65.9934 19.1886 65.9147 19.058C65.7573 18.875 65.6262 18.6921 65.4688 18.4831L64.9967 18.0127C64.5771 17.6468 64.2624 17.4901 63.9738 17.9343C63.8689 18.0911 63.8165 18.3263 63.7903 18.5615C63.5017 20.5736 63.187 22.5597 62.7149 24.5196C62.61 25.0161 62.2953 25.8523 62.2166 26.5056C62.1379 27.3157 62.4526 27.4986 63.1608 27.4725C63.5542 27.4202 63.9738 27.3679 64.3673 27.3157L64.6295 27.2634L65.023 26.7146C63.5017 29.0404 60.9839 30.6606 58.0988 30.948C58.5709 30.8958 59.043 30.8174 59.4889 30.6867L59.7774 30.1641C60.6167 28.361 59.8298 28.4394 58.2037 28.2303C56.0793 27.9428 53.9548 27.4986 51.9877 26.6624L51.9353 26.6362C52.0926 26.3227 52.2238 26.0091 52.3549 25.6694C54.1384 26.3227 58.0464 27.0544 59.3053 27.2634C60.0134 27.3418 60.4331 27.2895 60.8003 26.8714C61.2724 26.3488 61.3248 25.7478 61.4822 25.0945C61.8756 23.5004 62.2428 21.9064 62.5313 20.3123C62.7411 19.1625 62.951 17.8298 62.7936 17.2026C62.61 16.4448 62.0854 16.1312 61.1937 15.7915C59.62 15.2166 57.9677 14.8769 56.3153 14.6939C55.5285 14.6155 54.5318 14.4065 53.7974 14.7462C53.404 14.9291 53.168 15.1904 53.0106 15.5302C52.8795 15.7653 52.7746 16.0005 52.6697 16.2618C52.4336 15.4518 52.0926 14.6417 51.6992 13.91C52.9844 13.0215 54.4794 12.4727 56.1317 12.3159C55.6596 12.3682 55.1613 12.4466 54.7154 12.5772L54.4794 12.8386C54.322 13.0737 54.2433 13.126 54.2695 13.3873C54.4269 13.7009 54.663 13.6486 54.9777 13.6748C57.7578 13.7532 59.5413 14.0929 62.0854 15.1904L62.4002 15.2688C62.8198 15.3211 62.951 15.2427 63.0296 15.0075C63.0821 14.8246 63.0821 14.6939 63.0821 14.511V14.3803C63.0559 14.3803 63.0034 14.3281 62.9772 14.3019ZM62.7936 14.1452C62.846 14.1713 62.8723 14.1974 62.9247 14.2497C62.8723 14.2236 62.8198 14.1974 62.7936 14.1452ZM62.5838 14.0145C62.6362 14.0406 62.6625 14.0668 62.7149 14.0929C62.6625 14.0668 62.6362 14.0406 62.5838 14.0145ZM62.4264 13.8838C62.4789 13.91 62.5051 13.9361 62.5575 13.9622C62.5051 13.9622 62.4789 13.91 62.4264 13.8838ZM62.2166 13.7532C62.269 13.7793 62.2953 13.8054 62.3477 13.8316C62.2953 13.8054 62.269 13.7793 62.2166 13.7532ZM62.0592 13.6486C62.0854 13.6748 62.1379 13.7009 62.1641 13.727C62.1379 13.7009 62.0854 13.6748 62.0592 13.6486ZM61.8494 13.518C61.8756 13.5441 61.9281 13.5703 61.9543 13.5703C61.9281 13.5703 61.8756 13.5441 61.8494 13.518ZM61.6658 13.4135C61.692 13.4396 61.7183 13.4396 61.7445 13.4657C61.7183 13.4657 61.692 13.4396 61.6658 13.4135Z" fill="#FECC00"/>
<path d="M61.968 25.2129C62.309 23.831 62.6318 22.4437 62.9011 21.0534M61.968 25.2129C61.9679 25.2134 61.9677 25.2138 61.9676 25.2143L61.4822 25.0945M61.968 25.2129C61.9681 25.2125 61.9682 25.212 61.9683 25.2115L61.4822 25.0945M61.968 25.2129C61.9459 25.3047 61.9253 25.4023 61.9038 25.5041C61.7932 26.0285 61.6589 26.6653 61.1736 27.204M62.9011 21.0534L61.4822 25.0945M62.9011 21.0534C62.7111 22.1812 62.4951 23.2969 62.2288 24.4025L62.2286 24.4024L62.2257 24.4162C62.1906 24.5821 62.1298 24.789 62.0568 25.0368C62.031 25.1245 62.0037 25.2174 61.9754 25.3154C61.8737 25.6687 61.7648 26.0753 61.7202 26.4458L61.72 26.4458L61.7189 26.4572C61.6763 26.8964 61.7149 27.3599 62.0564 27.6718C62.3755 27.9633 62.8214 27.9853 63.1792 27.9721L63.203 27.9713L63.2266 27.9681C63.2725 27.962 63.3187 27.9559 63.3652 27.9498M61.4822 25.0945C61.4544 25.2098 61.4299 25.3236 61.4057 25.4356C61.2932 25.9576 61.189 26.4411 60.8003 26.8714M61.1736 27.204C61.1744 27.2031 61.1752 27.2023 61.176 27.2014L60.8003 26.8714M61.1736 27.204C60.9264 27.4846 60.6406 27.6602 60.2937 27.7407C59.9684 27.8161 59.6167 27.8009 59.2503 27.7604L59.2368 27.7589L59.2234 27.7567C58.0687 27.5649 54.6105 26.9214 52.6421 26.2949M61.1736 27.204C61.1729 27.2049 61.1721 27.2057 61.1713 27.2066L60.8003 26.8714M60.8003 26.8714L52.6421 26.2949M52.6421 26.2949C52.7039 26.1486 52.763 26.0007 52.8214 25.8494L52.3549 25.6694M52.6421 26.2949L59.3053 27.2634C58.0464 27.0544 54.1384 26.3227 52.3549 25.6694M52.6421 26.2949C52.4779 26.2427 52.3242 26.1906 52.1829 26.1389L52.3549 25.6694M52.6421 26.2949C52.6307 26.3218 52.6192 26.3487 52.6076 26.3755M52.3549 25.6694C52.2296 25.9941 52.1042 26.295 51.9559 26.5948L52.1582 26.1887L52.1971 26.2081C52.3331 26.2657 52.47 26.3215 52.6076 26.3755M52.6076 26.3755C52.5419 26.5277 52.4726 26.6786 52.3974 26.8301C54.2482 27.5592 56.2259 27.9627 58.2037 28.2303M52.6076 26.3755C54.3974 27.0769 56.321 27.4709 58.2692 27.7346M58.2692 27.7346C58.2686 27.7345 58.2681 27.7345 58.2675 27.7344L58.2037 28.2303M58.2692 27.7346C58.2697 27.7347 58.2702 27.7347 58.2708 27.7348L58.2037 28.2303M58.2692 27.7346C58.3905 27.7502 58.5121 27.7647 58.6314 27.7789C58.8876 27.8094 59.1326 27.8386 59.3392 27.8744C59.6346 27.9257 59.9701 28.0067 60.2241 28.2063C60.5285 28.4456 60.6415 28.7883 60.6128 29.1683C60.597 29.3774 60.5386 29.608 60.4465 29.861C60.2387 29.9446 60.0271 30.0205 59.8122 30.0884C60.5284 28.5082 59.9281 28.4368 58.5904 28.2776C58.4676 28.263 58.3385 28.2476 58.2037 28.2303M63.419 15.3598C64.0067 15.9424 64.5102 16.6046 64.9145 17.3287C64.7938 17.2583 64.6621 17.2018 64.5227 17.1773C64.3362 17.1445 64.14 17.1683 63.9558 17.2693C63.7839 17.3637 63.6554 17.5072 63.5562 17.6593C63.434 17.8434 63.3674 18.0643 63.329 18.2652C63.361 17.829 63.3596 17.4059 63.2791 17.083C63.1616 16.5996 62.9253 16.237 62.5743 15.9521C62.4891 15.8829 62.3981 15.8191 62.3023 15.7597L62.3085 15.7613L62.3384 15.765C62.5602 15.7926 62.8176 15.8048 63.0467 15.7025C63.2305 15.6204 63.345 15.4909 63.419 15.3598ZM53.5866 14.2928C53.2185 14.464 52.9496 14.696 52.7519 14.9788C52.6284 14.6729 52.4935 14.3724 52.3499 14.0814C52.798 13.8041 53.271 13.5683 53.7671 13.3764C53.7683 13.3965 53.77 13.4168 53.772 13.4373L53.7813 13.5291L53.8227 13.6116C53.8874 13.7405 53.9732 13.8572 54.0887 13.9503C54.1668 14.0132 54.2482 14.057 54.3278 14.0876C54.0772 14.1198 53.8257 14.1822 53.5875 14.2924L53.5875 14.2924L53.5866 14.2928Z" stroke="#2B5DA8" stroke-opacity="0.1"/>
<path fill-rule="evenodd" clip-rule="evenodd" d="M66.4911 22.3507C66.4648 22.7689 66.3862 23.187 66.3075 23.6051L66.255 23.5528C66.1239 23.4744 66.0714 23.4222 65.9403 23.5006C65.678 23.6312 65.5993 24.1016 65.5731 24.5197C65.5469 24.781 65.5731 25.1207 65.5469 25.3821C65.5206 25.5389 65.5206 25.5127 65.3633 25.5389C64.9961 25.565 64.8912 25.4343 64.8649 25.1991C64.8125 24.781 64.8649 24.3368 64.9174 23.9187C64.9961 23.3438 65.101 22.8995 65.337 22.403C65.442 22.2201 65.5731 21.9326 65.8091 21.9065C66.019 21.8542 66.2812 22.1156 66.4911 22.3507ZM54.9508 17.1505C54.9246 16.8108 55.1082 16.262 55.318 16.0268C55.4229 15.9223 55.5541 15.9484 55.895 15.9745C57.154 16.1575 58.2293 16.3665 59.4096 16.6801C59.9866 16.8369 60.2488 16.8892 60.3275 17.1244C60.5111 17.6731 59.9866 18.5616 59.6981 19.0059C58.7539 20.4431 57.8359 21.8542 56.8917 23.2915C56.7343 23.5528 56.5507 23.8403 56.3934 24.1016C56.1835 24.4152 55.9737 24.7026 55.7901 25.0162C55.659 25.0423 55.5541 25.0423 55.4229 25.0423C55.1869 25.0162 54.741 24.9639 54.4263 24.8072C54.0328 24.6242 54.0328 24.5458 54.2164 24.2323C55.6065 22.1156 57.0228 20.025 58.4391 17.9083C57.4949 17.7254 56.3147 17.4118 55.3705 17.3595C55.1344 17.3857 54.9508 17.3595 54.9508 17.1505ZM61.4553 13.3091C61.4816 13.3352 61.5078 13.3352 61.5602 13.3613C61.534 13.3352 61.4816 13.3352 61.4553 13.3091Z" fill="#FECC00"/>
<path d="M65.9742 22.5306C65.9588 22.6774 65.9375 22.8259 65.9126 22.9776C65.8285 22.9964 65.7572 23.0292 65.6996 23.0621C65.6595 23.0833 65.6223 23.107 65.5879 23.1326C65.6391 22.9649 65.7016 22.8026 65.781 22.6338C65.7914 22.6154 65.8016 22.597 65.8109 22.5802L65.8151 22.5726C65.8291 22.5473 65.8418 22.5246 65.8546 22.5025C65.8661 22.4826 65.8767 22.4651 65.8865 22.4497C65.914 22.4728 65.9433 22.4999 65.9742 22.5306ZM65.3742 25.0319L65.3739 25.0319L65.3742 25.0319ZM65.9441 22.3737C65.9441 22.3738 65.9433 22.3746 65.9416 22.3759C65.9433 22.3743 65.9441 22.3736 65.9441 22.3737ZM57.7655 17.2561C57.028 17.0962 56.1885 16.9141 55.4767 16.8652C55.4877 16.8156 55.5023 16.7619 55.5208 16.7058C55.555 16.602 55.5936 16.5167 55.6278 16.4548C55.6316 16.4551 55.6355 16.4554 55.6396 16.4557C55.6676 16.4577 55.6986 16.4603 55.7354 16.4633L55.7411 16.4638C55.7711 16.4662 55.8042 16.469 55.8397 16.4718C57.0756 16.6518 58.1271 16.8568 59.2798 17.163C59.3283 17.1761 59.3731 17.1882 59.4151 17.1995C59.503 17.2232 59.5784 17.2434 59.6477 17.2633C59.7499 17.2925 59.816 17.3146 59.8615 17.3337C59.8623 17.334 59.863 17.3343 59.8637 17.3346C59.8746 17.4408 59.845 17.6319 59.7283 17.912C59.6018 18.2155 59.4186 18.5181 59.2794 18.7325C58.8072 19.4512 58.3417 20.1633 57.8765 20.8749L57.8764 20.8751C57.4108 21.5872 56.9455 22.2989 56.4738 23.017L56.4684 23.0252L56.4634 23.0336C56.3868 23.1607 56.3034 23.2949 56.2178 23.4327L56.2167 23.4344C56.1344 23.5669 56.05 23.7028 55.9713 23.8333C55.9195 23.9104 55.8653 23.9895 55.81 24.0702C55.7057 24.2223 55.5974 24.3803 55.4943 24.5421C55.4807 24.5422 55.4662 24.5423 55.4506 24.5423C55.2235 24.5166 54.9253 24.4749 54.7124 24.388C55.6778 22.9196 56.6551 21.4643 57.6375 20.0012C58.0425 19.398 58.4484 18.7936 58.8547 18.1864L59.2734 17.5606L58.5342 17.4174C58.2999 17.3721 58.0398 17.3156 57.7655 17.2561Z" stroke="#2B5DA8" stroke-opacity="0.1"/>
<path d="M38.8224 35.3906C47.4251 35.3906 54.4279 28.7008 54.4279 20.4953C54.4279 12.2899 47.4251 5.6001 38.8224 5.6001C30.2196 5.6001 23.2168 12.2899 23.2168 20.4953C23.2168 28.7008 30.2196 35.3906 38.8224 35.3906Z" fill="white"/>
<path d="M53.9279 20.4953C53.9279 28.4031 47.171 34.8906 38.8224 34.8906C30.4737 34.8906 23.7168 28.4031 23.7168 20.4953C23.7168 12.5876 30.4737 6.1001 38.8224 6.1001C47.171 6.1001 53.9279 12.5876 53.9279 20.4953Z" stroke="#2B5DA8" stroke-opacity="0.1"/>
<path fill-rule="evenodd" clip-rule="evenodd" d="M46.6901 9.44154C49.2605 11.2185 51.044 13.7795 51.9095 16.8369C51.8833 16.7846 51.8833 16.7324 51.857 16.6801L51.6472 16.4449C51.5161 16.262 51.3587 16.1052 51.2276 15.9223C50.9915 15.661 50.7555 15.3996 50.5456 15.1383C50.3096 14.9293 50.0735 14.7202 49.8375 14.485C49.1818 14.0146 48.7097 13.7795 48.3687 14.4589C48.2376 14.6941 48.1851 15.0338 48.1589 15.3735C47.9228 18.2742 47.6606 21.1748 47.1622 24.0493C47.0311 24.7549 46.6639 26.0092 46.6377 26.9761C46.5852 28.152 47.0573 28.3872 48.1064 28.3088C48.6835 28.2043 49.2605 28.0736 49.8375 27.9691L50.2047 27.8646C50.4407 27.4987 50.3883 27.6294 50.5981 27.2636C48.972 30.3471 46.4541 32.2025 43.0969 33.3L43.4641 32.5422C44.5132 29.8506 43.3854 30.0597 40.9987 29.8767C37.9038 29.6677 34.8089 29.2234 31.8714 28.1782C31.478 28.0475 31.1108 27.9691 30.7174 28.2827C30.2715 28.6224 30.3764 29.0667 30.5338 29.7722C30.6649 30.321 30.7961 30.8698 30.901 31.4185C28.3831 29.6416 26.5209 27.0284 25.6816 23.9709L26.0226 24.2322L26.993 24.8071C27.3865 25.0162 27.8848 25.3037 28.3307 25.0423C28.6192 24.8594 28.7241 24.4152 28.8028 23.8664C28.829 23.4222 28.8552 23.004 28.8814 22.5598C29.0126 20.7044 29.1962 19.1888 29.5371 17.3595C29.8519 15.661 30.1666 14.4066 30.6912 12.7603C30.8223 12.3945 30.9272 12.1593 30.8748 11.7673C30.7436 10.7481 29.1699 11.6628 28.1471 12.107L28.1208 12.1331C29.747 10.0687 31.9763 8.47466 34.5204 7.6123L34.2057 8.03042C33.9959 8.37013 33.891 8.44853 33.9434 8.86664C34.2057 9.28475 34.5467 9.20636 34.9925 9.20636C38.9792 9.0757 41.6019 9.41541 45.405 10.7481C45.5623 10.7743 45.6935 10.8004 45.8509 10.8265C46.4541 10.8527 46.6377 10.7481 46.7426 10.3823C46.8213 10.121 46.7951 9.93805 46.7688 9.67673V9.49381C46.6901 9.44154 46.7426 9.46768 46.6901 9.44154Z" fill="#FECC00"/>
<path d="M50.3557 14.2914C49.5742 12.8224 48.5265 11.5354 47.2353 10.4776C47.2313 10.4926 47.2269 10.5078 47.2223 10.5232C47.1518 10.7678 47.0204 11.0388 46.7109 11.1968C46.4497 11.3301 46.1347 11.3393 45.8292 11.3261L45.7989 11.3248L45.7689 11.3198C45.6866 11.3061 45.6115 11.2925 45.5401 11.2796L45.5388 11.2793C45.4663 11.2662 45.3976 11.2538 45.3231 11.2414L45.2804 11.2343L45.2396 11.22C41.5004 9.90965 38.9399 9.57725 35.0089 9.70609L35.0007 9.70636H34.9925C34.923 9.70636 34.8813 9.7076 34.8359 9.70895C34.7951 9.71017 34.7513 9.71148 34.6815 9.71205C34.573 9.71295 34.4419 9.71008 34.3067 9.68468C33.9974 9.62652 33.7258 9.46073 33.5198 9.13234L33.4611 9.03863L33.4473 8.92888C33.4318 8.80539 33.4257 8.69098 33.4333 8.58092C32.1781 9.15447 31.024 9.91874 30.0143 10.8346C30.2276 10.7966 30.4565 10.7865 30.6711 10.8462C30.848 10.8955 31.0195 10.9934 31.1516 11.1579C31.2805 11.3182 31.3454 11.5088 31.3705 11.7022C31.4348 12.1849 31.3116 12.5205 31.1974 12.8314C31.1864 12.8614 31.1755 12.8911 31.1648 12.9207C30.6482 14.5429 30.3391 15.7756 30.0288 17.4506L30.0287 17.4512C29.6917 19.2588 29.5103 20.7549 29.3804 22.5922C29.3673 22.8138 29.3542 23.0289 29.3412 23.2435C29.3281 23.4591 29.315 23.6743 29.3019 23.8959L29.3007 23.9167L29.2977 23.9374C29.2577 24.2162 29.2064 24.5066 29.1164 24.7593C29.027 25.0103 28.8775 25.2876 28.5984 25.4646L28.591 25.4693L28.5835 25.4737C28.2027 25.6969 27.8133 25.6697 27.5053 25.582C27.2399 25.5065 26.9876 25.3713 26.8099 25.2762C26.7919 25.2666 26.7748 25.2574 26.7584 25.2487L26.7482 25.2432L26.7382 25.2373L26.6019 25.1566C27.3646 27.0999 28.5741 28.8098 30.1125 30.1611C30.091 30.0705 30.0693 29.9797 30.0475 29.8884L30.0457 29.8811L30.0458 29.8811C30.0416 29.8625 30.0375 29.8438 30.0332 29.825C29.9634 29.5133 29.8874 29.174 29.8998 28.8699C29.9152 28.4923 30.063 28.1545 30.41 27.8883C30.6905 27.6662 30.9854 27.5691 31.2858 27.5639C31.5667 27.5591 31.8258 27.6362 32.029 27.7037L32.0391 27.707L32.039 27.7071C34.9159 28.7308 37.96 29.1703 41.0324 29.3779L41.0369 29.3782C41.2423 29.394 41.4457 29.4071 41.6422 29.4199C41.9901 29.4424 42.3166 29.4636 42.5947 29.4951C43.024 29.5438 43.4668 29.6268 43.802 29.856C44.1915 30.1222 44.3632 30.5284 44.3571 31.0222C44.3523 31.4094 44.2399 31.8729 44.0424 32.4239C46.1552 31.5691 47.8603 30.3476 49.1604 28.6109C49.1309 28.6169 49.1014 28.6229 49.0718 28.6289L49.0695 28.6294C48.7826 28.6878 48.4896 28.7476 48.1956 28.8008L48.1698 28.8055L48.1437 28.8074C47.6192 28.8466 47.0538 28.8322 46.6448 28.5018C46.2078 28.1488 46.1108 27.5802 46.138 26.9582C46.1381 26.9567 46.1381 26.9553 46.1382 26.9538L46.6377 26.9761C46.6564 26.2851 46.8493 25.4473 47.0057 24.7679C47.0682 24.4966 47.1248 24.2506 47.1622 24.0493L50.3557 14.2914ZM50.3557 14.2914C50.3004 14.2389 50.2454 14.1856 50.1904 14.1308L50.1618 14.1023L50.1289 14.0787C49.9609 13.9582 49.7885 13.8409 49.6193 13.7483C49.4529 13.6573 49.2599 13.5733 49.0518 13.5452C48.8292 13.5153 48.5945 13.5508 48.3787 13.6901C48.1781 13.8196 48.0346 14.0126 47.9265 14.2253C47.7417 14.5633 47.6866 14.9964 47.6605 15.334C47.4246 18.2327 47.1638 21.112 46.6701 23.9608" stroke="#2B5DA8" stroke-opacity="0.1"/>
<path fill-rule="evenodd" clip-rule="evenodd" d="M25.2352 21.1223C25.2352 20.9133 25.209 20.6781 25.209 20.469C25.209 20.1293 25.209 19.7896 25.2352 19.4499C25.4975 19.2931 25.6286 19.1102 25.7335 18.7966C25.8909 18.4046 25.9434 18.0126 25.9171 17.5684C25.8909 17.3332 25.8122 17.2287 25.6286 17.098C25.786 16.497 25.9696 15.9221 26.2056 15.3472C26.7564 15.713 26.9138 16.2095 26.8876 16.7583C26.8876 17.4639 26.7827 18.2217 26.5991 18.9534C26.4679 19.7112 26.2056 21.2007 25.2352 21.1223Z" fill="#2B5DA8"/>
<path d="M26.1903 16.9374C26.2444 16.7447 26.3018 16.5549 26.3632 16.3671C26.3863 16.4752 26.3947 16.5967 26.3881 16.7344L26.3876 16.7464V16.7583C26.3876 16.9283 26.381 17.1023 26.3683 17.2788C26.3427 17.1926 26.306 17.1075 26.2533 17.0249C26.2334 16.9937 26.2123 16.9646 26.1903 16.9374ZM25.9429 19.4827C25.9658 19.4523 25.9872 19.4213 26.0074 19.3897C25.9506 19.6504 25.8773 19.9182 25.775 20.1484C25.7528 20.1982 25.7309 20.2431 25.7092 20.2836C25.7097 20.0899 25.7117 19.9025 25.7199 19.7177C25.8017 19.6488 25.8761 19.5714 25.9429 19.4827Z" stroke="#2B5DA8" stroke-opacity="0.1"/>
<path d="M32.3176 12.0287C32.5537 11.5583 32.8422 11.1402 33.393 10.8528C34.4158 10.304 35.8846 10.4869 37.0124 10.5392C39.4254 10.6437 41.8383 10.9834 44.1464 11.689C45.4578 12.081 46.2446 12.4991 46.5856 13.5705C46.8741 14.459 46.6905 16.3928 46.4807 18.0913C46.1922 20.4171 45.7987 22.7428 45.4053 25.0686C45.2217 26.0616 45.2217 26.8978 44.566 27.7079C44.0677 28.3612 43.4645 28.4657 42.4416 28.4135C40.2647 28.1783 32.5799 27.2637 31.1374 26.2706C29.9047 25.4083 30.1145 24.154 30.1932 22.5076C30.403 20.3909 30.6653 18.4572 31.0587 16.4973C31.2161 15.7395 31.3996 14.9555 31.6095 14.1715C31.8193 13.466 31.9767 12.7343 32.3176 12.0287Z" fill="white"/>
<path d="M33.6243 11.2961L33.6243 11.296C33.2063 11.5142 32.9789 11.8264 32.7662 12.2496C32.5288 12.7417 32.3921 13.2343 32.2443 13.7669C32.1956 13.9422 32.1458 14.1219 32.0907 14.3074C31.8844 15.0787 31.7037 15.8506 31.5486 16.5973C31.1603 18.5321 30.9004 20.4444 30.692 22.5443C30.6837 22.7152 30.6746 22.8776 30.6659 23.0324C30.6307 23.6576 30.6024 24.1608 30.6682 24.6107C30.7433 25.1234 30.9374 25.5199 31.4223 25.8598C31.5453 25.9441 31.7703 26.049 32.1097 26.1651C32.4419 26.2786 32.8524 26.3926 33.3224 26.505C34.2622 26.7299 35.4121 26.9424 36.5936 27.1326C38.9447 27.5112 41.3895 27.7967 42.4811 27.9148C42.974 27.9394 43.3053 27.9211 43.5582 27.846C43.7899 27.7771 43.9786 27.6536 44.1685 27.4047L44.1728 27.3989L44.1774 27.3933C44.6137 26.8543 44.6941 26.3401 44.8085 25.6084C44.8386 25.4159 44.871 25.2084 44.913 24.9814C45.3065 22.6552 45.6977 20.3417 45.9844 18.03L33.6243 11.2961ZM33.6243 11.2961L33.6293 11.2934M33.6243 11.2961L33.6293 11.2934M33.6293 11.2934C34.0387 11.0738 34.5689 10.986 35.1762 10.9704C35.6172 10.9591 36.0553 10.9852 36.4879 11.011C36.6559 11.021 36.8231 11.031 36.9893 11.0387L36.9908 11.0387M33.6293 11.2934L36.9908 11.0387M36.9908 11.0387C39.3723 11.1419 41.7418 11.4768 44.0002 12.1672L44.0002 12.1672M36.9908 11.0387L44.0002 12.1672M44.0002 12.1672L44.0032 12.1681M44.0002 12.1672L44.0032 12.1681M44.0032 12.1681C44.6486 12.361 45.1067 12.5448 45.4397 12.7821C45.7536 13.0059 45.971 13.2881 46.1091 13.7221L46.1091 13.7221M44.0032 12.1681L46.1091 13.7221M46.1091 13.7221L46.11 13.7249M46.1091 13.7221L46.11 13.7249M46.11 13.7249C46.2234 14.0741 46.2566 14.6972 46.2205 15.5048M46.11 13.7249L46.2205 15.5048M46.2205 15.5048C46.1853 16.2912 46.089 17.1833 45.9845 18.0298L46.2205 15.5048Z" stroke="#2B5DA8" stroke-opacity="0.1"/>
<path fill-rule="evenodd" clip-rule="evenodd" d="M52.4074 20.6783C52.4074 21.3054 52.355 21.9065 52.25 22.4814L52.1714 22.403C51.9878 22.3246 51.9091 22.2462 51.6993 22.3507C51.3583 22.5598 51.2796 23.2392 51.2796 23.8402C51.2796 24.2061 51.3321 24.7026 51.3321 25.0684C51.3321 25.3036 51.3058 25.2775 51.096 25.3298C50.5715 25.4082 50.4141 25.2252 50.3616 24.8594C50.2567 24.2584 50.283 23.6312 50.3092 23.0302C50.3879 22.1939 50.4928 21.5406 50.7813 20.8089C50.9124 20.5215 51.096 20.1295 51.437 20.0511C51.673 19.9988 52.0665 20.3386 52.4074 20.6783ZM35.3069 14.2237C35.2282 13.7272 35.4642 12.9171 35.7265 12.5774C35.8577 12.3944 36.0412 12.4206 36.5396 12.4467C38.3755 12.6035 39.9492 12.7864 41.6802 13.1261C42.5195 13.2829 42.9129 13.3352 43.0441 13.6749C43.3588 14.4589 42.7031 15.7916 42.3097 16.471C41.1032 18.6138 39.8705 20.7567 38.664 22.8995C38.4542 23.2915 38.2182 23.7096 38.0083 24.1016C37.7461 24.5719 37.4838 25.0162 37.2215 25.4866C37.0641 25.5388 36.8805 25.565 36.6969 25.565C36.356 25.565 35.7265 25.5127 35.2544 25.3298C34.6512 25.0946 34.6774 24.99 34.8872 24.5197C36.7232 21.3577 38.5329 18.1957 40.3688 15.0338C39.005 14.8508 37.2477 14.5111 35.9101 14.5373C35.6216 14.5373 35.3331 14.5111 35.3069 14.2237Z" fill="#2B5DA8"/>
<path d="M51.8453 21.801C51.7176 21.8067 51.5952 21.8439 51.4763 21.9032L51.4566 21.913L51.4379 21.9245C51.0862 22.1401 50.9427 22.5385 50.8743 22.8365C50.8332 23.0154 50.8086 23.206 50.7949 23.394C50.7987 23.2854 50.8033 23.1756 50.8082 23.0645C50.8844 22.2587 50.9832 21.6642 51.2417 21.0044C51.3073 20.8609 51.3656 20.7405 51.4343 20.6464C51.4622 20.6082 51.4853 20.5834 51.5033 20.5674C51.527 20.5808 51.5571 20.5997 51.5937 20.6256C51.6878 20.6923 51.7938 20.7832 51.9054 20.8879C51.8992 21.2001 51.8791 21.5044 51.8453 21.801ZM51.4503 20.542C51.448 20.5414 51.4468 20.541 51.4468 20.5409C51.4468 20.5409 51.4479 20.5412 51.4503 20.542ZM35.9055 14.0373C35.8617 14.0372 35.8243 14.0364 35.7917 14.0346C35.7887 13.8858 35.8144 13.686 35.8719 13.4707C35.9356 13.2323 36.0209 13.0386 36.0907 12.9285C36.1172 12.9279 36.1531 12.9282 36.2025 12.93C36.2593 12.9321 36.321 12.9355 36.3958 12.9396C36.4293 12.9415 36.4656 12.9435 36.5052 12.9456C38.3282 13.1014 39.8801 13.2824 41.5839 13.6168L41.5839 13.6168L41.5884 13.6176C41.6388 13.627 41.6867 13.6359 41.7324 13.6444C42.0906 13.711 42.3104 13.7518 42.4659 13.805C42.5382 13.8298 42.5682 13.8485 42.5778 13.8556L42.5801 13.8612C42.666 14.0752 42.6369 14.4526 42.4686 14.9526C42.3099 15.424 42.0657 15.8946 41.877 16.2205L41.877 16.2205L41.874 16.2257C41.2714 17.296 40.6622 18.3664 40.0523 19.4379L40.052 19.4385C39.4424 20.5095 38.8321 21.5818 38.2283 22.6542L38.2282 22.6541L38.2232 22.6635C38.1199 22.8565 38.0099 23.0564 37.8981 23.2594L37.8974 23.2608C37.7872 23.461 37.6753 23.6643 37.5696 23.8617C37.4408 24.0926 37.3119 24.3175 37.1812 24.5453L37.1805 24.5465C37.0852 24.7127 36.989 24.8804 36.8925 25.0512C36.8315 25.0601 36.7655 25.065 36.6969 25.065C36.3821 25.065 35.8241 25.0141 35.4356 24.8638C35.3849 24.844 35.342 24.8264 35.3055 24.8104C35.3138 24.7911 35.323 24.7703 35.3331 24.7475C36.2469 23.1735 37.1543 21.5997 38.0611 20.0266L38.0612 20.0264C38.9727 18.4453 39.8837 16.865 40.8012 15.2848L41.177 14.6377L40.4353 14.5382C40.124 14.4964 39.7833 14.4448 39.4263 14.3907C38.2797 14.2168 36.9639 14.0173 35.9055 14.0373ZM35.1703 24.7406C35.1703 24.7406 35.1707 24.7409 35.1715 24.7416L35.1703 24.7406ZM35.2502 24.9559C35.25 24.9572 35.2499 24.9579 35.2498 24.9579L35.2502 24.9559Z" stroke="#2B5DA8" stroke-opacity="0.1"/>
</svg>
