<svg width="76" height="42" viewBox="0 0 76 42" fill="none" xmlns="http://www.w3.org/2000/svg">
<path d="M72.6807 21.3206C72.7748 24.5321 71.8667 27.6937 70.0814 30.3701C69.1531 31.6831 67.9451 32.7758 66.5437 33.5704C65.1423 34.365 63.582 34.8419 61.9742 34.967C60.3663 35.092 58.7506 34.8623 57.2422 34.294C55.7338 33.7258 54.3701 32.8331 53.2482 31.6796C52.8129 32.5622 52.1321 33.3017 51.2868 33.8103C50.4416 34.3188 49.4673 34.5748 48.4801 34.548H38.9282C37.5726 34.576 36.2439 34.1688 35.1388 33.3866C34.504 32.9383 33.987 32.3444 33.6313 31.6552C33.2757 30.9661 33.0918 30.2018 33.0953 29.427C33.0953 27.8836 33.8548 26.3325 35.405 24.6723L35.5459 24.532C36.9787 23.1757 37.4406 22.708 37.5816 22.5521C37.5972 22.5365 37.6051 22.521 37.6207 22.5132C36.6263 22.3217 35.711 21.8417 34.99 21.1335L29.854 30.9859C29.3948 31.9744 28.7818 32.8846 28.0375 33.6828C27.1965 34.5212 26.0568 34.9946 24.8666 35.0001C24.1368 35.0276 23.4108 34.8814 22.7491 34.5737C22.0873 34.266 21.5088 33.8056 21.0615 33.2307C19.2037 34.4424 17.0182 35.0598 14.798 35.0001C12.0476 35.0954 9.36817 34.1195 7.32879 32.2798C5.83529 30.8787 4.8324 29.0378 4.46742 27.0274C4.10244 25.017 4.39459 22.943 5.30098 21.1101C5.50375 20.6996 5.73939 20.306 6.00562 19.9331C5.44458 18.8121 5.15245 17.5767 5.15222 16.3242C5.11755 15.0527 5.38783 13.7912 5.94064 12.6445C6.49344 11.4977 7.31286 10.4986 8.33095 9.73002C10.192 8.33952 12.4722 7.61948 14.798 7.68783C17.1245 7.61417 19.4081 8.32257 21.2808 9.69884C22.2979 10.4749 23.1157 11.48 23.6669 12.6317C24.2181 13.7835 24.4871 15.0489 24.4517 16.3242C24.4478 17.5797 24.1531 18.8174 23.5904 19.9409C23.8415 20.2878 24.0665 20.6525 24.2638 21.0322C24.2716 21.04 24.2716 21.0556 24.2794 21.0634L29.165 11.7021C29.5336 10.9647 29.9659 10.2605 30.4568 9.59751C30.8803 9.02711 31.4276 8.55925 32.0581 8.22883C32.6885 7.89842 33.3857 7.71397 34.0978 7.68924C34.8098 7.66451 35.5182 7.80014 36.1703 8.08602C36.8223 8.3719 37.4011 8.80065 37.8634 9.34029C39.6182 8.22088 41.6675 7.64573 43.7511 7.68783C46.229 7.63591 48.6308 8.54099 50.4531 10.2133C51.1291 10.8325 51.7072 11.5499 52.1677 12.3412C52.1756 12.3335 52.1756 12.3257 52.1834 12.3179C53.1925 10.8889 54.5318 9.72235 56.0885 8.91657C57.6453 8.11079 59.3737 7.68937 61.1283 7.68784C62.8829 7.68631 64.6121 8.1047 66.1702 8.90777C67.7284 9.71083 69.0698 10.875 70.0814 12.3022C71.8593 14.9705 72.7671 18.1198 72.6807 21.3206Z" fill="#59057D"/>
<path d="M71.6788 19.3255C71.7729 22.537 70.8647 25.6986 69.0794 28.375C68.1511 29.6879 66.9432 30.7807 65.5418 31.5753C64.1404 32.3699 62.5801 32.8468 60.9722 32.9718C59.3644 33.0969 57.7486 32.8671 56.2403 32.2989C54.7319 31.7306 53.3681 30.8379 52.2462 29.6845C51.811 30.5671 51.1302 31.3066 50.2849 31.8151C49.4396 32.3236 48.4654 32.5797 47.4781 32.5529H37.9263C36.5706 32.5809 35.2419 32.1737 34.1368 31.3915C33.5021 30.9432 32.985 30.3493 32.6294 29.6601C32.2737 28.9709 32.0899 28.2067 32.0934 27.4318C32.0934 25.8885 32.8528 24.3374 34.403 22.6771L34.544 22.5368C35.9767 21.1806 36.4387 20.7129 36.5796 20.557C36.5953 20.5414 36.6031 20.5258 36.6188 20.518C35.6244 20.3266 34.7091 19.8466 33.9881 19.1384L28.852 28.9908C28.3928 29.9793 27.7798 30.8895 27.0356 31.6877C26.1946 32.526 25.0548 32.9995 23.8647 33.005C23.1348 33.0325 22.4089 32.8863 21.7471 32.5786C21.0854 32.2708 20.5069 31.8105 20.0596 31.2356C18.2017 32.4473 16.0163 33.0646 13.7961 33.005C11.0456 33.1003 8.36622 32.1244 6.32684 30.2847C4.83334 28.8836 3.83045 27.0427 3.46547 25.0323C3.10049 23.0219 3.39264 20.9479 4.29902 19.115C4.5018 18.7045 4.73744 18.3109 5.00367 17.938C4.44262 16.817 4.15049 15.5816 4.15027 14.3291C4.1156 13.0576 4.38588 11.7961 4.93868 10.6493C5.49149 9.50255 6.31091 8.50346 7.329 7.7349C9.19004 6.34441 11.4702 5.62436 13.7961 5.69272C16.1225 5.61905 18.4062 6.32745 20.2788 7.70372C21.296 8.47973 22.1137 9.48488 22.665 10.6366C23.2162 11.7883 23.4851 13.0538 23.4497 14.3291C23.4459 15.5846 23.1511 16.8222 22.5885 17.9458C22.8395 18.2926 23.0646 18.6574 23.2618 19.0371C23.2696 19.0449 23.2696 19.0604 23.2775 19.0682L28.163 9.70693C28.5317 8.96955 28.9639 8.26539 29.4549 7.60239C29.8783 7.03199 30.4257 6.56414 31.0561 6.23372C31.6866 5.9033 32.3838 5.71885 33.0958 5.69412C33.8078 5.66939 34.5163 5.80503 35.1683 6.09091C35.8203 6.37679 36.3991 6.80553 36.8615 7.34517C38.6162 6.22577 40.6655 5.65062 42.7492 5.69272C45.227 5.64079 47.6289 6.54587 49.4511 8.2182C50.1272 8.83738 50.7053 9.5548 51.1658 10.3461C51.1736 10.3383 51.1736 10.3305 51.1814 10.3227C52.1905 8.89377 53.5299 7.72724 55.0866 6.92145C56.6433 6.11567 58.3718 5.69425 60.1264 5.69272C61.8809 5.69119 63.6101 6.10959 65.1683 6.91265C66.7264 7.71571 68.0678 8.87991 69.0794 10.3071C70.8574 12.9753 71.7651 16.1247 71.6788 19.3255Z" fill="#8400BE"/>
<g filter="url(#filter0_f_11221_49404)">
<path d="M6.44273 23.33C6.43791 22.3463 6.66413 21.375 7.10334 20.4938C7.565 19.5842 8.26982 18.819 9.1402 18.2825C8.66395 17.8757 8.26331 17.3886 7.9566 16.8435C7.51559 16.0792 7.2831 15.2134 7.28224 14.332C7.24881 13.5376 7.40911 12.7471 7.74945 12.0279C8.08979 11.3087 8.60003 10.6822 9.23654 10.2021C10.5533 9.23908 12.1593 8.74909 13.792 8.8122C15.4287 8.74175 17.0416 9.22197 18.3707 10.1755C19.007 10.6613 19.516 11.2928 19.8546 12.0165C20.1932 12.7401 20.3513 13.5345 20.3154 14.332C20.3075 15.2127 20.0746 16.077 19.6388 16.8435C19.3472 17.3999 18.9428 17.8899 18.451 18.2825C19.3083 18.8184 20.007 19.5717 20.4752 20.4653C20.9306 21.3516 21.1638 22.3345 21.155 23.33C21.1744 24.2095 21.0031 25.0829 20.6528 25.8905C20.3024 26.6982 19.7813 27.4212 19.125 28.0102C17.6596 29.3014 15.7468 29.9738 13.792 29.885C11.8379 29.9745 9.92614 29.2991 8.46583 28.0033C7.81238 27.4138 7.29363 26.6916 6.94462 25.8853C6.5956 25.0791 6.42445 24.2077 6.44273 23.33ZM11.1771 22.8493C11.173 23.193 11.2378 23.5341 11.3678 23.8526C11.4978 24.171 11.6903 24.4605 11.934 24.7039C12.1713 24.9568 12.4593 25.1572 12.7794 25.2921C13.0995 25.4269 13.4444 25.4933 13.792 25.4868C14.14 25.4907 14.4852 25.4249 14.8072 25.2934C15.1292 25.162 15.4215 24.9675 15.6666 24.7215C15.9117 24.4756 16.1048 24.1831 16.2343 23.8615C16.3638 23.5399 16.4272 23.1957 16.4206 22.8493C16.4271 22.5029 16.3641 22.1586 16.2353 21.8367C16.1065 21.5147 15.9145 21.2216 15.6706 20.9745C15.4296 20.7211 15.1379 20.5211 14.8142 20.3873C14.4906 20.2536 14.1423 20.1891 13.792 20.1981C13.4463 20.191 13.1028 20.255 12.7831 20.3862C12.4634 20.5174 12.1743 20.7128 11.934 20.9604C11.6859 21.2078 11.4909 21.5028 11.3608 21.8275C11.2306 22.1522 11.1681 22.4998 11.1771 22.8493ZM11.8514 14.6696C11.8519 14.9058 11.9024 15.1393 11.9996 15.3548C12.0969 15.5702 12.2386 15.7629 12.4157 15.9202C12.598 16.096 12.8135 16.234 13.0497 16.3263C13.286 16.4185 13.5383 16.4631 13.792 16.4576C14.2963 16.4577 14.7814 16.2654 15.1476 15.9202C15.3331 15.7677 15.4828 15.5765 15.5863 15.3603C15.6897 15.144 15.7443 14.9078 15.7463 14.6683C15.7482 14.4287 15.6975 14.1917 15.5977 13.9737C15.4978 13.7558 15.3512 13.5623 15.1683 13.4067C14.793 13.0687 14.305 12.8815 13.7989 12.8815C13.2928 12.8815 12.8048 13.0687 12.4295 13.4067C12.2468 13.5628 12.1005 13.7566 12.0007 13.9747C11.9008 14.1928 11.8499 14.4299 11.8514 14.6696Z" fill="#372F2F"/>
<path d="M22.2852 28.3645C22.3387 27.8255 22.5026 27.3033 22.7668 26.8299C23.0329 26.3275 23.2302 25.9439 23.3586 25.679L30.9418 11.1417C31.2222 10.5841 31.5442 10.0482 31.9052 9.53866C32.0395 9.32889 32.2217 9.15373 32.437 9.02752C32.6522 8.90131 32.8945 8.82763 33.1438 8.8125C34.199 8.8125 34.7265 9.31489 34.7265 10.3197C34.6991 10.7292 34.5916 11.1295 34.41 11.498C34.2999 11.7629 34.0476 12.2698 33.6531 13.0188L26.0699 27.556C25.7546 28.2383 25.3472 28.8745 24.8588 29.4468C24.7312 29.5819 24.5778 29.6902 24.4077 29.7654C24.2375 29.8407 24.054 29.8815 23.8679 29.8853C22.8127 29.8853 22.2852 29.3784 22.2852 28.3645Z" fill="#372F2F"/>
<path d="M35.2247 27.4316C35.2247 26.7229 35.7141 25.846 36.6927 24.8009C37.8476 23.7116 38.5806 22.9975 38.8917 22.6585C39.9495 21.4958 41.0028 20.3331 42.0517 19.1704C43.5465 17.3484 44.294 16.0027 44.2943 15.133C44.3189 14.869 44.2896 14.6027 44.2083 14.3502C44.127 14.0976 43.9952 13.8641 43.821 13.6635C43.4399 13.3382 42.9455 13.1754 42.4447 13.2102C41.367 13.2102 40.5757 13.9273 40.0707 15.3614C39.5661 16.7954 38.8187 17.5125 37.8285 17.5125C37.513 17.5322 37.197 17.4829 36.9027 17.3681C36.6083 17.2533 36.3428 17.0758 36.1246 16.848C35.7338 16.4243 35.5202 15.868 35.5275 15.2928C35.5207 14.4275 35.7013 13.5708 36.0569 12.7812C36.4124 11.9915 36.9347 11.2873 37.5881 10.7166C38.993 9.43482 40.8459 8.75126 42.7505 8.81209C44.4412 8.76645 46.0837 9.37597 47.3319 10.5122C47.9446 11.0701 48.4283 11.7538 48.7497 12.5159C49.0712 13.2781 49.2226 14.1006 49.1937 14.9267C49.1624 16.2718 48.7729 17.5846 48.0652 18.7308C47.3152 19.9337 46.4486 21.0606 45.4778 22.0952C43.7372 23.9906 42.7942 25.0252 42.6488 25.199H47.5242C47.8174 25.1833 48.1104 25.2326 48.3822 25.3432C48.6539 25.4538 48.8977 25.6231 49.0958 25.8388C49.4611 26.2465 49.6625 26.7739 49.6616 27.3202C49.6607 27.8665 49.4575 28.3933 49.0909 28.7998C48.8848 29.0158 48.6337 29.1844 48.3553 29.2937C48.0769 29.4031 47.7779 29.4505 47.4791 29.4327H37.921C37.2329 29.4599 36.5545 29.2641 35.9877 28.8747C35.7502 28.7161 35.5561 28.5012 35.4229 28.2492C35.2897 27.9973 35.2216 27.7163 35.2247 27.4316Z" fill="#372F2F"/>
<path d="M51.7406 19.342C51.6513 16.7751 52.3576 14.243 53.7637 12.0894C54.4858 11.0765 55.4411 10.2505 56.5496 9.68042C57.658 9.11033 58.8875 8.81272 60.1351 8.8125C61.3828 8.81228 62.6124 9.10944 63.721 9.67914C64.8297 10.2488 65.7853 11.0745 66.5078 12.0871C67.9215 14.2361 68.633 16.7678 68.5447 19.3352C68.6378 21.9074 67.9261 24.4449 66.5078 26.597C65.7878 27.6129 64.8333 28.4418 63.7246 29.014C62.6158 29.5863 61.3852 29.8851 60.1363 29.8853C58.8874 29.8855 57.6568 29.5872 56.5478 29.0153C55.4388 28.4435 54.484 27.6149 53.7637 26.5992C52.3542 24.4455 51.6476 21.9109 51.7406 19.342ZM56.4749 19.342C56.4369 20.7201 56.6949 22.0904 57.2318 23.3611C57.8924 24.7785 58.8604 25.4871 60.1358 25.4871C60.7786 25.4803 61.4035 25.2747 61.9237 24.8987C62.444 24.5227 62.834 23.9949 63.0397 23.3885C63.5788 22.1084 63.8414 20.7297 63.8104 19.342C63.8471 17.9716 63.5841 16.6096 63.0397 15.3503C62.3791 13.9239 61.4111 13.2106 60.1358 13.2106C59.4912 13.2186 58.8653 13.4264 58.3448 13.8049C57.8244 14.1835 57.4354 14.7141 57.2318 15.323C56.695 16.5937 56.4369 17.964 56.4749 19.342Z" fill="#372F2F"/>
</g>
<g filter="url(#filter1_i_11221_49404)">
<path d="M6.31968 23.205C6.31487 22.2213 6.54109 21.25 6.98029 20.3688C7.44196 19.4592 8.14677 18.694 9.01715 18.1575C8.5409 17.7507 8.14026 17.2636 7.83355 16.7185C7.39254 15.9542 7.16005 15.0884 7.15919 14.207C7.12576 13.4126 7.28607 12.6221 7.6264 11.9029C7.96674 11.1837 8.47698 10.5572 9.11349 10.0771C10.4303 9.11408 12.0362 8.62409 13.6689 8.6872C15.3056 8.61675 16.9185 9.09697 18.2477 10.0505C18.8839 10.5363 19.393 11.1678 19.7316 11.8915C20.0702 12.6151 20.2282 13.4095 20.1924 14.207C20.1844 15.0877 19.9516 15.952 19.5157 16.7185C19.2242 17.2749 18.8197 17.7649 18.3279 18.1575C19.1853 18.6934 19.884 19.4467 20.3522 20.3403C20.8075 21.2266 21.0408 22.2095 21.0319 23.205C21.0513 24.0845 20.88 24.9579 20.5297 25.7655C20.1794 26.5732 19.6583 27.2962 19.0019 27.8852C17.5365 29.1764 15.6238 29.8488 13.6689 29.76C11.7148 29.8495 9.8031 29.1741 8.34278 27.8783C7.68934 27.2888 7.17058 26.5666 6.82157 25.7603C6.47255 24.9541 6.3014 24.0827 6.31968 23.205ZM11.054 22.7243C11.0499 23.068 11.1148 23.4091 11.2448 23.7276C11.3747 24.046 11.5672 24.3355 11.811 24.5789C12.0482 24.8318 12.3362 25.0322 12.6563 25.1671C12.9764 25.3019 13.3214 25.3683 13.6689 25.3618C14.0169 25.3657 14.3622 25.2999 14.6842 25.1684C15.0062 25.037 15.2984 24.8425 15.5436 24.5965C15.7887 24.3506 15.9817 24.0581 16.1113 23.7365C16.2408 23.4149 16.3041 23.0707 16.2976 22.7243C16.3041 22.3779 16.2411 22.0336 16.1123 21.7117C15.9835 21.3897 15.7915 21.0966 15.5475 20.8495C15.3066 20.5961 15.0148 20.3961 14.6912 20.2623C14.3675 20.1286 14.0192 20.0641 13.6689 20.0731C13.3232 20.066 12.9797 20.13 12.66 20.2612C12.3403 20.3924 12.0513 20.5878 11.811 20.8354C11.5629 21.0828 11.3678 21.3778 11.2377 21.7025C11.1076 22.0272 11.0451 22.3748 11.054 22.7243ZM11.7284 14.5446C11.7289 14.7808 11.7794 15.0143 11.8766 15.2298C11.9738 15.4452 12.1156 15.6379 12.2927 15.7952C12.4749 15.971 12.6904 16.109 12.9267 16.2013C13.1629 16.2935 13.4152 16.3381 13.6689 16.3326C14.1732 16.3327 14.6584 16.1404 15.0245 15.7952C15.21 15.6427 15.3598 15.4515 15.4632 15.2353C15.5666 15.019 15.6213 14.7828 15.6232 14.5433C15.6252 14.3037 15.5745 14.0667 15.4746 13.8487C15.3748 13.6308 15.2282 13.4373 15.0452 13.2817C14.6699 12.9437 14.1819 12.7565 13.6758 12.7565C13.1698 12.7565 12.6817 12.9437 12.3065 13.2817C12.1238 13.4378 11.9774 13.6316 11.8776 13.8497C11.7778 14.0678 11.7269 14.3049 11.7284 14.5446Z" fill="white"/>
<path d="M22.1621 28.2395C22.2156 27.7005 22.3796 27.1783 22.6438 26.7049C22.9099 26.2025 23.1071 25.8189 23.2356 25.554L30.8188 11.0167C31.0991 10.4591 31.4212 9.92325 31.7822 9.41366C31.9164 9.20389 32.0986 9.02873 32.3139 8.90252C32.5292 8.77631 32.7714 8.70263 33.0208 8.6875C34.0759 8.6875 34.6035 9.18988 34.6035 10.1947C34.5761 10.6042 34.4686 11.0045 34.287 11.373C34.1768 11.6379 33.9245 12.1448 33.53 12.8938L25.9468 27.431C25.6316 28.1133 25.2241 28.7495 24.7357 29.3218C24.6081 29.4568 24.4548 29.5652 24.2846 29.6404C24.1145 29.7157 23.931 29.7565 23.7448 29.7603C22.6897 29.7603 22.1621 29.2533 22.1621 28.2395Z" fill="#FECC00"/>
<path d="M35.1017 27.3066C35.1017 26.5979 35.591 25.721 36.5697 24.6759C37.7246 23.5866 38.4576 22.8725 38.7686 22.5335C39.8264 21.3708 40.8798 20.2081 41.9287 19.0454C43.4235 17.2234 44.171 15.8777 44.1712 15.008C44.1958 14.744 44.1666 14.4777 44.0853 14.2252C44.0039 13.9726 43.8722 13.7391 43.6979 13.5385C43.3169 13.2132 42.8224 13.0504 42.3217 13.0852C41.244 13.0852 40.4526 13.8023 39.9476 15.2364C39.443 16.6704 38.6956 17.3875 37.7055 17.3875C37.39 17.4072 37.074 17.3579 36.7796 17.2431C36.4853 17.1283 36.2197 16.9508 36.0016 16.723C35.6108 16.2993 35.3972 15.743 35.4044 15.1678C35.3977 14.3025 35.5782 13.4458 35.9338 12.6562C36.2894 11.8665 36.8116 11.1623 37.465 10.5916C38.8699 9.30982 40.7228 8.62626 42.6275 8.68709C44.3182 8.64145 45.9607 9.25097 47.2089 10.3872C47.8215 10.9451 48.3053 11.6288 48.6267 12.3909C48.9481 13.1531 49.0996 13.9756 49.0707 14.8017C49.0393 16.1468 48.6499 17.4596 47.9421 18.6058C47.1921 19.8087 46.3255 20.9356 45.3548 21.9702C43.6142 23.8656 42.6712 24.9002 42.5258 25.074H47.4012C47.6943 25.0583 47.9874 25.1076 48.2591 25.2182C48.5309 25.3288 48.7746 25.4981 48.9728 25.7138C49.338 26.1215 49.5395 26.6489 49.5386 27.1952C49.5377 27.7415 49.3345 28.2683 48.9678 28.6748C48.7617 28.8908 48.5107 29.0594 48.2323 29.1687C47.9539 29.2781 47.6548 29.3255 47.3561 29.3077H37.798C37.1099 29.3349 36.4315 29.1391 35.8647 28.7497C35.6272 28.5911 35.4331 28.3762 35.2998 28.1242C35.1666 27.8723 35.0985 27.5913 35.1017 27.3066Z" fill="white"/>
<path d="M51.6175 19.2168C51.5283 16.6498 52.2346 14.1177 53.6406 11.9642C54.3628 10.9513 55.318 10.1253 56.4265 9.55518C57.535 8.98508 58.7644 8.68748 60.0121 8.68726C61.2597 8.68703 62.4893 8.98419 63.598 9.55389C64.7067 10.1236 65.6622 10.9493 66.3848 11.9619C67.7985 14.1109 68.5099 16.6426 68.4217 19.21C68.5147 21.7822 67.803 24.3197 66.3848 26.4717C65.6648 27.4876 64.7103 28.3166 63.6015 28.8888C62.4928 29.461 61.2622 29.7598 60.0133 29.7601C58.7644 29.7603 57.5337 29.4619 56.4248 28.8901C55.3158 28.3183 54.361 27.4897 53.6406 26.474C52.2311 24.3203 51.5245 21.7856 51.6175 19.2168ZM56.3518 19.2168C56.3138 20.5949 56.5719 21.9651 57.1088 23.2359C57.7694 24.6532 58.7374 25.3619 60.0127 25.3619C60.6556 25.3551 61.2804 25.1494 61.8007 24.7734C62.321 24.3974 62.7109 23.8697 62.9166 23.2633C63.4557 21.9832 63.7183 20.6045 63.6873 19.2168C63.724 17.8463 63.4611 16.4843 62.9166 15.2251C62.256 13.7986 61.2881 13.0854 60.0127 13.0854C59.3682 13.0934 58.7422 13.3011 58.2218 13.6797C57.7013 14.0583 57.3123 14.5889 57.1088 15.1977C56.572 16.4685 56.3139 17.8387 56.3518 19.2168Z" fill="white"/>
</g>
<defs>
<filter id="filter0_f_11221_49404" x="5.02592" y="7.38994" width="64.9423" height="23.9184" filterUnits="userSpaceOnUse" color-interpolation-filters="sRGB">
<feFlood flood-opacity="0" result="BackgroundImageFix"/>
<feBlend mode="normal" in="SourceGraphic" in2="BackgroundImageFix" result="shape"/>
<feGaussianBlur stdDeviation="0.707742" result="effect1_foregroundBlur_11221_49404"/>
</filter>
<filter id="filter1_i_11221_49404" x="6.31836" y="7.26494" width="62.1113" height="22.5029" filterUnits="userSpaceOnUse" color-interpolation-filters="sRGB">
<feFlood flood-opacity="0" result="BackgroundImageFix"/>
<feBlend mode="normal" in="SourceGraphic" in2="BackgroundImageFix" result="shape"/>
<feColorMatrix in="SourceAlpha" type="matrix" values="0 0 0 0 0 0 0 0 0 0 0 0 0 0 0 0 0 0 127 0" result="hardAlpha"/>
<feOffset dy="-1.41548"/>
<feGaussianBlur stdDeviation="0.707742"/>
<feComposite in2="hardAlpha" operator="arithmetic" k2="-1" k3="1"/>
<feColorMatrix type="matrix" values="0 0 0 0 0 0 0 0 0 0 0 0 0 0 0 0 0 0 0.24 0"/>
<feBlend mode="normal" in2="shape" result="effect1_innerShadow_11221_49404"/>
</filter>
</defs>
</svg>
