<svg width="88" height="39" viewBox="0 0 88 39" fill="none" xmlns="http://www.w3.org/2000/svg">
<mask id="path-1-outside-1_984_10448" maskUnits="userSpaceOnUse" x="0.0126953" y="0" width="88" height="39" fill="black">
<rect fill="white" x="0.0126953" width="88" height="39"/>
<path fill-rule="evenodd" clip-rule="evenodd" d="M6.28601 17.1816C5.91372 16.5512 5.90215 15.7711 6.25558 15.13L11.1316 6.28516C11.4956 5.62484 12.1899 5.21475 12.9439 5.21475H15.0661C16.0231 5.21475 16.8553 5.87087 17.0785 6.80143L17.4217 8.23153L17.6209 6.9631C17.7791 5.95648 18.6464 5.21475 19.6654 5.21475H21.5223C22.1275 5.21475 22.7024 5.47967 23.0956 5.93975C23.4887 6.39983 23.6608 7.00896 23.5665 7.60677L22.8196 12.3412H23.5188C23.5236 12.0234 23.5517 11.7016 23.6037 11.3782C24.0104 8.84795 25.7242 6.64338 28.0957 5.64963C28.1001 5.33914 28.1745 5.03008 28.3177 4.74654L29.636 2.13649C29.8861 1.64128 30.3246 1.26723 30.8531 1.09829C31.3815 0.929346 31.9557 0.979654 32.4467 1.23792L33.7674 1.93258C34.2613 2.19238 34.6293 2.64063 34.788 3.17566C34.9467 3.71069 34.8826 4.28713 34.6103 4.77422L33.9861 5.8905C34.9031 6.42391 35.6478 7.20464 36.143 8.17573L37.1852 6.28516C37.5492 5.62484 38.2436 5.21475 38.9976 5.21475H41.1198C42.0767 5.21475 42.9089 5.87087 43.1322 6.80143L44.6857 13.2762H45.6882C46.3774 13.2762 47.0214 13.6193 47.4058 14.1913C47.7903 14.7632 47.8648 15.489 47.6046 16.1272L46.4298 19.0081C46.1121 19.787 45.3546 20.2962 44.5134 20.2962H42.9597C42.2831 20.2962 41.6492 19.9654 41.2622 19.4104C41.0039 19.0401 40.8773 18.601 40.8912 18.1612C40.1503 18.0183 39.5365 17.4782 39.3083 16.7456H38.2625L38.0655 17.111C37.7045 17.781 37.0048 18.1987 36.2438 18.1987H34.1216C33.5832 18.1987 33.0742 17.9895 32.6945 17.628C31.7105 18.0897 30.6085 18.325 29.4618 18.325C28.232 18.325 27.0873 17.9885 26.1337 17.3713C25.7532 17.8778 25.1484 18.1987 24.4782 18.1987H18.2758C18.0903 18.1987 17.9076 18.1738 17.7321 18.126C17.5567 18.1737 17.374 18.1987 17.1883 18.1987H15.2303C14.3195 18.1987 13.5222 17.6044 13.2547 16.7456H12.2089L12.0119 17.111C11.6508 17.781 10.9512 18.1987 10.1901 18.1987H8.06795C7.33588 18.1987 6.65829 17.8119 6.28601 17.1816ZM15.0661 7.28428H12.9439L8.06795 16.1292H10.1901L10.9733 14.6761H14.8893L15.2303 16.1292H17.1883L15.0661 7.28428ZM13.7145 9.5334L11.8449 12.9829H14.5482L13.7145 9.5334ZM24.4782 16.1292L24.7561 14.4107H20.398L21.5223 7.28428H19.6654L18.2758 16.1292H24.4782ZM41.1198 7.28428H38.9976L34.1216 16.1292H36.2438L37.027 14.6761H40.9429L41.284 16.1292H43.2419L41.1198 7.28428ZM37.8986 12.9829H40.6018L39.7681 9.5334L37.8986 12.9829ZM42.9597 18.2266H44.5134L45.6882 15.3457H44.0208L42.9597 18.2266ZM34.4262 11.4161H30.624L30.4092 12.7807H32.2788L32.2283 13.1345C32.1458 13.262 32.0569 13.3789 31.9618 13.4856C31.5544 13.9427 31.0325 14.2118 30.4092 14.3188C30.1976 14.3551 29.9743 14.3728 29.7397 14.3728C29.6449 14.3728 29.5522 14.3679 29.4618 14.3582C29.2801 14.3388 29.1079 14.3004 28.9467 14.2449C28.0265 13.9285 27.4637 13.058 27.5213 12.008C27.5268 11.9091 27.5377 11.8085 27.5544 11.7067C27.7818 10.241 29.1081 9.04062 30.5987 9.04062C30.703 9.04062 30.8041 9.04612 30.9019 9.05687C31.2413 9.09415 31.541 9.19449 31.7973 9.34657C32.084 9.51669 32.3164 9.75154 32.4892 10.0353C32.5258 10.0953 32.5596 10.1574 32.5908 10.2216C32.6196 10.2811 32.6462 10.3424 32.6704 10.4053L34.4768 9.52077C34.4606 9.47735 34.4438 9.43439 34.4262 9.3919C34.42 9.37673 34.4136 9.36162 34.4072 9.34657C34.3322 9.17137 34.2451 9.00432 34.1465 8.84633C33.8993 8.44983 33.58 8.11035 33.1993 7.842C33.0996 7.77179 32.9958 7.70645 32.8879 7.64623C32.384 7.36488 31.7923 7.19536 31.132 7.16344C31.0562 7.15977 30.9795 7.15792 30.9019 7.15792C30.8001 7.15792 30.699 7.16086 30.5987 7.16666C30.2588 7.1863 29.928 7.23875 29.6092 7.32068C29.4452 7.36282 29.2844 7.41275 29.127 7.47003C27.4029 8.09773 26.1008 9.60752 25.7047 11.4038C25.7035 11.409 25.7024 11.4141 25.7013 11.4192C25.6806 11.5143 25.6625 11.6102 25.647 11.7067C25.6026 11.9829 25.5835 12.2532 25.588 12.5157C25.6018 13.3218 25.8384 14.0538 26.2491 14.6522C26.3879 14.8543 26.5465 15.0412 26.7232 15.2106C27.4041 15.8633 28.3526 16.2555 29.4618 16.2555C29.5552 16.2555 29.6478 16.2535 29.7397 16.2494C30.6165 16.2109 31.4249 15.9891 32.1214 15.5977C32.2871 15.5046 32.4465 15.4018 32.5989 15.2897C33.0346 14.9691 33.4139 14.5716 33.7228 14.1013C33.8497 13.9082 33.9647 13.7029 34.0669 13.4856C34.0798 13.4581 34.0925 13.4304 34.105 13.4026C34.1111 13.3891 34.1171 13.3755 34.1231 13.362L34.2115 12.7807H34.2241L34.4262 11.4161ZM31.4833 3.06953L32.804 3.76419L31.4833 6.12604L30.165 5.67958L31.4833 3.06953ZM16.7041 24.7898H18.8263L20.9485 33.6346H18.9905L18.6495 32.1816H14.7335L13.9503 33.6346H11.8281L16.7041 24.7898ZM12.1184 29.5131C11.9411 30.3249 11.5923 31.0781 11.1027 31.718C11.0993 31.7224 11.0959 31.7269 11.0925 31.7313C10.814 32.093 10.4903 32.4182 10.1271 32.6969C10.0568 32.7509 9.98493 32.8031 9.91166 32.8535C9.73204 32.9771 9.54375 33.0898 9.3474 33.1905C8.71965 33.5125 8.0095 33.712 7.23658 33.7541C7.17799 33.7573 7.11904 33.7596 7.05973 33.761C7.11814 33.7733 7.17709 33.7849 7.23658 33.7958C7.46907 33.8386 7.70979 33.871 7.95874 33.8941C8.35781 33.931 8.77802 33.9437 9.21937 33.9358C9.40189 33.9325 9.58802 33.9257 9.77776 33.9156C10.2213 33.892 10.6846 33.8505 11.1676 33.7944C11.2255 33.7877 11.2836 33.7808 11.342 33.7736L11.0641 35.4921C11.0069 35.4886 10.9498 35.4848 10.8928 35.4808C10.4576 35.4498 10.0309 35.4026 9.61538 35.3388C8.70847 35.1996 7.85479 34.9817 7.08108 34.683C7.01421 34.6571 6.94793 34.6307 6.88228 34.6037C6.17839 34.3139 5.54516 33.9545 5.00384 33.5237C4.69016 33.2741 4.40735 33.0006 4.15954 32.7027C4.07354 32.5993 3.99175 32.493 3.91435 32.3837C3.24485 31.5624 2.94168 30.4505 3.14379 29.2122C3.15921 29.1163 3.17719 29.0211 3.19765 28.9266C3.19876 28.9215 3.19987 28.9164 3.20099 28.9113C3.70191 26.6315 5.6524 24.8127 8.08293 24.6722C8.18319 24.6664 8.28427 24.6634 8.3861 24.6634C10.5606 24.6634 12.2747 26.3872 12.228 28.6225C12.224 28.8155 12.2068 29.0124 12.1757 29.2122C12.1601 29.3081 12.142 29.4033 12.1217 29.4978C12.1206 29.5029 12.1195 29.508 12.1184 29.5131ZM10.3132 28.9221C10.3134 28.9175 10.3137 28.9129 10.3139 28.9083C10.3786 27.684 9.59144 26.7044 8.3861 26.5635C8.28775 26.552 8.18661 26.5461 8.08293 26.5461C6.60498 26.5461 5.26598 27.7465 5.0386 29.2122C5.02204 29.3134 5.01119 29.4132 5.00583 29.5115C5.00575 29.5131 5.00567 29.5146 5.00559 29.5161C4.97324 30.1288 5.15422 30.6802 5.49418 31.0959C5.52339 31.1316 5.55377 31.1663 5.58529 31.2C5.61904 31.236 5.65409 31.2709 5.6904 31.3045C5.91476 31.5119 6.18735 31.6712 6.49818 31.7688C6.66077 31.8198 6.83383 31.8539 7.01593 31.8692C7.08809 31.8752 7.16167 31.8783 7.23658 31.8783C7.31081 31.8783 7.38468 31.8753 7.45809 31.8693C7.60032 31.8578 7.74078 31.8354 7.87856 31.8029C9.08545 31.5183 10.0871 30.4617 10.2809 29.2122C10.297 29.1142 10.3076 29.0175 10.3132 28.9221ZM13.7147 25.9257C12.7674 23.9443 10.7607 22.5939 8.3861 22.5939C4.61703 22.5939 1.65514 25.4413 1.10091 28.8812C0.815901 30.6311 1.22606 32.3272 2.26513 33.6352C4.16128 36.2598 7.60663 37.3546 10.9381 37.5577C11.9996 37.6225 12.9373 36.8722 13.1071 35.8225L13.1262 35.7042H13.9503C14.7114 35.7042 15.411 35.2865 15.7721 34.6165L15.9691 34.2511H17.0149C17.2824 35.1098 18.0797 35.7042 18.9905 35.7042H20.9485C21.0599 35.7042 21.1701 35.6952 21.2784 35.6777C21.3867 35.6952 21.497 35.7042 21.6083 35.7042H28.2781C28.3775 35.7042 28.4755 35.6971 28.5716 35.6834C28.6677 35.6971 28.7654 35.7042 28.8642 35.7042H30.9864C31.7474 35.7042 32.447 35.2865 32.8081 34.6165L33.0051 34.2511H34.0509C34.3184 35.1098 35.1157 35.7042 36.0266 35.7042H37.9845C38.5041 35.7042 39.0001 35.509 39.3782 35.1645C41.3248 36.7021 43.9852 37.3997 46.5768 37.5577C47.6383 37.6225 48.576 36.8722 48.7458 35.8225L48.8409 35.2347C49.5913 35.6159 50.4568 35.829 51.3842 35.8429L51.39 35.843C52.7566 35.8598 54.0853 35.5305 55.1627 34.7618C55.4645 34.5465 55.7376 34.3026 55.9793 34.0337C56.0473 34.3797 56.2034 34.7066 56.4379 34.9805C56.8311 35.4398 57.4054 35.7042 58.01 35.7042H59.8669C60.3308 35.7042 60.7632 35.5505 61.1117 35.288C61.4649 35.5539 61.9001 35.7042 62.3564 35.7042H64.4786C65.2397 35.7042 65.9393 35.2865 66.3004 34.6165L66.4973 34.2511H67.5432C67.8106 35.1098 68.6079 35.7042 69.5188 35.7042H71.4768C71.6625 35.7042 71.8452 35.6792 72.0206 35.6315C72.1961 35.6793 72.3788 35.7042 72.5643 35.7042H74.4339C75.3369 35.7042 76.121 35.1216 76.3977 34.2881L76.5445 34.5757C76.8981 35.2683 77.6101 35.7042 78.3877 35.7042H80.3962C80.6933 35.7042 80.9776 35.6411 81.2351 35.5268C81.6521 35.737 82.1143 35.8432 82.581 35.8432C84.1333 35.8432 85.5682 34.6795 85.8144 33.0614C85.8149 33.0575 85.8155 33.0536 85.8161 33.0497C85.8719 32.6682 85.8529 32.2977 85.7713 31.9509C85.8908 31.7403 85.9747 31.5056 86.0145 31.2544L86.9872 25.1135C87.0819 24.5156 86.91 23.9061 86.5168 23.4457C86.1237 22.9854 85.5486 22.7202 84.9432 22.7202H83.0736C82.8495 22.7202 82.6327 22.7561 82.4292 22.8228C82.2237 22.7556 82.0067 22.7202 81.7857 22.7202H79.9035C79.0004 22.7202 78.2166 23.3029 77.9398 24.1359L77.7921 23.8472C77.4383 23.1555 76.7267 22.7202 75.9497 22.7202H73.9539C72.9349 22.7202 72.0675 23.462 71.9094 24.4686L71.7101 25.737L71.367 24.3069C71.1437 23.3764 70.3116 22.7202 69.3546 22.7202H67.2324C66.6303 22.7202 66.0663 22.9817 65.6781 23.4233C65.2855 22.9767 64.7194 22.7202 64.1239 22.7202H56.5194C56.0216 22.7202 55.5601 22.8973 55.1997 23.1956C54.4471 22.8 53.581 22.5887 52.6831 22.5813L52.6766 22.5813C52.673 22.5813 52.6695 22.5813 52.6659 22.5813C50.9912 22.5813 49.3686 23.2099 48.2886 24.3888C47.2205 23.2788 45.7159 22.5939 44.0248 22.5939C41.595 22.5939 39.5007 23.7773 38.1706 25.5399L37.8747 24.3069C37.6515 23.3764 36.8193 22.7202 35.8623 22.7202H33.7401C32.9861 22.7202 32.2918 23.1303 31.9278 23.7907L31.5392 24.4955C31.4841 24.1115 31.3214 23.7465 31.0641 23.4453C30.6709 22.9852 30.096 22.7202 29.4907 22.7202H22.9979C21.9737 22.7202 21.1036 23.4693 20.9513 24.4821L20.9241 24.6629L20.8387 24.3069C20.6154 23.3764 19.7833 22.7202 18.8263 22.7202H16.7041C15.9501 22.7202 15.2558 23.1303 14.8917 23.7907L13.7147 25.9257ZM21.8736 31.9541L21.6083 33.6346H28.2781L28.5307 31.9541H24.3747L29.2255 26.4703L29.4907 24.7898H22.9979L22.7452 26.4703H26.7243L21.8736 31.9541ZM39.7983 32.7027C39.8393 32.752 39.8813 32.8006 39.9242 32.8486C40.1405 33.0905 40.3808 33.3155 40.6426 33.5237C41.1839 33.9545 41.8171 34.3139 42.521 34.6037C42.5867 34.6307 42.6529 34.6571 42.7198 34.683C43.4935 34.9817 44.3472 35.1996 45.2541 35.3388C45.724 35.4109 46.2081 35.4619 46.7028 35.4921L46.9807 33.7736C46.9223 33.7808 46.8642 33.7877 46.8064 33.7944C46.1167 33.8746 45.4672 33.9248 44.8581 33.9358C44.4167 33.9437 43.9965 33.931 43.5975 33.8941C43.3485 33.871 43.1078 33.8386 42.8753 33.7958C42.8158 33.7849 42.7569 33.7733 42.6985 33.761C42.7578 33.7596 42.8167 33.7573 42.8753 33.7541C43.6482 33.712 44.3584 33.5125 44.9861 33.1905C45.4902 32.932 45.9411 32.5945 46.3287 32.1961C46.4305 32.0915 46.5279 31.9827 46.6207 31.87C46.6583 31.8244 46.6951 31.7782 46.7312 31.7313C46.7346 31.7269 46.7381 31.7224 46.7415 31.718C47.149 31.1854 47.4589 30.5743 47.6536 29.9162C47.6928 29.7837 47.7274 29.6492 47.7571 29.5131C47.7574 29.5119 47.7576 29.5106 47.7579 29.5094C47.7587 29.5055 47.7596 29.5016 47.7604 29.4978C47.7615 29.4929 47.7625 29.4881 47.7635 29.4832C47.7826 29.3935 47.7996 29.3032 47.8144 29.2122C47.9318 28.4589 47.8507 27.7486 47.616 27.1232C47.6155 27.1221 47.6151 27.1209 47.6146 27.1197C47.5073 26.8346 47.368 26.5671 47.201 26.3212C46.513 25.3085 45.3551 24.6634 44.0248 24.6634C43.923 24.6634 43.8219 24.6664 43.7217 24.6722C41.3937 24.8068 39.5062 26.4809 38.9108 28.6251C38.8846 28.7196 38.8609 28.8151 38.8397 28.9113C38.8386 28.9164 38.8375 28.9215 38.8364 28.9266C38.8159 29.0211 38.7979 29.1163 38.7825 29.2122C38.5804 30.4505 38.8836 31.5624 39.5531 32.3837C39.6305 32.493 39.7123 32.5993 39.7983 32.7027ZM35.8623 24.7898H33.7401L28.8642 33.6346H30.9864L31.7695 32.1816H35.6855L36.0266 33.6346H37.9845L35.8623 24.7898ZM34.5107 27.0389L32.6412 30.4884H35.3444L34.5107 27.0389ZM40.6773 29.2122C40.6608 29.3134 40.6499 29.4132 40.6446 29.5115C40.6445 29.5131 40.6444 29.5146 40.6443 29.5161C40.612 30.1288 40.7929 30.6802 41.1329 31.0959C41.1621 31.1316 41.1925 31.1663 41.224 31.2C41.2578 31.236 41.2928 31.2709 41.3291 31.3044C41.5535 31.5119 41.8261 31.6712 42.1369 31.7688C42.2995 31.8198 42.4726 31.8539 42.6547 31.8692C42.7268 31.8752 42.8004 31.8783 42.8753 31.8783C42.9495 31.8783 43.0234 31.8753 43.0968 31.8693C43.239 31.8578 43.3795 31.8354 43.5173 31.8029C44.7242 31.5183 45.7258 30.4617 45.9196 29.2122C45.9357 29.1142 45.9464 29.0175 45.9519 28.9221C45.9521 28.9175 45.9524 28.9129 45.9526 28.9083C46.0173 27.684 45.2302 26.7044 44.0248 26.5635C43.9265 26.552 43.8253 26.5461 43.7217 26.5461C42.2437 26.5461 40.9047 27.7465 40.6773 29.2122ZM48.2826 31.4866C48.2846 31.4951 48.2866 31.5035 48.2886 31.5119C48.3018 31.5669 48.3164 31.6213 48.3326 31.6749C48.421 31.9687 48.5534 32.2418 48.726 32.4872C48.9479 32.8028 49.2361 33.0728 49.5826 33.2828C50.0811 33.585 50.7002 33.7629 51.4154 33.7736C51.5007 33.7747 51.5849 33.7739 51.668 33.7714C53.5063 33.7156 54.7947 32.7933 55.1053 31.3256C55.1066 31.3192 55.108 31.3128 55.1093 31.3064C55.1218 31.2453 55.1327 31.1832 55.1418 31.1202C55.1761 30.8799 55.1735 30.6568 55.1384 30.4504C55.112 30.2951 55.0672 30.1492 55.006 30.0127C54.879 29.7298 54.6813 29.4871 54.43 29.2832C54.3896 29.2504 54.3478 29.2186 54.3047 29.1878C54.0944 29.0377 53.8528 28.9112 53.5881 28.8079C53.2623 28.6547 52.8731 28.5553 52.4966 28.4591C52.3134 28.4123 52.1331 28.3662 51.9647 28.3152C51.583 28.1994 51.262 28.0577 51.1039 27.8224C51.1 27.8166 51.0962 27.8108 51.0925 27.8049C51.0596 27.7522 51.0346 27.695 51.0187 27.6325C51.0183 27.631 51.018 27.6295 51.0176 27.628C50.995 27.5364 50.9917 27.4334 51.0111 27.3169C51.099 26.7771 51.6356 26.2997 52.4353 26.2935C52.4372 26.2934 52.4392 26.2934 52.4411 26.2934C52.4445 26.2934 52.4478 26.2934 52.4512 26.2934C52.521 26.2934 52.588 26.2968 52.6523 26.3036C52.6569 26.3041 52.6614 26.3046 52.6659 26.3051C52.9087 26.3325 53.112 26.4075 53.2775 26.5235C53.4936 26.6748 53.6452 26.8958 53.7362 27.1712C53.7369 27.1731 53.7375 27.1751 53.7382 27.177C53.7529 27.2222 53.766 27.2689 53.7776 27.3169L55.5713 26.8115C55.5428 26.666 55.5032 26.5261 55.4532 26.3922C55.4522 26.3895 55.4512 26.3868 55.4501 26.3841C55.2468 25.8455 54.8744 25.4057 54.3769 25.1039C54.3364 25.0793 54.295 25.0556 54.2528 25.0329C53.8053 24.7916 53.2668 24.6557 52.6659 24.6508C52.5937 24.6508 52.5221 24.6523 52.4512 24.6554C51.1315 24.713 50.0552 25.3017 49.4891 26.2316C49.3444 26.4693 49.2331 26.7292 49.1595 27.0083C49.1589 27.0106 49.1583 27.0129 49.1577 27.0152C49.1299 27.1215 49.1076 27.2305 49.0911 27.3421C48.9888 28.0208 49.208 28.5968 49.5472 29.0098C49.5777 29.047 49.6092 29.0828 49.6415 29.1173C49.719 29.1999 49.8012 29.2747 49.8861 29.3411C49.9072 29.3576 49.9286 29.3736 49.9501 29.3891C50.4095 29.7275 51.0284 29.8943 51.5977 30.042C51.615 30.0464 51.6323 30.0509 51.6495 30.0554C51.6557 30.057 51.6618 30.0586 51.668 30.0602C51.7565 30.0831 51.8435 30.1057 51.9283 30.1286C51.9635 30.1381 51.9983 30.1476 52.0327 30.1572C52.3402 30.2434 52.6124 30.3366 52.8083 30.4669C52.8451 30.4914 52.8791 30.5171 52.9102 30.5444C52.9967 30.6201 53.0603 30.7074 53.0952 30.8105C53.0967 30.815 53.0982 30.8195 53.0996 30.8241C53.1001 30.8256 53.1006 30.8272 53.1011 30.8287C53.1062 30.8457 53.1105 30.863 53.1141 30.8808C53.1271 30.946 53.1297 31.0171 53.1207 31.0949C53.0575 31.6888 52.4891 32.0678 51.668 32.0678C51.6119 32.0678 51.5571 32.0657 51.5036 32.0615C51.4826 32.0599 51.4618 32.0579 51.4412 32.0557C51.4396 32.0555 51.4381 32.0553 51.4365 32.0552C50.7801 31.9814 50.3317 31.5924 50.1577 31.054C50.1513 31.0341 50.1452 31.0141 50.1395 30.9938L48.2826 31.4866ZM59.1216 26.5082L58.01 33.6346H59.8669L60.9912 26.5082H63.8587L64.1239 24.7898H56.5194L56.2541 26.5082H59.1216ZM69.3546 24.7898H67.2324L62.3564 33.6346H64.4786L65.2618 32.1816H69.1777L69.5188 33.6346H71.4768L69.3546 24.7898ZM68.003 27.0389L66.1334 30.4884H68.8367L68.003 27.0389ZM78.3877 33.6346H80.3962L81.7857 24.7898H79.9035L78.9814 30.7158L75.9497 24.7898H73.9539L72.5643 33.6346H74.4339L75.3686 27.7212L78.3877 33.6346ZM82.0883 30.9306L83.0736 24.7898H84.9432L83.9705 30.9306H82.0883ZM18.3084 30.4884H15.6051L17.4747 27.0389L18.3084 30.4884Z"/>
</mask>
<path fill-rule="evenodd" clip-rule="evenodd" d="M6.28601 17.1816C5.91372 16.5512 5.90215 15.7711 6.25558 15.13L11.1316 6.28516C11.4956 5.62484 12.1899 5.21475 12.9439 5.21475H15.0661C16.0231 5.21475 16.8553 5.87087 17.0785 6.80143L17.4217 8.23153L17.6209 6.9631C17.7791 5.95648 18.6464 5.21475 19.6654 5.21475H21.5223C22.1275 5.21475 22.7024 5.47967 23.0956 5.93975C23.4887 6.39983 23.6608 7.00896 23.5665 7.60677L22.8196 12.3412H23.5188C23.5236 12.0234 23.5517 11.7016 23.6037 11.3782C24.0104 8.84795 25.7242 6.64338 28.0957 5.64963C28.1001 5.33914 28.1745 5.03008 28.3177 4.74654L29.636 2.13649C29.8861 1.64128 30.3246 1.26723 30.8531 1.09829C31.3815 0.929346 31.9557 0.979654 32.4467 1.23792L33.7674 1.93258C34.2613 2.19238 34.6293 2.64063 34.788 3.17566C34.9467 3.71069 34.8826 4.28713 34.6103 4.77422L33.9861 5.8905C34.9031 6.42391 35.6478 7.20464 36.143 8.17573L37.1852 6.28516C37.5492 5.62484 38.2436 5.21475 38.9976 5.21475H41.1198C42.0767 5.21475 42.9089 5.87087 43.1322 6.80143L44.6857 13.2762H45.6882C46.3774 13.2762 47.0214 13.6193 47.4058 14.1913C47.7903 14.7632 47.8648 15.489 47.6046 16.1272L46.4298 19.0081C46.1121 19.787 45.3546 20.2962 44.5134 20.2962H42.9597C42.2831 20.2962 41.6492 19.9654 41.2622 19.4104C41.0039 19.0401 40.8773 18.601 40.8912 18.1612C40.1503 18.0183 39.5365 17.4782 39.3083 16.7456H38.2625L38.0655 17.111C37.7045 17.781 37.0048 18.1987 36.2438 18.1987H34.1216C33.5832 18.1987 33.0742 17.9895 32.6945 17.628C31.7105 18.0897 30.6085 18.325 29.4618 18.325C28.232 18.325 27.0873 17.9885 26.1337 17.3713C25.7532 17.8778 25.1484 18.1987 24.4782 18.1987H18.2758C18.0903 18.1987 17.9076 18.1738 17.7321 18.126C17.5567 18.1737 17.374 18.1987 17.1883 18.1987H15.2303C14.3195 18.1987 13.5222 17.6044 13.2547 16.7456H12.2089L12.0119 17.111C11.6508 17.781 10.9512 18.1987 10.1901 18.1987H8.06795C7.33588 18.1987 6.65829 17.8119 6.28601 17.1816ZM15.0661 7.28428H12.9439L8.06795 16.1292H10.1901L10.9733 14.6761H14.8893L15.2303 16.1292H17.1883L15.0661 7.28428ZM13.7145 9.5334L11.8449 12.9829H14.5482L13.7145 9.5334ZM24.4782 16.1292L24.7561 14.4107H20.398L21.5223 7.28428H19.6654L18.2758 16.1292H24.4782ZM41.1198 7.28428H38.9976L34.1216 16.1292H36.2438L37.027 14.6761H40.9429L41.284 16.1292H43.2419L41.1198 7.28428ZM37.8986 12.9829H40.6018L39.7681 9.5334L37.8986 12.9829ZM42.9597 18.2266H44.5134L45.6882 15.3457H44.0208L42.9597 18.2266ZM34.4262 11.4161H30.624L30.4092 12.7807H32.2788L32.2283 13.1345C32.1458 13.262 32.0569 13.3789 31.9618 13.4856C31.5544 13.9427 31.0325 14.2118 30.4092 14.3188C30.1976 14.3551 29.9743 14.3728 29.7397 14.3728C29.6449 14.3728 29.5522 14.3679 29.4618 14.3582C29.2801 14.3388 29.1079 14.3004 28.9467 14.2449C28.0265 13.9285 27.4637 13.058 27.5213 12.008C27.5268 11.9091 27.5377 11.8085 27.5544 11.7067C27.7818 10.241 29.1081 9.04062 30.5987 9.04062C30.703 9.04062 30.8041 9.04612 30.9019 9.05687C31.2413 9.09415 31.541 9.19449 31.7973 9.34657C32.084 9.51669 32.3164 9.75154 32.4892 10.0353C32.5258 10.0953 32.5596 10.1574 32.5908 10.2216C32.6196 10.2811 32.6462 10.3424 32.6704 10.4053L34.4768 9.52077C34.4606 9.47735 34.4438 9.43439 34.4262 9.3919C34.42 9.37673 34.4136 9.36162 34.4072 9.34657C34.3322 9.17137 34.2451 9.00432 34.1465 8.84633C33.8993 8.44983 33.58 8.11035 33.1993 7.842C33.0996 7.77179 32.9958 7.70645 32.8879 7.64623C32.384 7.36488 31.7923 7.19536 31.132 7.16344C31.0562 7.15977 30.9795 7.15792 30.9019 7.15792C30.8001 7.15792 30.699 7.16086 30.5987 7.16666C30.2588 7.1863 29.928 7.23875 29.6092 7.32068C29.4452 7.36282 29.2844 7.41275 29.127 7.47003C27.4029 8.09773 26.1008 9.60752 25.7047 11.4038C25.7035 11.409 25.7024 11.4141 25.7013 11.4192C25.6806 11.5143 25.6625 11.6102 25.647 11.7067C25.6026 11.9829 25.5835 12.2532 25.588 12.5157C25.6018 13.3218 25.8384 14.0538 26.2491 14.6522C26.3879 14.8543 26.5465 15.0412 26.7232 15.2106C27.4041 15.8633 28.3526 16.2555 29.4618 16.2555C29.5552 16.2555 29.6478 16.2535 29.7397 16.2494C30.6165 16.2109 31.4249 15.9891 32.1214 15.5977C32.2871 15.5046 32.4465 15.4018 32.5989 15.2897C33.0346 14.9691 33.4139 14.5716 33.7228 14.1013C33.8497 13.9082 33.9647 13.7029 34.0669 13.4856C34.0798 13.4581 34.0925 13.4304 34.105 13.4026C34.1111 13.3891 34.1171 13.3755 34.1231 13.362L34.2115 12.7807H34.2241L34.4262 11.4161ZM31.4833 3.06953L32.804 3.76419L31.4833 6.12604L30.165 5.67958L31.4833 3.06953ZM16.7041 24.7898H18.8263L20.9485 33.6346H18.9905L18.6495 32.1816H14.7335L13.9503 33.6346H11.8281L16.7041 24.7898ZM12.1184 29.5131C11.9411 30.3249 11.5923 31.0781 11.1027 31.718C11.0993 31.7224 11.0959 31.7269 11.0925 31.7313C10.814 32.093 10.4903 32.4182 10.1271 32.6969C10.0568 32.7509 9.98493 32.8031 9.91166 32.8535C9.73204 32.9771 9.54375 33.0898 9.3474 33.1905C8.71965 33.5125 8.0095 33.712 7.23658 33.7541C7.17799 33.7573 7.11904 33.7596 7.05973 33.761C7.11814 33.7733 7.17709 33.7849 7.23658 33.7958C7.46907 33.8386 7.70979 33.871 7.95874 33.8941C8.35781 33.931 8.77802 33.9437 9.21937 33.9358C9.40189 33.9325 9.58802 33.9257 9.77776 33.9156C10.2213 33.892 10.6846 33.8505 11.1676 33.7944C11.2255 33.7877 11.2836 33.7808 11.342 33.7736L11.0641 35.4921C11.0069 35.4886 10.9498 35.4848 10.8928 35.4808C10.4576 35.4498 10.0309 35.4026 9.61538 35.3388C8.70847 35.1996 7.85479 34.9817 7.08108 34.683C7.01421 34.6571 6.94793 34.6307 6.88228 34.6037C6.17839 34.3139 5.54516 33.9545 5.00384 33.5237C4.69016 33.2741 4.40735 33.0006 4.15954 32.7027C4.07354 32.5993 3.99175 32.493 3.91435 32.3837C3.24485 31.5624 2.94168 30.4505 3.14379 29.2122C3.15921 29.1163 3.17719 29.0211 3.19765 28.9266C3.19876 28.9215 3.19987 28.9164 3.20099 28.9113C3.70191 26.6315 5.6524 24.8127 8.08293 24.6722C8.18319 24.6664 8.28427 24.6634 8.3861 24.6634C10.5606 24.6634 12.2747 26.3872 12.228 28.6225C12.224 28.8155 12.2068 29.0124 12.1757 29.2122C12.1601 29.3081 12.142 29.4033 12.1217 29.4978C12.1206 29.5029 12.1195 29.508 12.1184 29.5131ZM10.3132 28.9221C10.3134 28.9175 10.3137 28.9129 10.3139 28.9083C10.3786 27.684 9.59144 26.7044 8.3861 26.5635C8.28775 26.552 8.18661 26.5461 8.08293 26.5461C6.60498 26.5461 5.26598 27.7465 5.0386 29.2122C5.02204 29.3134 5.01119 29.4132 5.00583 29.5115C5.00575 29.5131 5.00567 29.5146 5.00559 29.5161C4.97324 30.1288 5.15422 30.6802 5.49418 31.0959C5.52339 31.1316 5.55377 31.1663 5.58529 31.2C5.61904 31.236 5.65409 31.2709 5.6904 31.3045C5.91476 31.5119 6.18735 31.6712 6.49818 31.7688C6.66077 31.8198 6.83383 31.8539 7.01593 31.8692C7.08809 31.8752 7.16167 31.8783 7.23658 31.8783C7.31081 31.8783 7.38468 31.8753 7.45809 31.8693C7.60032 31.8578 7.74078 31.8354 7.87856 31.8029C9.08545 31.5183 10.0871 30.4617 10.2809 29.2122C10.297 29.1142 10.3076 29.0175 10.3132 28.9221ZM13.7147 25.9257C12.7674 23.9443 10.7607 22.5939 8.3861 22.5939C4.61703 22.5939 1.65514 25.4413 1.10091 28.8812C0.815901 30.6311 1.22606 32.3272 2.26513 33.6352C4.16128 36.2598 7.60663 37.3546 10.9381 37.5577C11.9996 37.6225 12.9373 36.8722 13.1071 35.8225L13.1262 35.7042H13.9503C14.7114 35.7042 15.411 35.2865 15.7721 34.6165L15.9691 34.2511H17.0149C17.2824 35.1098 18.0797 35.7042 18.9905 35.7042H20.9485C21.0599 35.7042 21.1701 35.6952 21.2784 35.6777C21.3867 35.6952 21.497 35.7042 21.6083 35.7042H28.2781C28.3775 35.7042 28.4755 35.6971 28.5716 35.6834C28.6677 35.6971 28.7654 35.7042 28.8642 35.7042H30.9864C31.7474 35.7042 32.447 35.2865 32.8081 34.6165L33.0051 34.2511H34.0509C34.3184 35.1098 35.1157 35.7042 36.0266 35.7042H37.9845C38.5041 35.7042 39.0001 35.509 39.3782 35.1645C41.3248 36.7021 43.9852 37.3997 46.5768 37.5577C47.6383 37.6225 48.576 36.8722 48.7458 35.8225L48.8409 35.2347C49.5913 35.6159 50.4568 35.829 51.3842 35.8429L51.39 35.843C52.7566 35.8598 54.0853 35.5305 55.1627 34.7618C55.4645 34.5465 55.7376 34.3026 55.9793 34.0337C56.0473 34.3797 56.2034 34.7066 56.4379 34.9805C56.8311 35.4398 57.4054 35.7042 58.01 35.7042H59.8669C60.3308 35.7042 60.7632 35.5505 61.1117 35.288C61.4649 35.5539 61.9001 35.7042 62.3564 35.7042H64.4786C65.2397 35.7042 65.9393 35.2865 66.3004 34.6165L66.4973 34.2511H67.5432C67.8106 35.1098 68.6079 35.7042 69.5188 35.7042H71.4768C71.6625 35.7042 71.8452 35.6792 72.0206 35.6315C72.1961 35.6793 72.3788 35.7042 72.5643 35.7042H74.4339C75.3369 35.7042 76.121 35.1216 76.3977 34.2881L76.5445 34.5757C76.8981 35.2683 77.6101 35.7042 78.3877 35.7042H80.3962C80.6933 35.7042 80.9776 35.6411 81.2351 35.5268C81.6521 35.737 82.1143 35.8432 82.581 35.8432C84.1333 35.8432 85.5682 34.6795 85.8144 33.0614C85.8149 33.0575 85.8155 33.0536 85.8161 33.0497C85.8719 32.6682 85.8529 32.2977 85.7713 31.9509C85.8908 31.7403 85.9747 31.5056 86.0145 31.2544L86.9872 25.1135C87.0819 24.5156 86.91 23.9061 86.5168 23.4457C86.1237 22.9854 85.5486 22.7202 84.9432 22.7202H83.0736C82.8495 22.7202 82.6327 22.7561 82.4292 22.8228C82.2237 22.7556 82.0067 22.7202 81.7857 22.7202H79.9035C79.0004 22.7202 78.2166 23.3029 77.9398 24.1359L77.7921 23.8472C77.4383 23.1555 76.7267 22.7202 75.9497 22.7202H73.9539C72.9349 22.7202 72.0675 23.462 71.9094 24.4686L71.7101 25.737L71.367 24.3069C71.1437 23.3764 70.3116 22.7202 69.3546 22.7202H67.2324C66.6303 22.7202 66.0663 22.9817 65.6781 23.4233C65.2855 22.9767 64.7194 22.7202 64.1239 22.7202H56.5194C56.0216 22.7202 55.5601 22.8973 55.1997 23.1956C54.4471 22.8 53.581 22.5887 52.6831 22.5813L52.6766 22.5813C52.673 22.5813 52.6695 22.5813 52.6659 22.5813C50.9912 22.5813 49.3686 23.2099 48.2886 24.3888C47.2205 23.2788 45.7159 22.5939 44.0248 22.5939C41.595 22.5939 39.5007 23.7773 38.1706 25.5399L37.8747 24.3069C37.6515 23.3764 36.8193 22.7202 35.8623 22.7202H33.7401C32.9861 22.7202 32.2918 23.1303 31.9278 23.7907L31.5392 24.4955C31.4841 24.1115 31.3214 23.7465 31.0641 23.4453C30.6709 22.9852 30.096 22.7202 29.4907 22.7202H22.9979C21.9737 22.7202 21.1036 23.4693 20.9513 24.4821L20.9241 24.6629L20.8387 24.3069C20.6154 23.3764 19.7833 22.7202 18.8263 22.7202H16.7041C15.9501 22.7202 15.2558 23.1303 14.8917 23.7907L13.7147 25.9257ZM21.8736 31.9541L21.6083 33.6346H28.2781L28.5307 31.9541H24.3747L29.2255 26.4703L29.4907 24.7898H22.9979L22.7452 26.4703H26.7243L21.8736 31.9541ZM39.7983 32.7027C39.8393 32.752 39.8813 32.8006 39.9242 32.8486C40.1405 33.0905 40.3808 33.3155 40.6426 33.5237C41.1839 33.9545 41.8171 34.3139 42.521 34.6037C42.5867 34.6307 42.6529 34.6571 42.7198 34.683C43.4935 34.9817 44.3472 35.1996 45.2541 35.3388C45.724 35.4109 46.2081 35.4619 46.7028 35.4921L46.9807 33.7736C46.9223 33.7808 46.8642 33.7877 46.8064 33.7944C46.1167 33.8746 45.4672 33.9248 44.8581 33.9358C44.4167 33.9437 43.9965 33.931 43.5975 33.8941C43.3485 33.871 43.1078 33.8386 42.8753 33.7958C42.8158 33.7849 42.7569 33.7733 42.6985 33.761C42.7578 33.7596 42.8167 33.7573 42.8753 33.7541C43.6482 33.712 44.3584 33.5125 44.9861 33.1905C45.4902 32.932 45.9411 32.5945 46.3287 32.1961C46.4305 32.0915 46.5279 31.9827 46.6207 31.87C46.6583 31.8244 46.6951 31.7782 46.7312 31.7313C46.7346 31.7269 46.7381 31.7224 46.7415 31.718C47.149 31.1854 47.4589 30.5743 47.6536 29.9162C47.6928 29.7837 47.7274 29.6492 47.7571 29.5131C47.7574 29.5119 47.7576 29.5106 47.7579 29.5094C47.7587 29.5055 47.7596 29.5016 47.7604 29.4978C47.7615 29.4929 47.7625 29.4881 47.7635 29.4832C47.7826 29.3935 47.7996 29.3032 47.8144 29.2122C47.9318 28.4589 47.8507 27.7486 47.616 27.1232C47.6155 27.1221 47.6151 27.1209 47.6146 27.1197C47.5073 26.8346 47.368 26.5671 47.201 26.3212C46.513 25.3085 45.3551 24.6634 44.0248 24.6634C43.923 24.6634 43.8219 24.6664 43.7217 24.6722C41.3937 24.8068 39.5062 26.4809 38.9108 28.6251C38.8846 28.7196 38.8609 28.8151 38.8397 28.9113C38.8386 28.9164 38.8375 28.9215 38.8364 28.9266C38.8159 29.0211 38.7979 29.1163 38.7825 29.2122C38.5804 30.4505 38.8836 31.5624 39.5531 32.3837C39.6305 32.493 39.7123 32.5993 39.7983 32.7027ZM35.8623 24.7898H33.7401L28.8642 33.6346H30.9864L31.7695 32.1816H35.6855L36.0266 33.6346H37.9845L35.8623 24.7898ZM34.5107 27.0389L32.6412 30.4884H35.3444L34.5107 27.0389ZM40.6773 29.2122C40.6608 29.3134 40.6499 29.4132 40.6446 29.5115C40.6445 29.5131 40.6444 29.5146 40.6443 29.5161C40.612 30.1288 40.7929 30.6802 41.1329 31.0959C41.1621 31.1316 41.1925 31.1663 41.224 31.2C41.2578 31.236 41.2928 31.2709 41.3291 31.3044C41.5535 31.5119 41.8261 31.6712 42.1369 31.7688C42.2995 31.8198 42.4726 31.8539 42.6547 31.8692C42.7268 31.8752 42.8004 31.8783 42.8753 31.8783C42.9495 31.8783 43.0234 31.8753 43.0968 31.8693C43.239 31.8578 43.3795 31.8354 43.5173 31.8029C44.7242 31.5183 45.7258 30.4617 45.9196 29.2122C45.9357 29.1142 45.9464 29.0175 45.9519 28.9221C45.9521 28.9175 45.9524 28.9129 45.9526 28.9083C46.0173 27.684 45.2302 26.7044 44.0248 26.5635C43.9265 26.552 43.8253 26.5461 43.7217 26.5461C42.2437 26.5461 40.9047 27.7465 40.6773 29.2122ZM48.2826 31.4866C48.2846 31.4951 48.2866 31.5035 48.2886 31.5119C48.3018 31.5669 48.3164 31.6213 48.3326 31.6749C48.421 31.9687 48.5534 32.2418 48.726 32.4872C48.9479 32.8028 49.2361 33.0728 49.5826 33.2828C50.0811 33.585 50.7002 33.7629 51.4154 33.7736C51.5007 33.7747 51.5849 33.7739 51.668 33.7714C53.5063 33.7156 54.7947 32.7933 55.1053 31.3256C55.1066 31.3192 55.108 31.3128 55.1093 31.3064C55.1218 31.2453 55.1327 31.1832 55.1418 31.1202C55.1761 30.8799 55.1735 30.6568 55.1384 30.4504C55.112 30.2951 55.0672 30.1492 55.006 30.0127C54.879 29.7298 54.6813 29.4871 54.43 29.2832C54.3896 29.2504 54.3478 29.2186 54.3047 29.1878C54.0944 29.0377 53.8528 28.9112 53.5881 28.8079C53.2623 28.6547 52.8731 28.5553 52.4966 28.4591C52.3134 28.4123 52.1331 28.3662 51.9647 28.3152C51.583 28.1994 51.262 28.0577 51.1039 27.8224C51.1 27.8166 51.0962 27.8108 51.0925 27.8049C51.0596 27.7522 51.0346 27.695 51.0187 27.6325C51.0183 27.631 51.018 27.6295 51.0176 27.628C50.995 27.5364 50.9917 27.4334 51.0111 27.3169C51.099 26.7771 51.6356 26.2997 52.4353 26.2935C52.4372 26.2934 52.4392 26.2934 52.4411 26.2934C52.4445 26.2934 52.4478 26.2934 52.4512 26.2934C52.521 26.2934 52.588 26.2968 52.6523 26.3036C52.6569 26.3041 52.6614 26.3046 52.6659 26.3051C52.9087 26.3325 53.112 26.4075 53.2775 26.5235C53.4936 26.6748 53.6452 26.8958 53.7362 27.1712C53.7369 27.1731 53.7375 27.1751 53.7382 27.177C53.7529 27.2222 53.766 27.2689 53.7776 27.3169L55.5713 26.8115C55.5428 26.666 55.5032 26.5261 55.4532 26.3922C55.4522 26.3895 55.4512 26.3868 55.4501 26.3841C55.2468 25.8455 54.8744 25.4057 54.3769 25.1039C54.3364 25.0793 54.295 25.0556 54.2528 25.0329C53.8053 24.7916 53.2668 24.6557 52.6659 24.6508C52.5937 24.6508 52.5221 24.6523 52.4512 24.6554C51.1315 24.713 50.0552 25.3017 49.4891 26.2316C49.3444 26.4693 49.2331 26.7292 49.1595 27.0083C49.1589 27.0106 49.1583 27.0129 49.1577 27.0152C49.1299 27.1215 49.1076 27.2305 49.0911 27.3421C48.9888 28.0208 49.208 28.5968 49.5472 29.0098C49.5777 29.047 49.6092 29.0828 49.6415 29.1173C49.719 29.1999 49.8012 29.2747 49.8861 29.3411C49.9072 29.3576 49.9286 29.3736 49.9501 29.3891C50.4095 29.7275 51.0284 29.8943 51.5977 30.042C51.615 30.0464 51.6323 30.0509 51.6495 30.0554C51.6557 30.057 51.6618 30.0586 51.668 30.0602C51.7565 30.0831 51.8435 30.1057 51.9283 30.1286C51.9635 30.1381 51.9983 30.1476 52.0327 30.1572C52.3402 30.2434 52.6124 30.3366 52.8083 30.4669C52.8451 30.4914 52.8791 30.5171 52.9102 30.5444C52.9967 30.6201 53.0603 30.7074 53.0952 30.8105C53.0967 30.815 53.0982 30.8195 53.0996 30.8241C53.1001 30.8256 53.1006 30.8272 53.1011 30.8287C53.1062 30.8457 53.1105 30.863 53.1141 30.8808C53.1271 30.946 53.1297 31.0171 53.1207 31.0949C53.0575 31.6888 52.4891 32.0678 51.668 32.0678C51.6119 32.0678 51.5571 32.0657 51.5036 32.0615C51.4826 32.0599 51.4618 32.0579 51.4412 32.0557C51.4396 32.0555 51.4381 32.0553 51.4365 32.0552C50.7801 31.9814 50.3317 31.5924 50.1577 31.054C50.1513 31.0341 50.1452 31.0141 50.1395 30.9938L48.2826 31.4866ZM59.1216 26.5082L58.01 33.6346H59.8669L60.9912 26.5082H63.8587L64.1239 24.7898H56.5194L56.2541 26.5082H59.1216ZM69.3546 24.7898H67.2324L62.3564 33.6346H64.4786L65.2618 32.1816H69.1777L69.5188 33.6346H71.4768L69.3546 24.7898ZM68.003 27.0389L66.1334 30.4884H68.8367L68.003 27.0389ZM78.3877 33.6346H80.3962L81.7857 24.7898H79.9035L78.9814 30.7158L75.9497 24.7898H73.9539L72.5643 33.6346H74.4339L75.3686 27.7212L78.3877 33.6346ZM82.0883 30.9306L83.0736 24.7898H84.9432L83.9705 30.9306H82.0883ZM18.3084 30.4884H15.6051L17.4747 27.0389L18.3084 30.4884Z" fill="white"/>
<path fill-rule="evenodd" clip-rule="evenodd" d="M6.28601 17.1816C5.91372 16.5512 5.90215 15.7711 6.25558 15.13L11.1316 6.28516C11.4956 5.62484 12.1899 5.21475 12.9439 5.21475H15.0661C16.0231 5.21475 16.8553 5.87087 17.0785 6.80143L17.4217 8.23153L17.6209 6.9631C17.7791 5.95648 18.6464 5.21475 19.6654 5.21475H21.5223C22.1275 5.21475 22.7024 5.47967 23.0956 5.93975C23.4887 6.39983 23.6608 7.00896 23.5665 7.60677L22.8196 12.3412H23.5188C23.5236 12.0234 23.5517 11.7016 23.6037 11.3782C24.0104 8.84795 25.7242 6.64338 28.0957 5.64963C28.1001 5.33914 28.1745 5.03008 28.3177 4.74654L29.636 2.13649C29.8861 1.64128 30.3246 1.26723 30.8531 1.09829C31.3815 0.929346 31.9557 0.979654 32.4467 1.23792L33.7674 1.93258C34.2613 2.19238 34.6293 2.64063 34.788 3.17566C34.9467 3.71069 34.8826 4.28713 34.6103 4.77422L33.9861 5.8905C34.9031 6.42391 35.6478 7.20464 36.143 8.17573L37.1852 6.28516C37.5492 5.62484 38.2436 5.21475 38.9976 5.21475H41.1198C42.0767 5.21475 42.9089 5.87087 43.1322 6.80143L44.6857 13.2762H45.6882C46.3774 13.2762 47.0214 13.6193 47.4058 14.1913C47.7903 14.7632 47.8648 15.489 47.6046 16.1272L46.4298 19.0081C46.1121 19.787 45.3546 20.2962 44.5134 20.2962H42.9597C42.2831 20.2962 41.6492 19.9654 41.2622 19.4104C41.0039 19.0401 40.8773 18.601 40.8912 18.1612C40.1503 18.0183 39.5365 17.4782 39.3083 16.7456H38.2625L38.0655 17.111C37.7045 17.781 37.0048 18.1987 36.2438 18.1987H34.1216C33.5832 18.1987 33.0742 17.9895 32.6945 17.628C31.7105 18.0897 30.6085 18.325 29.4618 18.325C28.232 18.325 27.0873 17.9885 26.1337 17.3713C25.7532 17.8778 25.1484 18.1987 24.4782 18.1987H18.2758C18.0903 18.1987 17.9076 18.1738 17.7321 18.126C17.5567 18.1737 17.374 18.1987 17.1883 18.1987H15.2303C14.3195 18.1987 13.5222 17.6044 13.2547 16.7456H12.2089L12.0119 17.111C11.6508 17.781 10.9512 18.1987 10.1901 18.1987H8.06795C7.33588 18.1987 6.65829 17.8119 6.28601 17.1816ZM15.0661 7.28428H12.9439L8.06795 16.1292H10.1901L10.9733 14.6761H14.8893L15.2303 16.1292H17.1883L15.0661 7.28428ZM13.7145 9.5334L11.8449 12.9829H14.5482L13.7145 9.5334ZM24.4782 16.1292L24.7561 14.4107H20.398L21.5223 7.28428H19.6654L18.2758 16.1292H24.4782ZM41.1198 7.28428H38.9976L34.1216 16.1292H36.2438L37.027 14.6761H40.9429L41.284 16.1292H43.2419L41.1198 7.28428ZM37.8986 12.9829H40.6018L39.7681 9.5334L37.8986 12.9829ZM42.9597 18.2266H44.5134L45.6882 15.3457H44.0208L42.9597 18.2266ZM34.4262 11.4161H30.624L30.4092 12.7807H32.2788L32.2283 13.1345C32.1458 13.262 32.0569 13.3789 31.9618 13.4856C31.5544 13.9427 31.0325 14.2118 30.4092 14.3188C30.1976 14.3551 29.9743 14.3728 29.7397 14.3728C29.6449 14.3728 29.5522 14.3679 29.4618 14.3582C29.2801 14.3388 29.1079 14.3004 28.9467 14.2449C28.0265 13.9285 27.4637 13.058 27.5213 12.008C27.5268 11.9091 27.5377 11.8085 27.5544 11.7067C27.7818 10.241 29.1081 9.04062 30.5987 9.04062C30.703 9.04062 30.8041 9.04612 30.9019 9.05687C31.2413 9.09415 31.541 9.19449 31.7973 9.34657C32.084 9.51669 32.3164 9.75154 32.4892 10.0353C32.5258 10.0953 32.5596 10.1574 32.5908 10.2216C32.6196 10.2811 32.6462 10.3424 32.6704 10.4053L34.4768 9.52077C34.4606 9.47735 34.4438 9.43439 34.4262 9.3919C34.42 9.37673 34.4136 9.36162 34.4072 9.34657C34.3322 9.17137 34.2451 9.00432 34.1465 8.84633C33.8993 8.44983 33.58 8.11035 33.1993 7.842C33.0996 7.77179 32.9958 7.70645 32.8879 7.64623C32.384 7.36488 31.7923 7.19536 31.132 7.16344C31.0562 7.15977 30.9795 7.15792 30.9019 7.15792C30.8001 7.15792 30.699 7.16086 30.5987 7.16666C30.2588 7.1863 29.928 7.23875 29.6092 7.32068C29.4452 7.36282 29.2844 7.41275 29.127 7.47003C27.4029 8.09773 26.1008 9.60752 25.7047 11.4038C25.7035 11.409 25.7024 11.4141 25.7013 11.4192C25.6806 11.5143 25.6625 11.6102 25.647 11.7067C25.6026 11.9829 25.5835 12.2532 25.588 12.5157C25.6018 13.3218 25.8384 14.0538 26.2491 14.6522C26.3879 14.8543 26.5465 15.0412 26.7232 15.2106C27.4041 15.8633 28.3526 16.2555 29.4618 16.2555C29.5552 16.2555 29.6478 16.2535 29.7397 16.2494C30.6165 16.2109 31.4249 15.9891 32.1214 15.5977C32.2871 15.5046 32.4465 15.4018 32.5989 15.2897C33.0346 14.9691 33.4139 14.5716 33.7228 14.1013C33.8497 13.9082 33.9647 13.7029 34.0669 13.4856C34.0798 13.4581 34.0925 13.4304 34.105 13.4026C34.1111 13.3891 34.1171 13.3755 34.1231 13.362L34.2115 12.7807H34.2241L34.4262 11.4161ZM31.4833 3.06953L32.804 3.76419L31.4833 6.12604L30.165 5.67958L31.4833 3.06953ZM16.7041 24.7898H18.8263L20.9485 33.6346H18.9905L18.6495 32.1816H14.7335L13.9503 33.6346H11.8281L16.7041 24.7898ZM12.1184 29.5131C11.9411 30.3249 11.5923 31.0781 11.1027 31.718C11.0993 31.7224 11.0959 31.7269 11.0925 31.7313C10.814 32.093 10.4903 32.4182 10.1271 32.6969C10.0568 32.7509 9.98493 32.8031 9.91166 32.8535C9.73204 32.9771 9.54375 33.0898 9.3474 33.1905C8.71965 33.5125 8.0095 33.712 7.23658 33.7541C7.17799 33.7573 7.11904 33.7596 7.05973 33.761C7.11814 33.7733 7.17709 33.7849 7.23658 33.7958C7.46907 33.8386 7.70979 33.871 7.95874 33.8941C8.35781 33.931 8.77802 33.9437 9.21937 33.9358C9.40189 33.9325 9.58802 33.9257 9.77776 33.9156C10.2213 33.892 10.6846 33.8505 11.1676 33.7944C11.2255 33.7877 11.2836 33.7808 11.342 33.7736L11.0641 35.4921C11.0069 35.4886 10.9498 35.4848 10.8928 35.4808C10.4576 35.4498 10.0309 35.4026 9.61538 35.3388C8.70847 35.1996 7.85479 34.9817 7.08108 34.683C7.01421 34.6571 6.94793 34.6307 6.88228 34.6037C6.17839 34.3139 5.54516 33.9545 5.00384 33.5237C4.69016 33.2741 4.40735 33.0006 4.15954 32.7027C4.07354 32.5993 3.99175 32.493 3.91435 32.3837C3.24485 31.5624 2.94168 30.4505 3.14379 29.2122C3.15921 29.1163 3.17719 29.0211 3.19765 28.9266C3.19876 28.9215 3.19987 28.9164 3.20099 28.9113C3.70191 26.6315 5.6524 24.8127 8.08293 24.6722C8.18319 24.6664 8.28427 24.6634 8.3861 24.6634C10.5606 24.6634 12.2747 26.3872 12.228 28.6225C12.224 28.8155 12.2068 29.0124 12.1757 29.2122C12.1601 29.3081 12.142 29.4033 12.1217 29.4978C12.1206 29.5029 12.1195 29.508 12.1184 29.5131ZM10.3132 28.9221C10.3134 28.9175 10.3137 28.9129 10.3139 28.9083C10.3786 27.684 9.59144 26.7044 8.3861 26.5635C8.28775 26.552 8.18661 26.5461 8.08293 26.5461C6.60498 26.5461 5.26598 27.7465 5.0386 29.2122C5.02204 29.3134 5.01119 29.4132 5.00583 29.5115C5.00575 29.5131 5.00567 29.5146 5.00559 29.5161C4.97324 30.1288 5.15422 30.6802 5.49418 31.0959C5.52339 31.1316 5.55377 31.1663 5.58529 31.2C5.61904 31.236 5.65409 31.2709 5.6904 31.3045C5.91476 31.5119 6.18735 31.6712 6.49818 31.7688C6.66077 31.8198 6.83383 31.8539 7.01593 31.8692C7.08809 31.8752 7.16167 31.8783 7.23658 31.8783C7.31081 31.8783 7.38468 31.8753 7.45809 31.8693C7.60032 31.8578 7.74078 31.8354 7.87856 31.8029C9.08545 31.5183 10.0871 30.4617 10.2809 29.2122C10.297 29.1142 10.3076 29.0175 10.3132 28.9221ZM13.7147 25.9257C12.7674 23.9443 10.7607 22.5939 8.3861 22.5939C4.61703 22.5939 1.65514 25.4413 1.10091 28.8812C0.815901 30.6311 1.22606 32.3272 2.26513 33.6352C4.16128 36.2598 7.60663 37.3546 10.9381 37.5577C11.9996 37.6225 12.9373 36.8722 13.1071 35.8225L13.1262 35.7042H13.9503C14.7114 35.7042 15.411 35.2865 15.7721 34.6165L15.9691 34.2511H17.0149C17.2824 35.1098 18.0797 35.7042 18.9905 35.7042H20.9485C21.0599 35.7042 21.1701 35.6952 21.2784 35.6777C21.3867 35.6952 21.497 35.7042 21.6083 35.7042H28.2781C28.3775 35.7042 28.4755 35.6971 28.5716 35.6834C28.6677 35.6971 28.7654 35.7042 28.8642 35.7042H30.9864C31.7474 35.7042 32.447 35.2865 32.8081 34.6165L33.0051 34.2511H34.0509C34.3184 35.1098 35.1157 35.7042 36.0266 35.7042H37.9845C38.5041 35.7042 39.0001 35.509 39.3782 35.1645C41.3248 36.7021 43.9852 37.3997 46.5768 37.5577C47.6383 37.6225 48.576 36.8722 48.7458 35.8225L48.8409 35.2347C49.5913 35.6159 50.4568 35.829 51.3842 35.8429L51.39 35.843C52.7566 35.8598 54.0853 35.5305 55.1627 34.7618C55.4645 34.5465 55.7376 34.3026 55.9793 34.0337C56.0473 34.3797 56.2034 34.7066 56.4379 34.9805C56.8311 35.4398 57.4054 35.7042 58.01 35.7042H59.8669C60.3308 35.7042 60.7632 35.5505 61.1117 35.288C61.4649 35.5539 61.9001 35.7042 62.3564 35.7042H64.4786C65.2397 35.7042 65.9393 35.2865 66.3004 34.6165L66.4973 34.2511H67.5432C67.8106 35.1098 68.6079 35.7042 69.5188 35.7042H71.4768C71.6625 35.7042 71.8452 35.6792 72.0206 35.6315C72.1961 35.6793 72.3788 35.7042 72.5643 35.7042H74.4339C75.3369 35.7042 76.121 35.1216 76.3977 34.2881L76.5445 34.5757C76.8981 35.2683 77.6101 35.7042 78.3877 35.7042H80.3962C80.6933 35.7042 80.9776 35.6411 81.2351 35.5268C81.6521 35.737 82.1143 35.8432 82.581 35.8432C84.1333 35.8432 85.5682 34.6795 85.8144 33.0614C85.8149 33.0575 85.8155 33.0536 85.8161 33.0497C85.8719 32.6682 85.8529 32.2977 85.7713 31.9509C85.8908 31.7403 85.9747 31.5056 86.0145 31.2544L86.9872 25.1135C87.0819 24.5156 86.91 23.9061 86.5168 23.4457C86.1237 22.9854 85.5486 22.7202 84.9432 22.7202H83.0736C82.8495 22.7202 82.6327 22.7561 82.4292 22.8228C82.2237 22.7556 82.0067 22.7202 81.7857 22.7202H79.9035C79.0004 22.7202 78.2166 23.3029 77.9398 24.1359L77.7921 23.8472C77.4383 23.1555 76.7267 22.7202 75.9497 22.7202H73.9539C72.9349 22.7202 72.0675 23.462 71.9094 24.4686L71.7101 25.737L71.367 24.3069C71.1437 23.3764 70.3116 22.7202 69.3546 22.7202H67.2324C66.6303 22.7202 66.0663 22.9817 65.6781 23.4233C65.2855 22.9767 64.7194 22.7202 64.1239 22.7202H56.5194C56.0216 22.7202 55.5601 22.8973 55.1997 23.1956C54.4471 22.8 53.581 22.5887 52.6831 22.5813L52.6766 22.5813C52.673 22.5813 52.6695 22.5813 52.6659 22.5813C50.9912 22.5813 49.3686 23.2099 48.2886 24.3888C47.2205 23.2788 45.7159 22.5939 44.0248 22.5939C41.595 22.5939 39.5007 23.7773 38.1706 25.5399L37.8747 24.3069C37.6515 23.3764 36.8193 22.7202 35.8623 22.7202H33.7401C32.9861 22.7202 32.2918 23.1303 31.9278 23.7907L31.5392 24.4955C31.4841 24.1115 31.3214 23.7465 31.0641 23.4453C30.6709 22.9852 30.096 22.7202 29.4907 22.7202H22.9979C21.9737 22.7202 21.1036 23.4693 20.9513 24.4821L20.9241 24.6629L20.8387 24.3069C20.6154 23.3764 19.7833 22.7202 18.8263 22.7202H16.7041C15.9501 22.7202 15.2558 23.1303 14.8917 23.7907L13.7147 25.9257ZM21.8736 31.9541L21.6083 33.6346H28.2781L28.5307 31.9541H24.3747L29.2255 26.4703L29.4907 24.7898H22.9979L22.7452 26.4703H26.7243L21.8736 31.9541ZM39.7983 32.7027C39.8393 32.752 39.8813 32.8006 39.9242 32.8486C40.1405 33.0905 40.3808 33.3155 40.6426 33.5237C41.1839 33.9545 41.8171 34.3139 42.521 34.6037C42.5867 34.6307 42.6529 34.6571 42.7198 34.683C43.4935 34.9817 44.3472 35.1996 45.2541 35.3388C45.724 35.4109 46.2081 35.4619 46.7028 35.4921L46.9807 33.7736C46.9223 33.7808 46.8642 33.7877 46.8064 33.7944C46.1167 33.8746 45.4672 33.9248 44.8581 33.9358C44.4167 33.9437 43.9965 33.931 43.5975 33.8941C43.3485 33.871 43.1078 33.8386 42.8753 33.7958C42.8158 33.7849 42.7569 33.7733 42.6985 33.761C42.7578 33.7596 42.8167 33.7573 42.8753 33.7541C43.6482 33.712 44.3584 33.5125 44.9861 33.1905C45.4902 32.932 45.9411 32.5945 46.3287 32.1961C46.4305 32.0915 46.5279 31.9827 46.6207 31.87C46.6583 31.8244 46.6951 31.7782 46.7312 31.7313C46.7346 31.7269 46.7381 31.7224 46.7415 31.718C47.149 31.1854 47.4589 30.5743 47.6536 29.9162C47.6928 29.7837 47.7274 29.6492 47.7571 29.5131C47.7574 29.5119 47.7576 29.5106 47.7579 29.5094C47.7587 29.5055 47.7596 29.5016 47.7604 29.4978C47.7615 29.4929 47.7625 29.4881 47.7635 29.4832C47.7826 29.3935 47.7996 29.3032 47.8144 29.2122C47.9318 28.4589 47.8507 27.7486 47.616 27.1232C47.6155 27.1221 47.6151 27.1209 47.6146 27.1197C47.5073 26.8346 47.368 26.5671 47.201 26.3212C46.513 25.3085 45.3551 24.6634 44.0248 24.6634C43.923 24.6634 43.8219 24.6664 43.7217 24.6722C41.3937 24.8068 39.5062 26.4809 38.9108 28.6251C38.8846 28.7196 38.8609 28.8151 38.8397 28.9113C38.8386 28.9164 38.8375 28.9215 38.8364 28.9266C38.8159 29.0211 38.7979 29.1163 38.7825 29.2122C38.5804 30.4505 38.8836 31.5624 39.5531 32.3837C39.6305 32.493 39.7123 32.5993 39.7983 32.7027ZM35.8623 24.7898H33.7401L28.8642 33.6346H30.9864L31.7695 32.1816H35.6855L36.0266 33.6346H37.9845L35.8623 24.7898ZM34.5107 27.0389L32.6412 30.4884H35.3444L34.5107 27.0389ZM40.6773 29.2122C40.6608 29.3134 40.6499 29.4132 40.6446 29.5115C40.6445 29.5131 40.6444 29.5146 40.6443 29.5161C40.612 30.1288 40.7929 30.6802 41.1329 31.0959C41.1621 31.1316 41.1925 31.1663 41.224 31.2C41.2578 31.236 41.2928 31.2709 41.3291 31.3044C41.5535 31.5119 41.8261 31.6712 42.1369 31.7688C42.2995 31.8198 42.4726 31.8539 42.6547 31.8692C42.7268 31.8752 42.8004 31.8783 42.8753 31.8783C42.9495 31.8783 43.0234 31.8753 43.0968 31.8693C43.239 31.8578 43.3795 31.8354 43.5173 31.8029C44.7242 31.5183 45.7258 30.4617 45.9196 29.2122C45.9357 29.1142 45.9464 29.0175 45.9519 28.9221C45.9521 28.9175 45.9524 28.9129 45.9526 28.9083C46.0173 27.684 45.2302 26.7044 44.0248 26.5635C43.9265 26.552 43.8253 26.5461 43.7217 26.5461C42.2437 26.5461 40.9047 27.7465 40.6773 29.2122ZM48.2826 31.4866C48.2846 31.4951 48.2866 31.5035 48.2886 31.5119C48.3018 31.5669 48.3164 31.6213 48.3326 31.6749C48.421 31.9687 48.5534 32.2418 48.726 32.4872C48.9479 32.8028 49.2361 33.0728 49.5826 33.2828C50.0811 33.585 50.7002 33.7629 51.4154 33.7736C51.5007 33.7747 51.5849 33.7739 51.668 33.7714C53.5063 33.7156 54.7947 32.7933 55.1053 31.3256C55.1066 31.3192 55.108 31.3128 55.1093 31.3064C55.1218 31.2453 55.1327 31.1832 55.1418 31.1202C55.1761 30.8799 55.1735 30.6568 55.1384 30.4504C55.112 30.2951 55.0672 30.1492 55.006 30.0127C54.879 29.7298 54.6813 29.4871 54.43 29.2832C54.3896 29.2504 54.3478 29.2186 54.3047 29.1878C54.0944 29.0377 53.8528 28.9112 53.5881 28.8079C53.2623 28.6547 52.8731 28.5553 52.4966 28.4591C52.3134 28.4123 52.1331 28.3662 51.9647 28.3152C51.583 28.1994 51.262 28.0577 51.1039 27.8224C51.1 27.8166 51.0962 27.8108 51.0925 27.8049C51.0596 27.7522 51.0346 27.695 51.0187 27.6325C51.0183 27.631 51.018 27.6295 51.0176 27.628C50.995 27.5364 50.9917 27.4334 51.0111 27.3169C51.099 26.7771 51.6356 26.2997 52.4353 26.2935C52.4372 26.2934 52.4392 26.2934 52.4411 26.2934C52.4445 26.2934 52.4478 26.2934 52.4512 26.2934C52.521 26.2934 52.588 26.2968 52.6523 26.3036C52.6569 26.3041 52.6614 26.3046 52.6659 26.3051C52.9087 26.3325 53.112 26.4075 53.2775 26.5235C53.4936 26.6748 53.6452 26.8958 53.7362 27.1712C53.7369 27.1731 53.7375 27.1751 53.7382 27.177C53.7529 27.2222 53.766 27.2689 53.7776 27.3169L55.5713 26.8115C55.5428 26.666 55.5032 26.5261 55.4532 26.3922C55.4522 26.3895 55.4512 26.3868 55.4501 26.3841C55.2468 25.8455 54.8744 25.4057 54.3769 25.1039C54.3364 25.0793 54.295 25.0556 54.2528 25.0329C53.8053 24.7916 53.2668 24.6557 52.6659 24.6508C52.5937 24.6508 52.5221 24.6523 52.4512 24.6554C51.1315 24.713 50.0552 25.3017 49.4891 26.2316C49.3444 26.4693 49.2331 26.7292 49.1595 27.0083C49.1589 27.0106 49.1583 27.0129 49.1577 27.0152C49.1299 27.1215 49.1076 27.2305 49.0911 27.3421C48.9888 28.0208 49.208 28.5968 49.5472 29.0098C49.5777 29.047 49.6092 29.0828 49.6415 29.1173C49.719 29.1999 49.8012 29.2747 49.8861 29.3411C49.9072 29.3576 49.9286 29.3736 49.9501 29.3891C50.4095 29.7275 51.0284 29.8943 51.5977 30.042C51.615 30.0464 51.6323 30.0509 51.6495 30.0554C51.6557 30.057 51.6618 30.0586 51.668 30.0602C51.7565 30.0831 51.8435 30.1057 51.9283 30.1286C51.9635 30.1381 51.9983 30.1476 52.0327 30.1572C52.3402 30.2434 52.6124 30.3366 52.8083 30.4669C52.8451 30.4914 52.8791 30.5171 52.9102 30.5444C52.9967 30.6201 53.0603 30.7074 53.0952 30.8105C53.0967 30.815 53.0982 30.8195 53.0996 30.8241C53.1001 30.8256 53.1006 30.8272 53.1011 30.8287C53.1062 30.8457 53.1105 30.863 53.1141 30.8808C53.1271 30.946 53.1297 31.0171 53.1207 31.0949C53.0575 31.6888 52.4891 32.0678 51.668 32.0678C51.6119 32.0678 51.5571 32.0657 51.5036 32.0615C51.4826 32.0599 51.4618 32.0579 51.4412 32.0557C51.4396 32.0555 51.4381 32.0553 51.4365 32.0552C50.7801 31.9814 50.3317 31.5924 50.1577 31.054C50.1513 31.0341 50.1452 31.0141 50.1395 30.9938L48.2826 31.4866ZM59.1216 26.5082L58.01 33.6346H59.8669L60.9912 26.5082H63.8587L64.1239 24.7898H56.5194L56.2541 26.5082H59.1216ZM69.3546 24.7898H67.2324L62.3564 33.6346H64.4786L65.2618 32.1816H69.1777L69.5188 33.6346H71.4768L69.3546 24.7898ZM68.003 27.0389L66.1334 30.4884H68.8367L68.003 27.0389ZM78.3877 33.6346H80.3962L81.7857 24.7898H79.9035L78.9814 30.7158L75.9497 24.7898H73.9539L72.5643 33.6346H74.4339L75.3686 27.7212L78.3877 33.6346ZM82.0883 30.9306L83.0736 24.7898H84.9432L83.9705 30.9306H82.0883ZM18.3084 30.4884H15.6051L17.4747 27.0389L18.3084 30.4884Z" stroke="black" stroke-opacity="0.5" stroke-linejoin="round" mask="url(#path-1-outside-1_984_10448)"/>
<path d="M8.06798 16.1292H10.1902L10.9734 14.6761H14.8893L15.2304 16.1292H17.1883L15.0662 7.28433H12.944L8.06798 16.1292ZM11.845 12.983L13.7145 9.53346L14.5482 12.983H11.845Z" fill="url(#paint0_linear_984_10448)"/>
<path d="M18.2759 16.1292H24.4782L24.7561 14.4108H20.3981L21.5223 7.28433H19.6654L18.2759 16.1292Z" fill="url(#paint1_linear_984_10448)"/>
<path d="M30.4093 12.7808H32.2788L32.2283 13.1346C31.6725 13.9938 30.8261 14.3729 29.7398 14.3729C28.2618 14.3729 27.3144 13.1725 27.5544 11.7068C27.7818 10.241 29.1082 9.04067 30.5988 9.04067C31.6346 9.04067 32.3546 9.584 32.6704 10.4053L34.4768 9.52082C33.9463 8.09301 32.6452 7.15798 30.9019 7.15798C28.2239 7.15798 26.0512 9.1923 25.647 11.7068C25.2428 14.2212 26.9355 16.2556 29.4619 16.2556C31.5588 16.2556 33.302 15.2321 34.1231 13.362L34.2115 12.7808H34.2242L34.4263 11.4162H30.624L30.4093 12.7808Z" fill="url(#paint2_linear_984_10448)"/>
<path d="M34.1216 16.1292H36.2438L37.027 14.6761H40.943L41.284 16.1292H43.242L41.1198 7.28433H38.9976L34.1216 16.1292ZM37.8986 12.983L39.7682 9.53346L40.6019 12.983H37.8986Z" fill="url(#paint3_linear_984_10448)"/>
<path d="M42.9597 18.2267H44.5135L45.6883 15.3458H44.0208L42.9597 18.2267Z" fill="url(#paint4_linear_984_10448)"/>
<path d="M30.165 5.67963L31.4833 6.12609L32.804 3.76424L31.4833 3.06958L30.165 5.67963Z" fill="url(#paint5_linear_984_10448)"/>
<path d="M12.1758 29.2123C12.5674 26.6978 10.7483 24.6635 8.38614 24.6635C5.70814 24.6635 3.54805 26.6978 3.14383 29.2123C2.94171 30.4505 3.24488 31.5625 3.91438 32.3838C5.26601 34.2917 7.95665 35.3026 11.0641 35.4921L11.342 33.7737C9.68724 33.9759 8.25981 34.0138 7.05977 33.7611C9.78829 33.6979 11.7715 31.6888 12.1758 29.2123ZM10.2809 29.2123C10.0536 30.678 8.71457 31.8784 7.23662 31.8784C5.75866 31.8784 4.79863 30.678 5.03864 29.2123C5.26601 27.7465 6.60501 26.5462 8.08297 26.5462C9.56092 26.5462 10.521 27.7465 10.2809 29.2123Z" fill="url(#paint6_linear_984_10448)"/>
<path d="M11.8282 33.6347H13.9504L14.7336 32.1816H18.6495L18.9906 33.6347H20.9485L18.8263 24.7898H16.7042L11.8282 33.6347ZM15.6052 30.4884L17.4747 27.0389L18.3084 30.4884H15.6052Z" fill="url(#paint7_linear_984_10448)"/>
<path d="M21.6084 33.6347H28.2781L28.5307 31.9542H24.3748L29.2255 26.4703L29.4908 24.7898H22.9979L22.7452 26.4703H26.7243L21.8736 31.9542L21.6084 33.6347Z" fill="url(#paint8_linear_984_10448)"/>
<path d="M28.8642 33.6347H30.9864L31.7696 32.1816H35.6855L36.0266 33.6347H37.9846L35.8624 24.7898H33.7402L28.8642 33.6347ZM32.6412 30.4884L34.5107 27.0389L35.3445 30.4884H32.6412Z" fill="url(#paint9_linear_984_10448)"/>
<path d="M47.8145 29.2123C48.2061 26.6978 46.3871 24.6635 44.0249 24.6635C41.3469 24.6635 39.1868 26.6978 38.7825 29.2123C38.5804 30.4505 38.8836 31.5625 39.5531 32.3838C40.9047 34.2917 43.5954 35.3026 46.7029 35.4921L46.9808 33.7737C45.326 33.9759 43.8985 34.0138 42.6985 33.7611C45.427 33.6979 47.4103 31.6888 47.8145 29.2123ZM45.9197 29.2123C45.6923 30.678 44.3533 31.8784 42.8753 31.8784C41.3974 31.8784 40.4374 30.678 40.6774 29.2123C40.9047 27.7465 42.2437 26.5462 43.7217 26.5462C45.1996 26.5462 46.1597 27.7465 45.9197 29.2123Z" fill="url(#paint10_linear_984_10448)"/>
<path d="M51.4154 33.7737C53.4744 33.799 54.9019 32.7755 55.1419 31.1202C55.3061 29.9704 54.624 29.2123 53.5881 28.8079C52.5397 28.3151 50.8343 28.3783 51.0112 27.3169C51.0996 26.7736 51.6428 26.2934 52.4512 26.2934C53.1965 26.2934 53.626 26.6852 53.7776 27.3169L55.5714 26.8115C55.3187 25.5227 54.1945 24.6635 52.666 24.6508C50.7712 24.6508 49.3311 25.7249 49.0911 27.3422C48.9522 28.2646 49.4069 28.9975 49.9501 29.3892C51.0996 30.2357 53.2471 30.0083 53.1207 31.095C53.0576 31.6888 52.4891 32.0679 51.6681 32.0679C50.8596 32.0679 50.3164 31.6256 50.1396 30.9939L48.2827 31.4867C48.5858 32.8008 49.7353 33.7484 51.4154 33.7737Z" fill="url(#paint11_linear_984_10448)"/>
<path d="M58.01 33.6347H59.867L60.9912 26.5083H63.8587L64.124 24.7898H56.5195L56.2542 26.5083H59.1217L58.01 33.6347Z" fill="url(#paint12_linear_984_10448)"/>
<path d="M62.3565 33.6347H64.4786L65.2618 32.1816H69.1778L69.5188 33.6347H71.4768L69.3546 24.7898H67.2324L62.3565 33.6347ZM66.1334 30.4884L68.003 27.0389L68.8367 30.4884H66.1334Z" fill="url(#paint13_linear_984_10448)"/>
<path d="M72.5644 33.6347H74.4339L75.3687 27.7213L78.3877 33.6347H80.3962L81.7858 24.7898H79.9036L78.9814 30.7159L75.9498 24.7898H73.9539L72.5644 33.6347Z" fill="url(#paint14_linear_984_10448)"/>
<path d="M82.086 30.9307H83.9682L84.9409 24.7898H83.0713L82.086 30.9307ZM82.5787 33.7737C83.1345 33.7737 83.6777 33.3314 83.7661 32.7502C83.8419 32.2322 83.4503 31.7773 82.9071 31.7773C82.3513 31.7773 81.8081 32.2322 81.7323 32.7502C81.6439 33.3314 82.0229 33.7737 82.5787 33.7737Z" fill="url(#paint15_linear_984_10448)"/>
<defs>
<linearGradient id="paint0_linear_984_10448" x1="44.0114" y1="3.06958" x2="44.0114" y2="35.4921" gradientUnits="userSpaceOnUse">
<stop stop-color="#00A9D1"/>
<stop offset="0.395833" stop-color="#17BEEA"/>
<stop offset="1" stop-color="#00A9D1"/>
</linearGradient>
<linearGradient id="paint1_linear_984_10448" x1="44.0114" y1="3.06958" x2="44.0114" y2="35.4921" gradientUnits="userSpaceOnUse">
<stop stop-color="#00A9D1"/>
<stop offset="0.395833" stop-color="#17BEEA"/>
<stop offset="1" stop-color="#00A9D1"/>
</linearGradient>
<linearGradient id="paint2_linear_984_10448" x1="44.0114" y1="3.06958" x2="44.0114" y2="35.4921" gradientUnits="userSpaceOnUse">
<stop stop-color="#00A9D1"/>
<stop offset="0.395833" stop-color="#17BEEA"/>
<stop offset="1" stop-color="#00A9D1"/>
</linearGradient>
<linearGradient id="paint3_linear_984_10448" x1="44.0114" y1="3.06958" x2="44.0114" y2="35.4921" gradientUnits="userSpaceOnUse">
<stop stop-color="#00A9D1"/>
<stop offset="0.395833" stop-color="#17BEEA"/>
<stop offset="1" stop-color="#00A9D1"/>
</linearGradient>
<linearGradient id="paint4_linear_984_10448" x1="44.0114" y1="3.06958" x2="44.0114" y2="35.4921" gradientUnits="userSpaceOnUse">
<stop stop-color="#00A9D1"/>
<stop offset="0.395833" stop-color="#17BEEA"/>
<stop offset="1" stop-color="#00A9D1"/>
</linearGradient>
<linearGradient id="paint5_linear_984_10448" x1="44.0114" y1="3.06958" x2="44.0114" y2="35.4921" gradientUnits="userSpaceOnUse">
<stop stop-color="#00A9D1"/>
<stop offset="0.395833" stop-color="#17BEEA"/>
<stop offset="1" stop-color="#00A9D1"/>
</linearGradient>
<linearGradient id="paint6_linear_984_10448" x1="44.0114" y1="3.06958" x2="44.0114" y2="35.4921" gradientUnits="userSpaceOnUse">
<stop stop-color="#00A9D1"/>
<stop offset="0.395833" stop-color="#17BEEA"/>
<stop offset="1" stop-color="#00A9D1"/>
</linearGradient>
<linearGradient id="paint7_linear_984_10448" x1="44.0114" y1="3.06958" x2="44.0114" y2="35.4921" gradientUnits="userSpaceOnUse">
<stop stop-color="#00A9D1"/>
<stop offset="0.395833" stop-color="#17BEEA"/>
<stop offset="1" stop-color="#00A9D1"/>
</linearGradient>
<linearGradient id="paint8_linear_984_10448" x1="44.0114" y1="3.06958" x2="44.0114" y2="35.4921" gradientUnits="userSpaceOnUse">
<stop stop-color="#00A9D1"/>
<stop offset="0.395833" stop-color="#17BEEA"/>
<stop offset="1" stop-color="#00A9D1"/>
</linearGradient>
<linearGradient id="paint9_linear_984_10448" x1="44.0114" y1="3.06958" x2="44.0114" y2="35.4921" gradientUnits="userSpaceOnUse">
<stop stop-color="#00A9D1"/>
<stop offset="0.395833" stop-color="#17BEEA"/>
<stop offset="1" stop-color="#00A9D1"/>
</linearGradient>
<linearGradient id="paint10_linear_984_10448" x1="44.0114" y1="3.06958" x2="44.0114" y2="35.4921" gradientUnits="userSpaceOnUse">
<stop stop-color="#00A9D1"/>
<stop offset="0.395833" stop-color="#17BEEA"/>
<stop offset="1" stop-color="#00A9D1"/>
</linearGradient>
<linearGradient id="paint11_linear_984_10448" x1="44.0114" y1="3.06958" x2="44.0114" y2="35.4921" gradientUnits="userSpaceOnUse">
<stop stop-color="#00A9D1"/>
<stop offset="0.395833" stop-color="#17BEEA"/>
<stop offset="1" stop-color="#00A9D1"/>
</linearGradient>
<linearGradient id="paint12_linear_984_10448" x1="44.0114" y1="3.06958" x2="44.0114" y2="35.4921" gradientUnits="userSpaceOnUse">
<stop stop-color="#00A9D1"/>
<stop offset="0.395833" stop-color="#17BEEA"/>
<stop offset="1" stop-color="#00A9D1"/>
</linearGradient>
<linearGradient id="paint13_linear_984_10448" x1="44.0114" y1="3.06958" x2="44.0114" y2="35.4921" gradientUnits="userSpaceOnUse">
<stop stop-color="#00A9D1"/>
<stop offset="0.395833" stop-color="#17BEEA"/>
<stop offset="1" stop-color="#00A9D1"/>
</linearGradient>
<linearGradient id="paint14_linear_984_10448" x1="44.0114" y1="3.06958" x2="44.0114" y2="35.4921" gradientUnits="userSpaceOnUse">
<stop stop-color="#00A9D1"/>
<stop offset="0.395833" stop-color="#17BEEA"/>
<stop offset="1" stop-color="#00A9D1"/>
</linearGradient>
<linearGradient id="paint15_linear_984_10448" x1="44.0114" y1="3.06958" x2="44.0114" y2="35.4921" gradientUnits="userSpaceOnUse">
<stop stop-color="#00A9D1"/>
<stop offset="0.395833" stop-color="#17BEEA"/>
<stop offset="1" stop-color="#00A9D1"/>
</linearGradient>
</defs>
</svg>
