<svg width="78" height="33" viewBox="0 0 78 33" fill="none" xmlns="http://www.w3.org/2000/svg">
<g style="mix-blend-mode:multiply" opacity="0.35">
<g style="mix-blend-mode:multiply">
<path d="M5.49307 2.25747C5.62132 2.25946 5.74909 2.27366 5.87464 2.29987C6.03181 2.32707 6.18416 2.37706 6.32688 2.44826C6.50246 2.54062 6.66421 2.65717 6.80739 2.7945C6.98359 2.95749 7.13163 3.1485 7.24549 3.3598C7.30909 3.13368 7.36562 2.90756 7.42921 2.65318H8.94845L8.90605 11.5284L6.58833 11.7474C6.58833 10.4331 6.58833 9.11877 6.58833 7.79739C6.61615 7.31997 6.55872 6.84142 6.41874 6.38414C6.37145 6.2586 6.28439 6.15197 6.17084 6.08053C6.0573 6.00908 5.92349 5.97674 5.78985 5.98844C5.66108 5.99303 5.53658 6.03578 5.43215 6.11127C5.32773 6.18675 5.24809 6.29157 5.20335 6.41241C5.05694 6.85141 4.99461 7.31409 5.01963 7.77619L4.99137 24.1274C4.98612 24.4856 5.04351 24.8419 5.16096 25.1803C5.17214 25.2444 5.19683 25.3054 5.23338 25.3593C5.26993 25.4131 5.31751 25.4586 5.37297 25.4927C5.42843 25.5268 5.49049 25.5487 5.55505 25.5569C5.61961 25.5652 5.6852 25.5597 5.74745 25.5407C5.97344 25.4919 6.18731 25.3982 6.37635 25.2651C6.56205 25.0947 6.68834 24.8694 6.73672 24.6221C6.83798 24.1931 6.89715 23.7553 6.91338 23.3148C6.91338 22.7495 6.96284 21.9864 6.98404 21.0324L8.82126 20.6862C8.82126 21.4281 8.82126 22.2337 8.82126 23.0887C8.82126 23.9437 8.77179 24.6574 8.7294 25.2086C8.69497 25.7904 8.57595 26.364 8.37609 26.9115C8.20911 27.3593 7.97046 27.7769 7.66946 28.1481C7.40908 28.4667 7.09887 28.7411 6.75086 28.9607C6.43787 29.1633 6.09763 29.3204 5.74039 29.4271C5.35703 29.5409 4.96013 29.6027 4.56033 29.6108C4.35425 29.6112 4.15013 29.5709 3.95972 29.492C3.76932 29.4132 3.5964 29.2975 3.45093 29.1515C3.04163 28.7126 2.74357 28.1819 2.58179 27.604C2.29462 26.568 2.14261 25.4992 2.12955 24.4242C2.07302 23.23 2.03062 21.9369 2.00942 20.5449C1.98822 19.1528 2.00942 17.7184 2.00942 16.1921C2.00942 14.6658 2.00942 12.9981 2.05182 11.3729C2.09422 9.74766 2.12955 8.17896 2.23554 6.68799C2.28106 5.96554 2.42367 5.25251 2.65951 4.56812C2.8202 4.05501 3.07412 3.57592 3.40853 3.15488C3.67196 2.84428 4.00648 2.60187 4.38367 2.44826C4.73898 2.31845 5.1148 2.25382 5.49307 2.25747Z" stroke="#1D1D1B" stroke-width="4" stroke-linecap="round" stroke-linejoin="round"/>
</g>
<g style="mix-blend-mode:multiply">
<path d="M14.6788 19.7331L16.7139 19.4505C16.7139 21.7824 16.6786 24.1213 16.6644 26.4531C14.3938 26.8771 12.1326 27.367 9.88086 27.9229C9.88086 27.2163 9.88086 26.5591 9.88086 25.8737C9.97979 25.6546 10.0716 25.4356 10.1706 25.2236L10.2766 5.31099C10.1847 5.11314 10.0928 4.92235 9.99392 4.7245C9.99392 4.01787 9.99392 3.36072 9.99392 2.67529H13.527C13.527 3.33245 13.527 3.99668 13.527 4.65383C13.4352 4.85169 13.3362 5.04248 13.2373 5.23326L13.1101 24.2485L14.6294 23.9658C14.6576 22.5526 14.6718 21.1393 14.6788 19.7331Z" stroke="#1D1D1B" stroke-width="4" stroke-linecap="round" stroke-linejoin="round"/>
</g>
<g style="mix-blend-mode:multiply">
<path d="M17.7518 24.3537C17.8508 24.1488 17.9426 23.9509 18.0416 23.7531C18.0934 17.5442 18.1381 11.333 18.1758 5.11943L17.8932 4.56827C17.8932 3.92524 17.8932 3.28928 17.8932 2.65332H24.4648C24.4648 4.39868 24.4648 6.14403 24.4294 7.88939L22.4579 7.95299V5.40208H21.1154C21.1154 7.7198 21.0989 10.0375 21.0659 12.3552L22.0834 12.2916C22.0834 11.9171 22.0834 11.5356 22.0834 11.161L23.4967 11.0904C23.4967 12.7863 23.4967 14.4892 23.4613 16.1851L22.0481 16.3053C22.0481 15.9237 22.0481 15.5421 22.0481 15.1676L21.0306 15.2453C21.0306 17.8174 21.0117 20.3895 20.974 22.9616L22.3166 22.792C22.3166 21.6685 22.3166 20.545 22.3166 19.4215L24.2174 19.2377C24.2174 21.2587 24.2174 23.2725 24.2174 25.2864C22.034 25.5479 19.8646 25.8729 17.6953 26.2616C17.7448 25.6185 17.7448 24.9826 17.7518 24.3537Z" stroke="#1D1D1B" stroke-width="4" stroke-linecap="round" stroke-linejoin="round"/>
</g>
<g style="mix-blend-mode:multiply">
<path d="M33.0151 13.5636C33.0151 14.7154 33.0151 15.853 32.9585 16.9907C32.902 18.1284 32.8808 19.1812 32.8172 20.1493C32.7716 20.8942 32.6315 21.6303 32.4003 22.3398C32.2225 22.8894 31.9499 23.4036 31.5948 23.8591C31.2936 24.2398 30.9156 24.5528 30.4854 24.7777C30.0928 24.9853 29.6628 25.1126 29.2205 25.1522C28.7916 25.1885 28.3599 25.1306 27.9557 24.9826C27.5316 24.829 27.1544 24.5686 26.8604 24.2265C26.5014 23.8131 26.2276 23.3328 26.0548 22.8133C25.8233 22.1051 25.6948 21.3674 25.6733 20.6227C25.6167 19.6405 25.5814 18.5594 25.5602 17.4005C25.539 16.2417 25.5602 15.0616 25.5602 13.8674C25.5602 12.6732 25.5602 11.5214 25.6238 10.3343C25.6874 9.1472 25.7157 8.10846 25.7793 7.11212C25.8025 6.36587 25.9286 5.62638 26.1538 4.91453C26.3344 4.36696 26.6094 3.8552 26.9664 3.40236C27.262 3.03446 27.6362 2.73747 28.0616 2.53321C28.4548 2.35146 28.8828 2.25732 29.3159 2.25732C29.749 2.25732 30.177 2.35146 30.5702 2.53321C30.9912 2.73183 31.3629 3.02144 31.6584 3.38116C32.0072 3.82288 32.2752 4.32288 32.4498 4.858C32.6755 5.5608 32.8086 6.29008 32.8455 7.02733C32.902 7.98833 32.9444 9.03414 32.9656 10.1577C32.9868 11.2812 33.0221 12.4189 33.0151 13.5636ZM28.6057 21.1386C28.5871 21.4456 28.6479 21.7523 28.7824 22.0289C28.8211 22.1162 28.8846 22.1902 28.965 22.2417C29.0454 22.2932 29.1392 22.3199 29.2346 22.3186C29.3337 22.3028 29.4272 22.2621 29.5063 22.2003C29.5854 22.1385 29.6475 22.0576 29.6869 21.9653C29.8224 21.6813 29.8855 21.3681 29.8706 21.0538C29.8706 16.1357 29.8942 11.22 29.9413 6.30657C29.959 5.99733 29.8982 5.68863 29.7646 5.40916C29.7281 5.32009 29.6667 5.24341 29.5877 5.18828C29.5088 5.13315 29.4156 5.10189 29.3194 5.09825C29.2209 5.10348 29.1258 5.13688 29.0457 5.1945C28.9655 5.25211 28.9036 5.33152 28.8672 5.4233C28.7317 5.70232 28.6686 6.0109 28.6835 6.32071C28.6552 11.2765 28.6293 16.2158 28.6057 21.1386Z" stroke="#1D1D1B" stroke-width="4" stroke-linecap="round" stroke-linejoin="round"/>
</g>
<g style="mix-blend-mode:multiply">
<path d="M37.7569 2.61827C38.3617 2.60103 38.9648 2.69197 39.5376 2.88679C39.9927 3.05734 40.3864 3.36001 40.6682 3.75594C40.9826 4.24253 41.1853 4.79275 41.2618 5.36703C41.3851 6.18555 41.4442 7.01247 41.4384 7.84021V10.1438C41.4384 10.9493 41.4384 11.7408 41.396 12.5322C41.3774 13.2492 41.2706 13.9611 41.078 14.652C40.917 15.2292 40.6133 15.7566 40.1948 16.1854C39.9648 16.3928 39.6956 16.5521 39.4032 16.6541C39.1108 16.756 38.8009 16.7985 38.4918 16.779H37.3683V22.114C37.4601 22.2836 37.5591 22.4532 37.658 22.6227V24.3893C36.4567 24.3893 35.2626 24.4317 34.0684 24.4812C34.0684 23.8876 34.0684 23.294 34.0684 22.7005L34.3581 22.1846L34.4005 4.8936C34.3015 4.72401 34.2097 4.55442 34.1178 4.38483V2.62534L37.7569 2.61827ZM37.8982 13.9242C37.9694 13.928 38.0405 13.9176 38.1076 13.8937C38.1747 13.8697 38.2363 13.8327 38.2889 13.7847C38.3415 13.7367 38.384 13.6787 38.414 13.6141C38.444 13.5495 38.4608 13.4796 38.4635 13.4084C38.5347 12.993 38.5678 12.572 38.5625 12.1506V6.72375C38.5769 6.41968 38.5033 6.11791 38.3505 5.8546C38.2707 5.74417 38.1637 5.65623 38.0399 5.59928C37.9161 5.54234 37.7797 5.51832 37.6439 5.52956H37.3754C37.3754 8.35605 37.3754 11.1613 37.3754 13.9454L37.8982 13.9242Z" stroke="#1D1D1B" stroke-width="4" stroke-linecap="round" stroke-linejoin="round"/>
</g>
<g style="mix-blend-mode:multiply">
<path d="M43.7286 4.90739C43.6509 4.7378 43.5732 4.56821 43.4884 4.39862V2.625H49.0919C49.0919 3.22563 49.0919 3.82626 49.0919 4.42689C49 4.60354 48.9011 4.77313 48.8092 4.94272C49.252 10.7936 49.709 16.6726 50.1801 22.58L50.4769 23.1241C50.4769 23.7318 50.4769 24.3324 50.4769 24.9331C49.2473 24.82 48.0178 24.7211 46.7883 24.6433C46.7883 24.0498 46.7883 23.4492 46.7883 22.8556L47.078 22.361C47.0215 21.2233 46.9579 20.0927 46.9014 18.955L45.0076 18.8773C44.9299 19.9938 44.8592 21.1173 44.7815 22.2408L45.0712 22.7637C45.0712 23.3573 45.0712 23.9509 45.0712 24.5444C44.1455 24.502 43.2128 24.4667 42.2871 24.4384C42.2871 23.8449 42.2871 23.2584 42.2871 22.6648C42.386 22.5023 42.4779 22.3327 42.5768 22.1631C42.9348 16.4206 43.3188 10.6687 43.7286 4.90739ZM46.7106 15.8318C46.5174 12.5342 46.3313 9.26018 46.1523 6.00972H45.6294C45.4551 9.27431 45.2808 12.5318 45.1065 15.7823L46.7106 15.8318Z" stroke="#1D1D1B" stroke-width="4" stroke-linecap="round" stroke-linejoin="round"/>
</g>
<g style="mix-blend-mode:multiply">
<path d="M58.7159 2.64648L58.7583 8.44078L57.8185 9.09794C57.5853 7.98148 57.3592 6.87208 57.1119 5.76269H56.4052L56.5395 23.2657C56.6384 23.4565 56.7303 23.6473 56.8292 23.8451V25.7106C55.6421 25.541 54.455 25.3785 53.2961 25.2372C53.2961 24.6295 53.2961 24.0147 53.2961 23.407L53.5788 22.9053C53.5411 17.1676 53.5034 11.4274 53.4657 5.68496H52.7591C52.5471 6.75902 52.328 7.80483 52.116 8.89302L51.1621 8.1864C51.1621 6.34212 51.1621 4.49077 51.1621 2.64648H58.7159Z" stroke="#1D1D1B" stroke-width="4" stroke-linecap="round" stroke-linejoin="round"/>
</g>
<g style="mix-blend-mode:multiply">
<path d="M64.3129 27.0667C64.3129 24.2402 64.2941 21.3972 64.2564 18.5378C64.2718 18.1143 64.1664 17.6952 63.9526 17.3294C63.8729 17.1841 63.7552 17.0632 63.612 16.9798C63.4688 16.8964 63.3056 16.8536 63.1399 16.856C63.1399 19.3433 63.1564 21.8259 63.1894 24.3038C63.2883 24.5158 63.3873 24.7207 63.4791 24.9256C63.4791 25.5828 63.4791 26.2399 63.4791 26.89C62.3061 26.6498 61.1261 26.4237 59.946 26.1834C59.946 25.5475 59.946 24.9115 59.946 24.2685L60.2287 23.7668C60.1863 17.5626 60.1344 11.3467 60.0732 5.11901L59.8047 4.56784C59.8047 3.93188 59.8047 3.29593 59.8047 2.65997H64.3129C64.8105 2.64424 65.3017 2.77442 65.7262 3.03447C66.1353 3.32661 66.4538 3.72829 66.6448 4.19334C66.9084 4.83153 67.0752 5.50556 67.1394 6.19308C67.2472 7.13139 67.3015 8.07508 67.3019 9.01956C67.3019 9.82511 67.3019 10.6095 67.2454 11.3726C67.2114 12.0834 67.1335 12.7913 67.0122 13.4925C66.931 14.0307 66.779 14.5558 66.56 15.0541C66.499 15.2228 66.4051 15.3778 66.2838 15.51C66.1625 15.6422 66.0162 15.7491 65.8534 15.8243C66.3211 16.1023 66.6839 16.5271 66.885 17.0327C67.1701 17.744 67.3048 18.5067 67.2807 19.2726C67.2807 21.2229 67.2807 23.1803 67.2807 25.1305C67.3726 25.3496 67.4715 25.5687 67.5634 25.7806C67.5634 26.4873 67.5634 27.1444 67.5634 27.8228C66.5035 27.5472 65.4153 27.2999 64.3129 27.0667ZM63.6558 13.8175C64.108 13.8599 64.3624 13.4783 64.3624 12.6728L64.3129 6.86437C64.344 6.5141 64.278 6.16206 64.1221 5.84683C64.0771 5.76716 64.0127 5.70014 63.9349 5.65197C63.8571 5.6038 63.7684 5.57604 63.677 5.57125H63.0905C63.0905 8.31294 63.1258 11.0476 63.147 13.7893L63.6558 13.8175Z" stroke="#1D1D1B" stroke-width="4" stroke-linecap="round" stroke-linejoin="round"/>
</g>
<g style="mix-blend-mode:multiply">
<path d="M69.3931 5.35974L69.1599 4.75911C69.1599 4.05249 69.1599 3.34587 69.1599 2.68164H74.7634V4.9075L74.4808 5.52933C74.8953 12.6568 75.3075 19.8855 75.7173 27.2156C75.8092 27.4558 75.9011 27.6961 76 27.9222V30.148C74.8129 29.7665 73.621 29.4061 72.4245 29.0669C72.4245 28.3603 72.4245 27.6537 72.4245 26.947L72.7071 26.4029L72.5375 22.2904C71.9157 22.1561 71.301 22.029 70.6791 21.9088L70.4671 25.8447C70.559 26.0708 70.6579 26.2899 70.7498 26.516C70.7498 27.2226 70.7498 27.9292 70.7498 28.6359C69.8453 28.3886 68.9408 28.1554 68.0293 27.9292C68.0293 27.2226 68.0293 26.5584 68.0293 25.88L68.3049 25.3501C68.6582 18.7596 69.0209 12.0962 69.3931 5.35974ZM72.3609 18.517C72.1772 14.5647 71.9934 10.6382 71.8097 6.73765H71.2939C71.1243 10.6099 70.9547 14.4563 70.7851 18.2768L72.3609 18.517Z" stroke="#1D1D1B" stroke-width="4" stroke-linecap="round" stroke-linejoin="round"/>
</g>
</g>
<path d="M5.49307 1.85873C5.6201 1.84982 5.74761 1.84982 5.87464 1.85873C6.03317 1.89534 6.18552 1.95485 6.32688 2.03539C6.50088 2.12745 6.66237 2.24144 6.80739 2.37457C6.98502 2.53895 7.1332 2.73253 7.24549 2.94693C7.30909 2.72081 7.36562 2.48763 7.42921 2.24031H8.94845L8.90605 11.1155L6.58833 11.3345C6.58833 10.0132 6.58833 8.69883 6.58833 7.38452C6.61525 6.90713 6.55785 6.42873 6.41874 5.97127C6.37124 5.84635 6.28388 5.74058 6.17019 5.67032C6.0565 5.60006 5.92282 5.56924 5.78985 5.58263C5.66108 5.58722 5.53658 5.62997 5.43215 5.70546C5.32773 5.78095 5.24809 5.88577 5.20335 6.0066C5.05733 6.44326 4.995 6.90355 5.01963 7.36332L4.99137 23.7287C4.98669 24.0868 5.04407 24.443 5.16096 24.7815C5.17214 24.8457 5.19683 24.9067 5.23338 24.9605C5.26993 25.0144 5.31751 25.0599 5.37297 25.0939C5.42843 25.128 5.49049 25.1499 5.55505 25.1582C5.61961 25.1665 5.6852 25.1609 5.74745 25.1419C5.97344 25.0932 6.18731 24.9994 6.37635 24.8663C6.55905 24.6936 6.68476 24.4693 6.73672 24.2233C6.83798 23.7944 6.89715 23.3565 6.91338 22.9161C6.91338 22.3437 6.96284 21.5876 6.98404 20.6266C7.59174 20.5136 8.2065 20.3934 8.82126 20.2874C8.82126 21.0294 8.82126 21.8279 8.82126 22.6899C8.82126 23.552 8.77179 24.2586 8.7294 24.8098C8.69499 25.3893 8.57596 25.9607 8.37609 26.5057C8.21196 26.9548 7.97305 27.3729 7.66946 27.7423C7.4092 28.063 7.09903 28.3398 6.75086 28.562C6.43787 28.7646 6.09763 28.9216 5.74039 29.0283C5.35672 29.1398 4.95982 29.1993 4.56033 29.205C4.35402 29.207 4.14943 29.1674 3.9588 29.0885C3.76818 29.0095 3.59544 28.893 3.45093 28.7457C3.03217 28.3033 2.72881 27.7645 2.56765 27.177C2.28653 26.1473 2.13928 25.0857 2.12955 24.0184C2.07302 22.8313 2.03062 21.5382 2.00942 20.1461C1.98822 18.7541 2.00942 17.3196 2.00942 15.7933C2.00942 14.267 2.00942 12.5994 2.05182 10.9742C2.09422 9.34893 2.12955 7.77316 2.23554 6.27512C2.28106 5.55267 2.42367 4.83964 2.65951 4.15525C2.8202 3.64214 3.07412 3.16305 3.40853 2.74201C3.66999 2.42929 4.00508 2.18647 4.38367 2.03539C4.73987 1.91039 5.11566 1.85055 5.49307 1.85873Z" stroke="#0086CD" stroke-width="2" stroke-linecap="round" stroke-linejoin="round"/>
<path d="M14.6788 19.3259L16.7139 19.0433C16.7139 21.3822 16.6786 23.7141 16.6644 26.053C14.3938 26.477 12.1326 26.9645 9.88086 27.5157C9.88086 26.8091 9.88086 26.1519 9.88086 25.4735L10.1706 24.8164L10.2766 4.90378C10.1847 4.71299 10.0928 4.51514 9.99392 4.32435C9.99392 3.61773 9.99392 2.96057 9.99392 2.27515H13.527C13.527 2.93937 13.527 3.59653 13.527 4.26075C13.4352 4.45154 13.3362 4.64233 13.2373 4.84018L13.1101 23.8483C13.6189 23.7565 14.1206 23.6575 14.6294 23.5727C14.6576 22.1454 14.6718 20.7392 14.6788 19.3259Z" stroke="#0086CD" stroke-width="2" stroke-linecap="round" stroke-linejoin="round"/>
<path d="M17.7536 23.9406L18.0433 23.347C18.0952 17.1382 18.1399 10.927 18.1776 4.71343C18.0857 4.5297 17.9939 4.34598 17.8949 4.16226C17.8949 3.5263 17.8949 2.89034 17.8949 2.24731H24.4665C24.4665 3.99267 24.4665 5.73803 24.4312 7.47632L22.4597 7.53991V4.98901H21.1171C21.1171 7.30673 21.1007 9.62445 21.0677 11.9422L22.1205 11.928C22.1205 11.5465 22.1205 11.1719 22.1205 10.7904L23.5338 10.7197C23.5338 12.4227 23.5338 14.1186 23.4985 15.8215L22.0852 15.9346C22.0852 15.5601 22.0852 15.1785 22.0852 14.7969L21.0677 14.8817C21.0677 17.4538 21.0488 20.0259 21.0111 22.598L22.3537 22.4284C22.3537 21.3049 22.3537 20.1814 22.3537 19.0579L24.2545 18.8741C24.2545 20.888 24.2545 22.9019 24.2545 24.9228C22.0711 25.1843 19.9018 25.5093 17.7324 25.8909C17.7466 25.2196 17.7466 24.5836 17.7536 23.9406Z" stroke="#0086CD" stroke-width="2" stroke-linecap="round" stroke-linejoin="round"/>
<path d="M33.0151 13.1647C33.0151 14.3094 33.0151 15.4541 32.9585 16.5847C32.902 17.7153 32.8808 18.7753 32.8172 19.7433C32.7723 20.4883 32.6321 21.2245 32.4003 21.9339C32.2221 22.4854 31.9495 23.0018 31.5948 23.4602C31.292 23.8393 30.9143 24.152 30.4854 24.3788C30.0924 24.5843 29.6624 24.7092 29.2205 24.7462C28.7921 24.7848 28.3604 24.7293 27.9557 24.5837C27.533 24.4273 27.1564 24.1673 26.8604 23.8276C26.5021 23.4137 26.2285 22.9335 26.0548 22.4144C25.8227 21.7064 25.6941 20.9686 25.6733 20.2238C25.6167 19.2416 25.5814 18.1676 25.5602 17.0016C25.539 15.8357 25.5602 14.6698 25.5602 13.4685C25.5602 12.2673 25.5602 11.1296 25.6238 9.97074C25.6874 8.81188 25.7157 7.73782 25.7793 6.74855C25.7993 5.99041 25.9253 5.23881 26.1538 4.51562C26.3337 3.96557 26.6087 3.45136 26.9664 2.99638C27.262 2.63036 27.6364 2.3357 28.0616 2.13431C28.6696 1.85619 29.3527 1.78787 30.0037 1.94007C30.6547 2.09227 31.2367 2.45636 31.6584 2.97519C32.0058 3.41787 32.2736 3.9176 32.4498 4.45203C32.674 5.15521 32.807 5.88429 32.8455 6.62136C32.902 7.58943 32.9444 8.63523 32.9656 9.75876C32.9868 10.8823 33.0221 12.0199 33.0151 13.1647ZM28.6057 20.7397C28.5871 21.0467 28.6479 21.3534 28.7824 21.63C28.8207 21.7171 28.8843 21.7906 28.9649 21.8411C29.0456 21.8915 29.1396 21.9164 29.2346 21.9127C29.3335 21.8988 29.427 21.8596 29.5062 21.7989C29.5855 21.7383 29.6477 21.6582 29.6869 21.5664C29.8207 21.2818 29.8837 20.9691 29.8706 20.6549C29.8706 15.7368 29.8942 10.8187 29.9413 5.9006C29.9584 5.59367 29.8976 5.2874 29.7646 5.01026C29.727 4.92132 29.6655 4.84453 29.5869 4.7884C29.5083 4.73228 29.4158 4.69901 29.3194 4.69228C29.2213 4.69915 29.127 4.7332 29.0472 4.79061C28.9673 4.84801 28.905 4.92651 28.8672 5.01732C28.7317 5.29886 28.6686 5.60972 28.6835 5.9218C28.6552 10.8682 28.6293 15.8074 28.6057 20.7397Z" stroke="#0086CD" stroke-width="2" stroke-linecap="round" stroke-linejoin="round"/>
<path d="M37.7569 2.2191C38.3617 2.20186 38.9648 2.2928 39.5376 2.48762C39.9927 2.65817 40.3864 2.96084 40.6682 3.35677C40.9827 3.84073 41.1855 4.38868 41.2618 4.9608C41.3846 5.77937 41.4437 6.60625 41.4384 7.43397V9.74463C41.4384 10.5431 41.4384 11.3416 41.396 12.1259C41.378 12.843 41.2712 13.555 41.078 14.2458C40.9185 14.8236 40.6145 15.3513 40.1948 15.7792C39.9662 15.9892 39.6975 16.1507 39.4048 16.2539C39.1121 16.3571 38.8015 16.4 38.4918 16.3798H37.3683V21.7077C37.4601 21.8773 37.5591 22.0469 37.658 22.2165V23.9831C36.4567 23.9831 35.2626 24.0255 34.0684 24.0749C34.0684 23.4814 34.0684 22.8949 34.0684 22.3013C34.1602 22.1246 34.2591 21.9551 34.3581 21.7784L34.4005 4.48736C34.3015 4.31777 34.2097 4.14818 34.1178 3.97859V2.2191H37.7569ZM37.8982 13.5251C37.9688 13.5289 38.0394 13.5187 38.106 13.4952C38.1726 13.4717 38.234 13.4352 38.2865 13.388C38.339 13.3407 38.3817 13.2836 38.412 13.2198C38.4424 13.156 38.4599 13.0868 38.4635 13.0163C38.5347 12.6009 38.5678 12.1799 38.5625 11.7585V6.32458C38.5769 6.02051 38.5033 5.71874 38.3505 5.45543C38.2715 5.34371 38.1648 5.25438 38.041 5.19617C37.9171 5.13796 37.7803 5.11286 37.6439 5.12332H37.3754C37.3754 7.94981 37.3754 10.7763 37.3754 13.5463L37.8982 13.5251Z" stroke="#0086CD" stroke-width="2" stroke-linecap="round" stroke-linejoin="round"/>
<path d="M43.7286 4.50821C43.6509 4.33155 43.5732 4.16196 43.4884 3.99237V2.21875H49.0919C49.0919 2.81938 49.0919 3.42001 49.0919 4.02064L48.8092 4.53647C49.252 10.4061 49.709 16.2876 50.1801 22.1808L50.4769 22.7249C50.4769 23.3256 50.4769 23.9332 50.4769 24.5339C49.2473 24.4208 48.0178 24.3219 46.7883 24.2442C46.7883 23.6435 46.7883 23.05 46.7883 22.4564L47.078 21.9547C47.0215 20.8241 46.9579 19.6864 46.9014 18.5559C46.2725 18.5205 45.6365 18.4923 45.0076 18.4711C44.9299 19.5946 44.8592 20.7181 44.7815 21.8416C44.8804 22.0112 44.9793 22.1879 45.0712 22.3645C45.0712 22.9581 45.0712 23.5517 45.0712 24.1452C44.1455 24.0958 43.2128 24.0604 42.2871 24.0392C42.2871 23.4457 42.2871 22.8521 42.2871 22.2656L42.5768 21.7639C42.9348 16.0167 43.3188 10.2648 43.7286 4.50821ZM46.7106 15.4608C46.5174 12.1633 46.3313 8.89162 46.1523 5.64587H45.6294C45.4551 8.90104 45.2808 12.1562 45.1065 15.4114L46.7106 15.4608Z" stroke="#0086CD" stroke-width="2" stroke-linecap="round" stroke-linejoin="round"/>
<path d="M58.7159 2.2473L58.7583 8.03454L57.8185 8.69876C57.5853 7.5823 57.3592 6.46583 57.1119 5.35644H56.4052L56.5395 22.8595C56.6384 23.0573 56.7303 23.2481 56.8292 23.4389V25.3114C55.6421 25.1348 54.455 24.9793 53.2961 24.838C53.2961 24.2232 53.2961 23.6156 53.2961 23.0008C53.395 22.8383 53.4869 22.6687 53.5788 22.5062C53.5411 16.7637 53.5034 11.0235 53.4657 5.28578H52.7591C52.5471 6.35984 52.328 7.40564 52.116 8.49384L51.1621 7.78722C51.1621 5.93587 51.1621 4.09158 51.1621 2.24023L58.7159 2.2473Z" stroke="#0086CD" stroke-width="2" stroke-linecap="round" stroke-linejoin="round"/>
<path d="M64.3127 26.6613C64.3127 23.8348 64.2938 20.9942 64.2561 18.1395C64.2713 17.7138 64.166 17.2925 63.9523 16.9241C63.8711 16.7806 63.7529 16.6616 63.6099 16.5795C63.4669 16.4975 63.3045 16.4554 63.1397 16.4577C63.1397 18.938 63.175 21.4041 63.1891 23.9055C63.2881 24.1104 63.387 24.3154 63.4788 24.5273C63.4788 25.1774 63.4788 25.8346 63.4788 26.4917C62.3058 26.2515 61.1258 26.0254 59.9457 25.7851C59.9457 25.1421 59.9457 24.5061 59.9457 23.8702C60.0376 23.7006 60.1295 23.531 60.2284 23.3614C60.186 17.1526 60.1342 10.939 60.0729 4.72072C59.9811 4.52993 59.8821 4.34621 59.7832 4.16249C59.7832 3.52653 59.7832 2.8835 59.7832 2.24754H64.2915C64.7901 2.23053 65.2824 2.36345 65.7047 2.62912C66.1123 2.9199 66.4305 3.31885 66.6233 3.78091C66.8929 4.42087 67.0667 5.09707 67.1391 5.78772C67.2469 6.72603 67.3012 7.66973 67.3017 8.61421C67.3017 9.41976 67.3017 10.2112 67.2451 10.9743C67.2107 11.685 67.1328 12.393 67.0119 13.0942C66.9308 13.6324 66.7787 14.1575 66.5597 14.6558C66.4997 14.8242 66.4061 14.9787 66.2846 15.1099C66.1632 15.241 66.0164 15.3462 65.8531 15.419C66.3209 15.6969 66.6836 16.1217 66.8848 16.6273C67.1704 17.341 67.3051 18.1061 67.2805 18.8744C67.2805 20.8246 67.2805 22.782 67.2805 24.7323C67.3723 24.9513 67.4713 25.1633 67.5631 25.3824C67.5631 26.089 67.5631 26.7391 67.5631 27.4245C66.5032 27.1418 65.415 26.8945 64.3127 26.6613ZM63.6555 13.4192C64.1077 13.4616 64.3621 13.0801 64.3621 12.2745L64.3127 6.45901C64.3431 6.11106 64.2771 5.76144 64.1219 5.44854C64.0762 5.3688 64.0118 5.30138 63.9343 5.25213C63.8567 5.20288 63.7683 5.17328 63.6767 5.16589H63.0902C63.0902 7.90052 63.1255 10.6422 63.1467 13.3768L63.6555 13.4192Z" stroke="#0086CD" stroke-width="2" stroke-linecap="round" stroke-linejoin="round"/>
<path d="M69.3923 4.96032L69.1591 4.35263C69.1591 3.64601 69.1591 2.97472 69.1591 2.28223H74.7627V4.50102C74.6708 4.71301 74.5719 4.91793 74.48 5.12285C74.8946 12.2597 75.3068 19.4885 75.7166 26.8091C75.8085 27.0493 75.9003 27.2896 75.9992 27.5157V29.7486C74.8121 29.3671 73.6203 29.0067 72.4237 28.6675C72.4237 27.9609 72.4237 27.2543 72.4237 26.5476C72.5156 26.3639 72.6075 26.1802 72.7064 25.9965L72.5368 21.891L70.6713 21.4953L70.4593 25.4312L70.742 26.1378C70.742 26.8444 70.742 27.551 70.742 28.2577C69.8375 28.0103 68.933 27.7772 68.0215 27.551C68.0215 26.8444 68.0215 26.1873 68.0215 25.5018L68.2971 24.9789C68.6551 18.3649 69.0202 11.6921 69.3923 4.96032ZM72.3601 18.1176C72.1764 14.1653 71.9927 10.2364 71.809 6.33117H71.2931C71.1236 10.194 70.954 14.0404 70.7844 17.8703L72.3601 18.1176Z" stroke="#0086CD" stroke-width="2" stroke-linecap="round" stroke-linejoin="round"/>
<path d="M5.49307 1.85873C5.6201 1.84982 5.74761 1.84982 5.87464 1.85873C6.03317 1.89534 6.18552 1.95485 6.32688 2.03539C6.50088 2.12745 6.66237 2.24144 6.80739 2.37457C6.98502 2.53895 7.1332 2.73253 7.24549 2.94693C7.30909 2.72081 7.36562 2.48763 7.42921 2.24031H8.94845L8.90605 11.1155L6.58833 11.3345C6.58833 10.0132 6.58833 8.69883 6.58833 7.38452C6.61525 6.90713 6.55785 6.42873 6.41874 5.97127C6.37124 5.84635 6.28388 5.74058 6.17019 5.67032C6.0565 5.60006 5.92282 5.56924 5.78985 5.58263C5.66108 5.58722 5.53658 5.62997 5.43215 5.70546C5.32773 5.78095 5.24809 5.88577 5.20335 6.0066C5.05733 6.44326 4.995 6.90355 5.01963 7.36332L4.99137 23.7287C4.98669 24.0868 5.04407 24.443 5.16096 24.7815C5.17214 24.8457 5.19683 24.9067 5.23338 24.9605C5.26993 25.0144 5.31751 25.0599 5.37297 25.0939C5.42843 25.128 5.49049 25.1499 5.55505 25.1582C5.61961 25.1665 5.6852 25.1609 5.74745 25.1419C5.97344 25.0932 6.18731 24.9994 6.37635 24.8663C6.55905 24.6936 6.68476 24.4693 6.73672 24.2233C6.83798 23.7944 6.89715 23.3565 6.91338 22.9161C6.91338 22.3437 6.96284 21.5876 6.98404 20.6266C7.59174 20.5136 8.2065 20.3934 8.82126 20.2874C8.82126 21.0294 8.82126 21.8279 8.82126 22.6899C8.82126 23.552 8.77179 24.2586 8.7294 24.8098C8.69499 25.3893 8.57596 25.9607 8.37609 26.5057C8.21196 26.9548 7.97305 27.3729 7.66946 27.7423C7.4092 28.063 7.09903 28.3398 6.75086 28.562C6.43787 28.7646 6.09763 28.9216 5.74039 29.0283C5.35672 29.1398 4.95982 29.1993 4.56033 29.205C4.35402 29.207 4.14943 29.1674 3.9588 29.0885C3.76818 29.0095 3.59544 28.893 3.45093 28.7457C3.03217 28.3033 2.72881 27.7645 2.56765 27.177C2.28653 26.1473 2.13928 25.0857 2.12955 24.0184C2.07302 22.8313 2.03062 21.5382 2.00942 20.1461C1.98822 18.7541 2.00942 17.3196 2.00942 15.7933C2.00942 14.267 2.00942 12.5994 2.05182 10.9742C2.09422 9.34893 2.12955 7.77316 2.23554 6.27512C2.28106 5.55267 2.42367 4.83964 2.65951 4.15525C2.8202 3.64214 3.07412 3.16305 3.40853 2.74201C3.66999 2.42929 4.00508 2.18647 4.38367 2.03539C4.73987 1.91039 5.11566 1.85055 5.49307 1.85873Z" stroke="#1D1D1B" stroke-width="2" stroke-linecap="round" stroke-linejoin="round"/>
<path d="M14.6788 19.3259L16.7139 19.0433C16.7139 21.3822 16.6786 23.7141 16.6644 26.053C14.3938 26.477 12.1326 26.9645 9.88086 27.5157C9.88086 26.8091 9.88086 26.1519 9.88086 25.4735L10.1706 24.8164L10.2766 4.90378C10.1847 4.71299 10.0928 4.51514 9.99392 4.32435C9.99392 3.61773 9.99392 2.96057 9.99392 2.27515H13.527C13.527 2.93937 13.527 3.59653 13.527 4.26075C13.4352 4.45154 13.3362 4.64233 13.2373 4.84018L13.1101 23.8483C13.6189 23.7565 14.1206 23.6575 14.6294 23.5727C14.6576 22.1454 14.6718 20.7392 14.6788 19.3259Z" stroke="#1D1D1B" stroke-width="2" stroke-linecap="round" stroke-linejoin="round"/>
<path d="M17.7536 23.9406L18.0433 23.347C18.0952 17.1382 18.1399 10.927 18.1776 4.71343C18.0857 4.5297 17.9939 4.34598 17.8949 4.16226C17.8949 3.5263 17.8949 2.89034 17.8949 2.24731H24.4665C24.4665 3.99267 24.4665 5.73803 24.4312 7.47632L22.4597 7.53991V4.98901H21.1171C21.1171 7.30673 21.1007 9.62445 21.0677 11.9422L22.1205 11.928C22.1205 11.5465 22.1205 11.1719 22.1205 10.7904L23.5338 10.7197C23.5338 12.4227 23.5338 14.1186 23.4985 15.8215L22.0852 15.9346C22.0852 15.5601 22.0852 15.1785 22.0852 14.7969L21.0677 14.8817C21.0677 17.4538 21.0488 20.0259 21.0111 22.598L22.3537 22.4284C22.3537 21.3049 22.3537 20.1814 22.3537 19.0579L24.2545 18.8741C24.2545 20.888 24.2545 22.9019 24.2545 24.9228C22.0711 25.1843 19.9018 25.5093 17.7324 25.8909C17.7466 25.2196 17.7466 24.5836 17.7536 23.9406Z" stroke="#1D1D1B" stroke-width="2" stroke-linecap="round" stroke-linejoin="round"/>
<path d="M33.0151 13.1647C33.0151 14.3094 33.0151 15.4541 32.9585 16.5847C32.902 17.7153 32.8808 18.7753 32.8172 19.7433C32.7723 20.4883 32.6321 21.2245 32.4003 21.9339C32.2221 22.4854 31.9495 23.0018 31.5948 23.4602C31.292 23.8393 30.9143 24.152 30.4854 24.3788C30.0924 24.5843 29.6624 24.7092 29.2205 24.7462C28.7921 24.7848 28.3604 24.7293 27.9557 24.5837C27.533 24.4273 27.1564 24.1673 26.8604 23.8276C26.5021 23.4137 26.2285 22.9335 26.0548 22.4144C25.8227 21.7064 25.6941 20.9686 25.6733 20.2238C25.6167 19.2416 25.5814 18.1676 25.5602 17.0016C25.539 15.8357 25.5602 14.6698 25.5602 13.4685C25.5602 12.2673 25.5602 11.1296 25.6238 9.97074C25.6874 8.81188 25.7157 7.73782 25.7793 6.74855C25.7993 5.99041 25.9253 5.23881 26.1538 4.51562C26.3337 3.96557 26.6087 3.45136 26.9664 2.99638C27.262 2.63036 27.6364 2.3357 28.0616 2.13431C28.6696 1.85619 29.3527 1.78787 30.0037 1.94007C30.6547 2.09227 31.2367 2.45636 31.6584 2.97519C32.0058 3.41787 32.2736 3.9176 32.4498 4.45203C32.674 5.15521 32.807 5.88429 32.8455 6.62136C32.902 7.58943 32.9444 8.63523 32.9656 9.75876C32.9868 10.8823 33.0221 12.0199 33.0151 13.1647ZM28.6057 20.7397C28.5871 21.0467 28.6479 21.3534 28.7824 21.63C28.8207 21.7171 28.8843 21.7906 28.9649 21.8411C29.0456 21.8915 29.1396 21.9164 29.2346 21.9127C29.3335 21.8988 29.427 21.8596 29.5062 21.7989C29.5855 21.7383 29.6477 21.6582 29.6869 21.5664C29.8207 21.2818 29.8837 20.9691 29.8706 20.6549C29.8706 15.7368 29.8942 10.8187 29.9413 5.9006C29.9584 5.59367 29.8976 5.2874 29.7646 5.01026C29.727 4.92132 29.6655 4.84453 29.5869 4.7884C29.5083 4.73228 29.4158 4.69901 29.3194 4.69228C29.2213 4.69915 29.127 4.7332 29.0472 4.79061C28.9673 4.84801 28.905 4.92651 28.8672 5.01732C28.7317 5.29886 28.6686 5.60972 28.6835 5.9218C28.6552 10.8682 28.6293 15.8074 28.6057 20.7397Z" stroke="#1D1D1B" stroke-width="2" stroke-linecap="round" stroke-linejoin="round"/>
<path d="M37.7569 2.2191C38.3617 2.20186 38.9648 2.2928 39.5376 2.48762C39.9927 2.65817 40.3864 2.96084 40.6682 3.35677C40.9827 3.84073 41.1855 4.38868 41.2618 4.9608C41.3846 5.77937 41.4437 6.60625 41.4384 7.43397V9.74463C41.4384 10.5431 41.4384 11.3416 41.396 12.1259C41.378 12.843 41.2712 13.555 41.078 14.2458C40.9185 14.8236 40.6145 15.3513 40.1948 15.7792C39.9662 15.9892 39.6975 16.1507 39.4048 16.2539C39.1121 16.3571 38.8015 16.4 38.4918 16.3798H37.3683V21.7077C37.4601 21.8773 37.5591 22.0469 37.658 22.2165V23.9831C36.4567 23.9831 35.2626 24.0255 34.0684 24.0749C34.0684 23.4814 34.0684 22.8949 34.0684 22.3013C34.1602 22.1246 34.2591 21.9551 34.3581 21.7784L34.4005 4.48736C34.3015 4.31777 34.2097 4.14818 34.1178 3.97859V2.2191H37.7569ZM37.8982 13.5251C37.9688 13.5289 38.0394 13.5187 38.106 13.4952C38.1726 13.4717 38.234 13.4352 38.2865 13.388C38.339 13.3407 38.3817 13.2836 38.412 13.2198C38.4424 13.156 38.4599 13.0868 38.4635 13.0163C38.5347 12.6009 38.5678 12.1799 38.5625 11.7585V6.32458C38.5769 6.02051 38.5033 5.71874 38.3505 5.45543C38.2715 5.34371 38.1648 5.25438 38.041 5.19617C37.9171 5.13796 37.7803 5.11286 37.6439 5.12332H37.3754C37.3754 7.94981 37.3754 10.7763 37.3754 13.5463L37.8982 13.5251Z" stroke="#1D1D1B" stroke-width="2" stroke-linecap="round" stroke-linejoin="round"/>
<path d="M43.7286 4.50821C43.6509 4.33155 43.5732 4.16196 43.4884 3.99237V2.21875H49.0919C49.0919 2.81938 49.0919 3.42001 49.0919 4.02064L48.8092 4.53647C49.252 10.4061 49.709 16.2876 50.1801 22.1808L50.4769 22.7249C50.4769 23.3256 50.4769 23.9332 50.4769 24.5339C49.2473 24.4208 48.0178 24.3219 46.7883 24.2442C46.7883 23.6435 46.7883 23.05 46.7883 22.4564L47.078 21.9547C47.0215 20.8241 46.9579 19.6864 46.9014 18.5559C46.2725 18.5205 45.6365 18.4923 45.0076 18.4711C44.9299 19.5946 44.8592 20.7181 44.7815 21.8416C44.8804 22.0112 44.9793 22.1879 45.0712 22.3645C45.0712 22.9581 45.0712 23.5517 45.0712 24.1452C44.1455 24.0958 43.2128 24.0604 42.2871 24.0392C42.2871 23.4457 42.2871 22.8521 42.2871 22.2656L42.5768 21.7639C42.9348 16.0167 43.3188 10.2648 43.7286 4.50821ZM46.7106 15.4608C46.5174 12.1633 46.3313 8.89162 46.1523 5.64587H45.6294C45.4551 8.90104 45.2808 12.1562 45.1065 15.4114L46.7106 15.4608Z" stroke="#1D1D1B" stroke-width="2" stroke-linecap="round" stroke-linejoin="round"/>
<path d="M58.7159 2.2473L58.7583 8.03454L57.8185 8.69876C57.5853 7.5823 57.3592 6.46583 57.1119 5.35644H56.4052L56.5395 22.8595C56.6384 23.0573 56.7303 23.2481 56.8292 23.4389V25.3114C55.6421 25.1348 54.455 24.9793 53.2961 24.838C53.2961 24.2232 53.2961 23.6156 53.2961 23.0008C53.395 22.8383 53.4869 22.6687 53.5788 22.5062C53.5411 16.7637 53.5034 11.0235 53.4657 5.28578H52.7591C52.5471 6.35984 52.328 7.40564 52.116 8.49384L51.1621 7.78722C51.1621 5.93587 51.1621 4.09158 51.1621 2.24023L58.7159 2.2473Z" stroke="#1D1D1B" stroke-width="2" stroke-linecap="round" stroke-linejoin="round"/>
<path d="M64.3127 26.6613C64.3127 23.8348 64.2938 20.9942 64.2561 18.1395C64.2713 17.7138 64.166 17.2925 63.9523 16.9241C63.8711 16.7806 63.7529 16.6616 63.6099 16.5795C63.4669 16.4975 63.3045 16.4554 63.1397 16.4577C63.1397 18.938 63.175 21.4041 63.1891 23.9055C63.2881 24.1104 63.387 24.3154 63.4788 24.5273C63.4788 25.1774 63.4788 25.8346 63.4788 26.4917C62.3058 26.2515 61.1258 26.0254 59.9457 25.7851C59.9457 25.1421 59.9457 24.5061 59.9457 23.8702C60.0376 23.7006 60.1295 23.531 60.2284 23.3614C60.186 17.1526 60.1342 10.939 60.0729 4.72072C59.9811 4.52993 59.8821 4.34621 59.7832 4.16249C59.7832 3.52653 59.7832 2.8835 59.7832 2.24754H64.2915C64.7901 2.23053 65.2824 2.36345 65.7047 2.62912C66.1123 2.9199 66.4305 3.31885 66.6233 3.78091C66.8929 4.42087 67.0667 5.09707 67.1391 5.78772C67.2469 6.72603 67.3012 7.66973 67.3017 8.61421C67.3017 9.41976 67.3017 10.2112 67.2451 10.9743C67.2107 11.685 67.1328 12.393 67.0119 13.0942C66.9308 13.6324 66.7787 14.1575 66.5597 14.6558C66.4997 14.8242 66.4061 14.9787 66.2846 15.1099C66.1632 15.241 66.0164 15.3462 65.8531 15.419C66.3209 15.6969 66.6836 16.1217 66.8848 16.6273C67.1704 17.341 67.3051 18.1061 67.2805 18.8744C67.2805 20.8246 67.2805 22.782 67.2805 24.7323C67.3723 24.9513 67.4713 25.1633 67.5631 25.3824C67.5631 26.089 67.5631 26.7391 67.5631 27.4245C66.5032 27.1418 65.415 26.8945 64.3127 26.6613ZM63.6555 13.4192C64.1077 13.4616 64.3621 13.0801 64.3621 12.2745L64.3127 6.45901C64.3431 6.11106 64.2771 5.76144 64.1219 5.44854C64.0762 5.3688 64.0118 5.30138 63.9343 5.25213C63.8567 5.20288 63.7683 5.17328 63.6767 5.16589H63.0902C63.0902 7.90052 63.1255 10.6422 63.1467 13.3768L63.6555 13.4192Z" stroke="#1D1D1B" stroke-width="2" stroke-linecap="round" stroke-linejoin="round"/>
<path d="M69.3923 4.96032L69.1591 4.35263C69.1591 3.64601 69.1591 2.97472 69.1591 2.28223H74.7627V4.50102C74.6708 4.71301 74.5719 4.91793 74.48 5.12285C74.8946 12.2597 75.3068 19.4885 75.7166 26.8091C75.8085 27.0493 75.9003 27.2896 75.9992 27.5157V29.7486C74.8121 29.3671 73.6203 29.0067 72.4237 28.6675C72.4237 27.9609 72.4237 27.2543 72.4237 26.5476C72.5156 26.3639 72.6075 26.1802 72.7064 25.9965L72.5368 21.891L70.6713 21.4953L70.4593 25.4312L70.742 26.1378C70.742 26.8444 70.742 27.551 70.742 28.2577C69.8375 28.0103 68.933 27.7772 68.0215 27.551C68.0215 26.8444 68.0215 26.1873 68.0215 25.5018L68.2971 24.9789C68.6551 18.3649 69.0202 11.6921 69.3923 4.96032ZM72.3601 18.1176C72.1764 14.1653 71.9927 10.2364 71.809 6.33117H71.2931C71.1236 10.194 70.954 14.0404 70.7844 17.8703L72.3601 18.1176Z" stroke="#1D1D1B" stroke-width="2" stroke-linecap="round" stroke-linejoin="round"/>
<path d="M5.49307 1.85873C5.6201 1.84982 5.74761 1.84982 5.87464 1.85873C6.03317 1.89534 6.18552 1.95485 6.32688 2.03539C6.50088 2.12745 6.66237 2.24144 6.80739 2.37457C6.98502 2.53895 7.1332 2.73253 7.24549 2.94693C7.30909 2.72081 7.36562 2.48763 7.42921 2.24031H8.94845L8.90605 11.1155L6.58833 11.3345C6.58833 10.0132 6.58833 8.69883 6.58833 7.38452C6.61525 6.90713 6.55785 6.42873 6.41874 5.97127C6.37124 5.84635 6.28388 5.74058 6.17019 5.67032C6.0565 5.60006 5.92282 5.56924 5.78985 5.58263C5.66108 5.58722 5.53658 5.62997 5.43215 5.70546C5.32773 5.78095 5.24809 5.88577 5.20335 6.0066C5.05733 6.44326 4.995 6.90355 5.01963 7.36332L4.99137 23.7287C4.98669 24.0868 5.04407 24.443 5.16096 24.7815C5.17214 24.8457 5.19683 24.9067 5.23338 24.9605C5.26993 25.0144 5.31751 25.0599 5.37297 25.0939C5.42843 25.128 5.49049 25.1499 5.55505 25.1582C5.61961 25.1665 5.6852 25.1609 5.74745 25.1419C5.97344 25.0932 6.18731 24.9994 6.37635 24.8663C6.55905 24.6936 6.68476 24.4693 6.73672 24.2233C6.83798 23.7944 6.89715 23.3565 6.91338 22.9161C6.91338 22.3437 6.96284 21.5876 6.98404 20.6266C7.59174 20.5136 8.2065 20.3934 8.82126 20.2874C8.82126 21.0294 8.82126 21.8279 8.82126 22.6899C8.82126 23.552 8.77179 24.2586 8.7294 24.8098C8.69499 25.3893 8.57596 25.9607 8.37609 26.5057C8.21196 26.9548 7.97305 27.3729 7.66946 27.7423C7.4092 28.063 7.09903 28.3398 6.75086 28.562C6.43787 28.7646 6.09763 28.9216 5.74039 29.0283C5.35672 29.1398 4.95982 29.1993 4.56033 29.205C4.35402 29.207 4.14943 29.1674 3.9588 29.0885C3.76818 29.0095 3.59544 28.893 3.45093 28.7457C3.03217 28.3033 2.72881 27.7645 2.56765 27.177C2.28653 26.1473 2.13928 25.0857 2.12955 24.0184C2.07302 22.8313 2.03062 21.5382 2.00942 20.1461C1.98822 18.7541 2.00942 17.3196 2.00942 15.7933C2.00942 14.267 2.00942 12.5994 2.05182 10.9742C2.09422 9.34893 2.12955 7.77316 2.23554 6.27512C2.28106 5.55267 2.42367 4.83964 2.65951 4.15525C2.8202 3.64214 3.07412 3.16305 3.40853 2.74201C3.66999 2.42929 4.00508 2.18647 4.38367 2.03539C4.73987 1.91039 5.11566 1.85055 5.49307 1.85873Z" fill="url(#paint0_linear_11221_49510)"/>
<path d="M14.6788 19.3259L16.7139 19.0433C16.7139 21.3822 16.6786 23.7141 16.6644 26.053C14.3938 26.477 12.1326 26.9645 9.88086 27.5157C9.88086 26.8091 9.88086 26.1519 9.88086 25.4735L10.1706 24.8164L10.2766 4.90378C10.1847 4.71299 10.0928 4.51514 9.99392 4.32435C9.99392 3.61773 9.99392 2.96057 9.99392 2.27515H13.527C13.527 2.93937 13.527 3.59653 13.527 4.26075C13.4352 4.45154 13.3362 4.64233 13.2373 4.84018L13.1101 23.8483C13.6189 23.7565 14.1206 23.6575 14.6294 23.5727C14.6576 22.1454 14.6718 20.7392 14.6788 19.3259Z" fill="url(#paint1_linear_11221_49510)"/>
<path d="M17.7536 23.9406L18.0433 23.347C18.0952 17.1382 18.1399 10.927 18.1776 4.71343C18.0857 4.5297 17.9939 4.34598 17.8949 4.16226C17.8949 3.5263 17.8949 2.89034 17.8949 2.24731H24.4665C24.4665 3.99267 24.4665 5.73803 24.4312 7.47632L22.4597 7.53991V4.98901H21.1171C21.1171 7.30673 21.1007 9.62445 21.0677 11.9422L22.1205 11.928C22.1205 11.5465 22.1205 11.1719 22.1205 10.7904L23.5338 10.7197C23.5338 12.4227 23.5338 14.1186 23.4985 15.8215L22.0852 15.9346C22.0852 15.5601 22.0852 15.1785 22.0852 14.7969L21.0677 14.8817C21.0677 17.4538 21.0488 20.0259 21.0111 22.598L22.3537 22.4284C22.3537 21.3049 22.3537 20.1814 22.3537 19.0579L24.2545 18.8741C24.2545 20.888 24.2545 22.9019 24.2545 24.9228C22.0711 25.1843 19.9018 25.5093 17.7324 25.8909C17.7466 25.2196 17.7466 24.5836 17.7536 23.9406Z" fill="url(#paint2_linear_11221_49510)"/>
<path d="M33.0151 13.1647C33.0151 14.3094 33.0151 15.4541 32.9585 16.5847C32.902 17.7153 32.8808 18.7753 32.8172 19.7433C32.7723 20.4883 32.6321 21.2245 32.4003 21.9339C32.2221 22.4854 31.9495 23.0018 31.5948 23.4602C31.292 23.8393 30.9143 24.152 30.4854 24.3788C30.0924 24.5843 29.6624 24.7092 29.2205 24.7462C28.7921 24.7848 28.3604 24.7293 27.9557 24.5837C27.533 24.4273 27.1564 24.1673 26.8604 23.8276C26.5021 23.4137 26.2285 22.9335 26.0548 22.4144C25.8227 21.7064 25.6941 20.9686 25.6733 20.2238C25.6167 19.2416 25.5814 18.1676 25.5602 17.0016C25.539 15.8357 25.5602 14.6698 25.5602 13.4685C25.5602 12.2673 25.5602 11.1296 25.6238 9.97074C25.6874 8.81188 25.7157 7.73782 25.7793 6.74855C25.7993 5.99041 25.9253 5.23881 26.1538 4.51562C26.3337 3.96557 26.6087 3.45136 26.9664 2.99638C27.262 2.63036 27.6364 2.3357 28.0616 2.13431C28.6696 1.85619 29.3527 1.78787 30.0037 1.94007C30.6547 2.09227 31.2367 2.45636 31.6584 2.97519C32.0058 3.41787 32.2736 3.9176 32.4498 4.45203C32.674 5.15522 32.807 5.88429 32.8455 6.62136C32.902 7.58943 32.9444 8.63523 32.9656 9.75876C32.9868 10.8823 33.0221 12.0199 33.0151 13.1647ZM28.6057 20.7397C28.5871 21.0467 28.6479 21.3534 28.7824 21.63C28.8207 21.7171 28.8843 21.7906 28.9649 21.8411C29.0456 21.8915 29.1396 21.9164 29.2346 21.9127C29.3335 21.8988 29.427 21.8596 29.5062 21.7989C29.5855 21.7383 29.6477 21.6582 29.6869 21.5664C29.8207 21.2818 29.8837 20.9691 29.8706 20.6549C29.8706 15.7368 29.8942 10.8187 29.9413 5.9006C29.9584 5.59367 29.8976 5.2874 29.7646 5.01026C29.727 4.92132 29.6655 4.84453 29.5869 4.7884C29.5083 4.73228 29.4158 4.69901 29.3194 4.69228C29.2213 4.69915 29.127 4.7332 29.0472 4.79061C28.9673 4.84801 28.905 4.92651 28.8672 5.01732C28.7317 5.29886 28.6686 5.60972 28.6835 5.9218C28.6552 10.8682 28.6293 15.8074 28.6057 20.7397Z" fill="url(#paint3_linear_11221_49510)"/>
<path d="M37.7569 2.2191C38.3617 2.20186 38.9648 2.2928 39.5376 2.48762C39.9927 2.65817 40.3864 2.96084 40.6682 3.35677C40.9827 3.84073 41.1855 4.38868 41.2618 4.9608C41.3846 5.77937 41.4437 6.60625 41.4384 7.43397V9.74463C41.4384 10.5431 41.4384 11.3416 41.396 12.1259C41.378 12.843 41.2712 13.555 41.078 14.2458C40.9185 14.8236 40.6145 15.3513 40.1948 15.7792C39.9662 15.9892 39.6975 16.1507 39.4048 16.2539C39.1121 16.3571 38.8015 16.4 38.4918 16.3798H37.3683V21.7077C37.4601 21.8773 37.5591 22.0469 37.658 22.2165V23.9831C36.4567 23.9831 35.2626 24.0255 34.0684 24.0749C34.0684 23.4814 34.0684 22.8949 34.0684 22.3013C34.1602 22.1246 34.2591 21.9551 34.3581 21.7784L34.4005 4.48736C34.3015 4.31777 34.2097 4.14818 34.1178 3.97859V2.2191H37.7569ZM37.8983 13.5251C37.9688 13.5289 38.0394 13.5187 38.106 13.4952C38.1726 13.4717 38.234 13.4352 38.2865 13.388C38.339 13.3407 38.3817 13.2836 38.412 13.2198C38.4424 13.156 38.4599 13.0868 38.4635 13.0163C38.5347 12.6009 38.5678 12.1799 38.5625 11.7585V6.32458C38.5769 6.02051 38.5033 5.71874 38.3505 5.45543C38.2715 5.34371 38.1648 5.25438 38.041 5.19617C37.9171 5.13796 37.7803 5.11286 37.6439 5.12332H37.3754C37.3754 7.94981 37.3754 10.7763 37.3754 13.5463L37.8983 13.5251Z" fill="url(#paint4_linear_11221_49510)"/>
<path d="M43.7286 4.50821C43.6509 4.33155 43.5732 4.16196 43.4884 3.99237V2.21875H49.0919C49.0919 2.81938 49.0919 3.42001 49.0919 4.02064L48.8092 4.53647C49.252 10.4061 49.709 16.2876 50.1801 22.1808L50.4769 22.7249C50.4769 23.3256 50.4769 23.9332 50.4769 24.5339C49.2473 24.4208 48.0178 24.3219 46.7883 24.2442C46.7883 23.6435 46.7883 23.05 46.7883 22.4564L47.078 21.9547C47.0215 20.8241 46.9579 19.6864 46.9014 18.5559C46.2725 18.5205 45.6365 18.4923 45.0076 18.4711C44.9299 19.5946 44.8592 20.7181 44.7815 21.8416C44.8804 22.0112 44.9793 22.1879 45.0712 22.3645C45.0712 22.9581 45.0712 23.5517 45.0712 24.1452C44.1455 24.0958 43.2128 24.0604 42.2871 24.0392C42.2871 23.4457 42.2871 22.8521 42.2871 22.2656L42.5768 21.7639C42.9348 16.0167 43.3188 10.2648 43.7286 4.50821ZM46.7106 15.4608C46.5174 12.1633 46.3313 8.89162 46.1523 5.64587H45.6294C45.4551 8.90104 45.2808 12.1562 45.1065 15.4114L46.7106 15.4608Z" fill="url(#paint5_linear_11221_49510)"/>
<path d="M58.7159 2.2473L58.7583 8.03454L57.8185 8.69876C57.5853 7.5823 57.3592 6.46583 57.1119 5.35644H56.4052L56.5395 22.8595C56.6384 23.0573 56.7303 23.2481 56.8292 23.4389V25.3114C55.6421 25.1348 54.455 24.9793 53.2961 24.838C53.2961 24.2232 53.2961 23.6156 53.2961 23.0008C53.395 22.8383 53.4869 22.6687 53.5788 22.5062C53.5411 16.7637 53.5034 11.0235 53.4657 5.28578H52.7591C52.5471 6.35984 52.328 7.40564 52.116 8.49384L51.1621 7.78722C51.1621 5.93587 51.1621 4.09158 51.1621 2.24023L58.7159 2.2473Z" fill="url(#paint6_linear_11221_49510)"/>
<path d="M64.3127 26.6613C64.3127 23.8348 64.2938 20.9942 64.2561 18.1395C64.2713 17.7138 64.166 17.2925 63.9523 16.9241C63.8711 16.7806 63.7529 16.6616 63.6099 16.5795C63.4669 16.4975 63.3045 16.4554 63.1397 16.4577C63.1397 18.938 63.175 21.4041 63.1891 23.9055C63.2881 24.1104 63.387 24.3154 63.4788 24.5273C63.4788 25.1774 63.4788 25.8346 63.4788 26.4918C62.3058 26.2515 61.1258 26.0254 59.9457 25.7851C59.9457 25.1421 59.9457 24.5061 59.9457 23.8702C60.0376 23.7006 60.1295 23.531 60.2284 23.3614C60.186 17.1526 60.1342 10.939 60.0729 4.72072C59.9811 4.52993 59.8821 4.34621 59.7832 4.16249C59.7832 3.52653 59.7832 2.8835 59.7832 2.24754H64.2915C64.7901 2.23053 65.2824 2.36345 65.7047 2.62912C66.1123 2.9199 66.4305 3.31885 66.6233 3.78091C66.8929 4.42087 67.0667 5.09707 67.1391 5.78772C67.2469 6.72603 67.3012 7.66973 67.3017 8.61421C67.3017 9.41976 67.3017 10.2112 67.2451 10.9743C67.2107 11.685 67.1328 12.393 67.012 13.0942C66.9308 13.6324 66.7787 14.1575 66.5597 14.6558C66.4997 14.8242 66.4061 14.9787 66.2846 15.1098C66.1632 15.241 66.0164 15.3462 65.8531 15.419C66.3209 15.6969 66.6836 16.1217 66.8848 16.6273C67.1704 17.341 67.3051 18.1061 67.2805 18.8744C67.2805 20.8246 67.2805 22.782 67.2805 24.7323C67.3723 24.9513 67.4713 25.1633 67.5631 25.3824C67.5631 26.089 67.5631 26.7391 67.5631 27.4245C66.5032 27.1418 65.415 26.8945 64.3127 26.6613ZM63.6555 13.4192C64.1077 13.4616 64.3621 13.0801 64.3621 12.2745L64.3127 6.45901C64.3431 6.11106 64.2771 5.76144 64.1219 5.44854C64.0762 5.3688 64.0118 5.30138 63.9343 5.25213C63.8567 5.20288 63.7683 5.17328 63.6767 5.16589H63.0902C63.0902 7.90052 63.1255 10.6422 63.1467 13.3768L63.6555 13.4192Z" fill="url(#paint7_linear_11221_49510)"/>
<path d="M69.3923 4.96032L69.1591 4.35263C69.1591 3.64601 69.1591 2.97472 69.1591 2.28223H74.7627V4.50102C74.6708 4.71301 74.5719 4.91793 74.48 5.12285C74.8946 12.2597 75.3068 19.4885 75.7166 26.8091C75.8085 27.0493 75.9003 27.2896 75.9992 27.5157V29.7486C74.8121 29.3671 73.6203 29.0067 72.4237 28.6675C72.4237 27.9609 72.4237 27.2542 72.4237 26.5476C72.5156 26.3639 72.6075 26.1802 72.7064 25.9965L72.5368 21.891L70.6713 21.4953L70.4593 25.4312L70.742 26.1378C70.742 26.8444 70.742 27.551 70.742 28.2577C69.8375 28.0103 68.933 27.7772 68.0215 27.551C68.0215 26.8444 68.0215 26.1873 68.0215 25.5018L68.2971 24.9789C68.6551 18.3649 69.0202 11.6921 69.3923 4.96032ZM72.3601 18.1176C72.1764 14.1653 71.9927 10.2364 71.809 6.33117H71.2931C71.1236 10.194 70.954 14.0404 70.7844 17.8703L72.3601 18.1176Z" fill="url(#paint8_linear_11221_49510)"/>
<defs>
<linearGradient id="paint0_linear_11221_49510" x1="38.9658" y1="29.7632" x2="38.9658" y2="1.85873" gradientUnits="userSpaceOnUse">
<stop offset="0.13" stop-color="#FFD000"/>
<stop offset="0.5" stop-color="#FFEC00"/>
<stop offset="0.62" stop-color="#FFFADB"/>
<stop offset="0.71" stop-color="#FFEF55"/>
</linearGradient>
<linearGradient id="paint1_linear_11221_49510" x1="38.9654" y1="29.7627" x2="38.9654" y2="1.85824" gradientUnits="userSpaceOnUse">
<stop offset="0.13" stop-color="#FFD000"/>
<stop offset="0.5" stop-color="#FFEC00"/>
<stop offset="0.62" stop-color="#FFFADB"/>
<stop offset="0.71" stop-color="#FFEF55"/>
</linearGradient>
<linearGradient id="paint2_linear_11221_49510" x1="38.9664" y1="29.7632" x2="38.9664" y2="1.85867" gradientUnits="userSpaceOnUse">
<stop offset="0.13" stop-color="#FFD000"/>
<stop offset="0.5" stop-color="#FFEC00"/>
<stop offset="0.62" stop-color="#FFFADB"/>
<stop offset="0.71" stop-color="#FFEF55"/>
</linearGradient>
<linearGradient id="paint3_linear_11221_49510" x1="38.9648" y1="29.7632" x2="38.9648" y2="1.85872" gradientUnits="userSpaceOnUse">
<stop offset="0.13" stop-color="#FFD000"/>
<stop offset="0.5" stop-color="#FFEC00"/>
<stop offset="0.62" stop-color="#FFFADB"/>
<stop offset="0.71" stop-color="#FFEF55"/>
</linearGradient>
<linearGradient id="paint4_linear_11221_49510" x1="38.9653" y1="29.7632" x2="38.9653" y2="1.85873" gradientUnits="userSpaceOnUse">
<stop offset="0.13" stop-color="#FFD000"/>
<stop offset="0.5" stop-color="#FFEC00"/>
<stop offset="0.62" stop-color="#FFFADB"/>
<stop offset="0.71" stop-color="#FFEF55"/>
</linearGradient>
<linearGradient id="paint5_linear_11221_49510" x1="38.966" y1="29.7629" x2="38.966" y2="1.85837" gradientUnits="userSpaceOnUse">
<stop offset="0.13" stop-color="#FFD000"/>
<stop offset="0.5" stop-color="#FFEC00"/>
<stop offset="0.62" stop-color="#FFFADB"/>
<stop offset="0.71" stop-color="#FFEF55"/>
</linearGradient>
<linearGradient id="paint6_linear_11221_49510" x1="38.9658" y1="29.7632" x2="38.9658" y2="1.85866" gradientUnits="userSpaceOnUse">
<stop offset="0.13" stop-color="#FFD000"/>
<stop offset="0.5" stop-color="#FFEC00"/>
<stop offset="0.62" stop-color="#FFFADB"/>
<stop offset="0.71" stop-color="#FFEF55"/>
</linearGradient>
<linearGradient id="paint7_linear_11221_49510" x1="38.9661" y1="29.7634" x2="38.9661" y2="1.8589" gradientUnits="userSpaceOnUse">
<stop offset="0.13" stop-color="#FFD000"/>
<stop offset="0.5" stop-color="#FFEC00"/>
<stop offset="0.62" stop-color="#FFFADB"/>
<stop offset="0.71" stop-color="#FFEF55"/>
</linearGradient>
<linearGradient id="paint8_linear_11221_49510" x1="38.9652" y1="29.7628" x2="38.9652" y2="1.85825" gradientUnits="userSpaceOnUse">
<stop offset="0.13" stop-color="#FFD000"/>
<stop offset="0.5" stop-color="#FFEC00"/>
<stop offset="0.62" stop-color="#FFFADB"/>
<stop offset="0.71" stop-color="#FFEF55"/>
</linearGradient>
</defs>
</svg>
