<svg width="76" height="42" viewBox="0 0 76 42" fill="none" xmlns="http://www.w3.org/2000/svg">
<path fill-rule="evenodd" clip-rule="evenodd" d="M70.173 28.4977C74.1468 24.5402 74.1468 18.1246 70.173 14.168C66.1984 10.2106 59.7549 10.2106 55.7811 14.168C51.8073 18.1246 51.8073 24.5411 55.7811 28.4977C59.7558 32.4542 66.1993 32.4542 70.173 28.4977Z" fill="url(#paint0_radial_11221_49399)"/>
<path d="M45.9842 13.8223C45.9842 12.9682 46.2461 12.3176 46.7708 11.8713C47.2955 11.425 47.9292 11.2019 48.6726 11.2019C49.3783 11.2019 49.993 11.425 50.5178 11.8713C51.0416 12.3176 51.3044 12.9682 51.3044 13.8223V28.6878C51.3044 29.1243 51.2279 29.5132 51.0758 29.8555C50.9228 30.197 50.7275 30.4873 50.489 30.7239C50.2504 30.9614 49.9741 31.1415 49.6591 31.2652C49.345 31.3889 49.0156 31.4507 48.6726 31.4507C48.2154 31.4507 47.7672 31.3369 47.3289 31.1093C46.8896 30.8816 46.5089 30.5205 46.1849 30.0267L40.9789 22.3098V28.8312C40.9789 29.6853 40.717 30.3359 40.1923 30.7822C39.6685 31.2285 39.0339 31.4516 38.2905 31.4516C37.5848 31.4516 36.9746 31.2285 36.4597 30.7822C35.9449 30.3359 35.6875 29.6853 35.6875 28.8312V13.9379C35.6875 13.5203 35.7586 13.1403 35.9017 12.7989C36.0448 12.4574 36.2401 12.1671 36.4886 11.9305C36.7361 11.693 37.0124 11.5129 37.3184 11.3892C37.6235 11.2655 37.9475 11.2037 38.2905 11.2037C38.7675 11.2037 39.2247 11.313 39.6631 11.5317C40.1023 11.7504 40.483 12.1061 40.807 12.5999L45.9842 20.3168V13.8241V13.8223Z" fill="#004F89"/>
<path d="M21.7537 31.335C19.9149 31.335 18.9941 30.4048 18.9941 28.5488V14.1009C18.9941 12.2449 19.914 11.3147 21.7537 11.3147H31.2061C32.0828 11.3147 32.7668 11.5889 33.2511 12.1356C33.738 12.684 33.9801 13.3364 33.9801 14.091C33.9801 14.8456 33.738 15.498 33.2511 16.0464C32.7668 16.5931 32.0819 16.8673 31.2061 16.8673H24.5421V18.7753H30.091C30.892 18.7753 31.5157 19.0271 31.964 19.5298C32.4122 20.0326 32.6363 20.6267 32.6363 21.3096C32.6363 21.9934 32.4122 22.5866 31.964 23.0894C31.5157 23.5921 30.8902 23.8439 30.091 23.8439H24.5421V25.7806H31.2061C32.0828 25.7806 32.765 26.0512 33.2511 26.5925C33.7371 27.1338 33.9801 27.7835 33.9801 28.5434C33.9801 29.3025 33.7362 29.9585 33.2511 30.5087C32.765 31.059 32.0819 31.335 31.2061 31.335H21.7537V31.335Z" fill="#004F89"/>
<path d="M7.45796 28.6864C7.45796 29.5952 7.18164 30.2861 6.62811 30.7512C6.07547 31.2163 5.42653 31.4493 4.68308 31.4493C3.92073 31.4493 3.26729 31.2163 2.72366 30.7512C2.18002 30.2861 1.9082 29.5978 1.9082 28.6864V13.9356C1.9082 13.0618 2.18092 12.387 2.72366 11.9139C3.26549 11.4407 3.91983 11.2014 4.68308 11.2014C5.42653 11.2014 6.07547 11.4398 6.62811 11.9139C7.17984 12.387 7.45796 13.0645 7.45796 13.9356V18.6629L12.0051 12.2553C12.2832 11.8637 12.5739 11.5796 12.906 11.429C13.239 11.2785 13.6549 11.2014 14.1499 11.2014C15.0653 11.2014 15.7754 11.4631 16.2803 11.9847C16.7853 12.5062 17.0382 13.1667 17.0382 13.9643C17.0382 14.2869 16.9896 14.6015 16.8951 14.9035C16.8006 15.2064 16.6215 15.4618 16.409 15.701L11.7467 20.9409L16.4369 26.921C16.8708 27.4739 17.0949 28.0511 17.0949 28.6578C17.0949 29.5118 16.8285 30.1911 16.2938 30.6939C15.7601 31.1966 15.0644 31.4484 14.2057 31.4484C13.7863 31.4484 13.3902 31.3633 13.0185 31.1921C12.6468 31.021 12.3309 30.7422 12.0609 30.3659L7.45616 23.9583V28.6856L7.45796 28.6864Z" fill="#004F89"/>
<path d="M66.8849 27.1363C66.5645 27.329 66.0955 27.4258 65.4763 27.4258H60.6691C59.5827 27.4258 59.0391 27.0091 59.0391 26.1765C59.0391 25.8414 59.2344 25.4515 59.6259 25.0079C60.2775 24.2937 60.9238 23.5794 61.5655 22.8661C62.3477 22.0004 62.9723 21.2593 63.4395 20.6427C63.9606 19.9509 64.2216 19.3666 64.2216 18.8898C64.2216 18.5654 64.1316 18.2975 63.9525 18.0869C63.7734 17.8763 63.5205 17.7705 63.1946 17.7705C62.912 17.7705 62.6636 17.87 62.4494 18.068C62.3351 18.1361 62.2298 18.2276 62.1317 18.3423C61.9904 18.526 61.8274 18.8369 61.6429 19.2752C61.4584 19.7134 61.3063 20.0082 61.1866 20.1597C61.1677 20.183 61.147 20.2054 61.1263 20.2269C60.976 20.3093 60.796 20.3506 60.5872 20.3506C60.1848 20.3506 59.8617 20.2179 59.6178 19.9527C59.373 19.6874 59.2515 19.3549 59.2515 18.9552C59.2515 18.6416 59.3217 18.2849 59.463 17.8843C59.6997 17.1952 60.1038 16.6216 60.6763 16.1637L60.7393 16.1198C61.4512 15.6332 62.2307 15.3894 63.0776 15.3894C64.1748 15.3894 65.0767 15.6977 65.7832 16.3169C66.5222 16.9658 66.8912 17.8341 66.8912 18.9158C66.8912 19.8917 66.397 21.0173 65.4079 22.2961C64.9083 22.9261 64.0335 23.8564 62.7842 25.0931H65.2774C66.5591 25.0931 67.2008 25.5071 67.2008 26.3342C67.2008 26.6694 67.0955 26.9365 66.8849 27.1363V27.1363Z" fill="#FEFEFE"/>
<defs>
<radialGradient id="paint0_radial_11221_49399" cx="0" cy="0" r="1" gradientUnits="userSpaceOnUse" gradientTransform="translate(66.6638 18.1052) rotate(135.198) scale(15.5727 15.574)">
<stop stop-color="#AEC928"/>
<stop offset="0.709804" stop-color="#0A823D"/>
<stop offset="1" stop-color="#AEC928"/>
</radialGradient>
</defs>
</svg>
