<svg width="76" height="42" viewBox="0 0 76 42" fill="none" xmlns="http://www.w3.org/2000/svg">
<path fill-rule="evenodd" clip-rule="evenodd" d="M69.8411 28.2844C73.7689 24.3759 73.7689 18.0397 69.8411 14.1313C65.9132 10.2228 59.5447 10.2228 55.6178 14.1313C51.6899 18.0397 51.6899 24.3768 55.6178 28.2844C59.5456 32.1929 65.9141 32.1929 69.8411 28.2844Z" fill="url(#paint0_radial_11221_49397)"/>
<path fill-rule="evenodd" clip-rule="evenodd" d="M56.9062 29.3685C61.5893 31.0351 65.8667 25.1096 66.5916 22.5234C67.4579 22.9881 68.2664 23.4359 69.0207 23.8687C69.4485 24.1785 70.056 23.5996 69.8834 22.9518C69.5241 21.8268 69.074 20.7497 68.5733 19.6806C69.1808 18.8167 69.7349 18.0042 70.2428 17.236C70.5061 16.8315 70.0685 16.1987 69.6033 16.2607C68.6871 16.3934 67.9533 16.4934 67.0372 16.6227C66.4066 15.6889 64.8376 13.2656 63.5985 13.2559C63.3228 13.2771 63.136 13.4568 63.2303 13.778C63.5176 14.9304 63.6652 15.9057 63.7453 17.0909C62.4058 17.2732 61.0654 17.4546 59.7258 17.6361C58.8773 17.7573 58.7376 18.7681 59.5728 19.1256C60.7798 19.7965 61.9486 20.3913 63.2766 21.0073C62.943 23.6819 60.2889 29.6455 56.9071 29.3676L56.9062 29.3685Z" fill="#FEFEFE"/>
<path d="M45.9352 13.7896C45.9352 12.9461 46.194 12.3036 46.7126 11.8628C47.2311 11.422 47.8573 11.2017 48.592 11.2017C49.2893 11.2017 49.8968 11.422 50.4154 11.8628C50.933 12.3036 51.1928 12.9461 51.1928 13.7896V28.472C51.1928 28.903 51.1172 29.2871 50.9668 29.6252C50.8156 29.9624 50.6226 30.2492 50.3869 30.4837C50.1512 30.7183 49.8781 30.8962 49.5668 31.0183C49.2555 31.1404 48.9309 31.2015 48.592 31.2015C48.1401 31.2015 47.6972 31.0891 47.264 30.8643C46.83 30.6395 46.4537 30.2828 46.1335 29.7951L40.9889 22.1729V28.6136C40.9889 29.457 40.7301 30.0996 40.2115 30.5404C39.693 30.9811 39.0668 31.2015 38.3321 31.2015C37.6347 31.2015 37.0317 30.9811 36.5229 30.5404C36.0142 30.0996 35.7598 29.457 35.7598 28.6136V13.9038C35.7598 13.4913 35.83 13.1161 35.9715 12.7788C36.1129 12.4408 36.3059 12.1549 36.5514 11.9212C36.796 11.6867 37.0691 11.5088 37.3715 11.3866C37.673 11.2645 37.9932 11.2034 38.3321 11.2034C38.8035 11.2034 39.2553 11.3114 39.6885 11.5274C40.1226 11.7433 40.4988 12.0947 40.819 12.5824L45.9352 20.2046V13.7914V13.7896Z" fill="#1E478A"/>
<path d="M21.9877 31.0875C20.1706 31.0875 19.2598 30.1688 19.2598 28.3358V14.0659C19.2598 12.2329 20.1688 11.3142 21.9877 11.3142H31.3297C32.1961 11.3142 32.872 11.585 33.3506 12.1249C33.8318 12.6666 34.071 13.3109 34.071 14.0561C34.071 14.8014 33.8318 15.4457 33.3506 15.9874C32.872 16.5273 32.1952 16.799 31.3297 16.799H24.7433V18.6833H30.2268C31.0184 18.6833 31.6357 18.932 32.0778 19.4285C32.5207 19.925 32.7422 20.5118 32.7422 21.1862C32.7422 21.8615 32.5207 22.4475 32.0778 22.944C31.6348 23.4405 31.0166 23.6892 30.2268 23.6892H24.7433V25.6018H31.3297C32.1961 25.6018 32.8703 25.8691 33.3506 26.4037C33.8309 26.9383 34.071 27.58 34.071 28.3305C34.071 29.0802 33.83 29.728 33.3506 30.2715C32.8703 30.8149 32.1952 31.0875 31.3297 31.0875H21.9877Z" fill="#1E478A"/>
<path d="M7.8594 28.4724C7.8594 29.3698 7.58634 30.0522 7.03932 30.5116C6.49319 30.9709 5.85189 31.201 5.1172 31.201C4.36383 31.201 3.71808 30.9709 3.18085 30.5116C2.64362 30.0522 2.375 29.3725 2.375 28.4724V13.9024C2.375 13.0395 2.64451 12.373 3.18085 11.9057C3.71719 11.4384 4.36294 11.2021 5.1172 11.2021C5.85189 11.2021 6.49319 11.4375 7.03932 11.9057C7.58456 12.373 7.8594 13.0421 7.8594 13.9024V18.5711L12.3538 12.2429C12.6287 11.8561 12.916 11.5756 13.2442 11.4269C13.5733 11.2782 13.9842 11.2012 14.4734 11.2012C15.378 11.2012 16.0798 11.4596 16.5797 11.9747C17.0786 12.4907 17.3286 13.1421 17.3286 13.9298C17.3286 14.2485 17.2805 14.5591 17.1872 14.8583C17.0938 15.1574 16.9168 15.4097 16.7068 15.646L12.0995 20.821L16.7353 26.727C17.164 27.2731 17.3855 27.8431 17.3855 28.4432C17.3855 29.2866 17.1222 29.9575 16.5939 30.454C16.0664 30.9506 15.3789 31.1993 14.5303 31.1993C14.1159 31.1993 13.7245 31.1152 13.3571 30.9461C12.9898 30.7771 12.6776 30.5018 12.4099 30.1301L7.8594 23.8019V28.4706V28.4724Z" fill="#1E478A"/>
<defs>
<radialGradient id="paint0_radial_11221_49397" cx="0" cy="0" r="1" gradientUnits="userSpaceOnUse" gradientTransform="translate(66.7729 17.5744) rotate(136.405) scale(17.745 17.7331)">
<stop stop-color="#FCEA00"/>
<stop offset="0.631373" stop-color="#F39B18"/>
<stop offset="1" stop-color="#FCEA00"/>
</radialGradient>
</defs>
</svg>
