<svg width="76" height="42" viewBox="0 0 76 42" fill="none" xmlns="http://www.w3.org/2000/svg">
<path d="M16.4826 7.1435L16.291 3.51695H27.0511L26.8377 7.1435H23.8806V18.6723H19.4506V7.1435H16.4826ZM32.6689 15.6498C33.1708 15.6498 33.7033 15.6125 34.2615 15.5377C34.8206 15.463 35.3749 15.3626 35.9293 15.2357L36.3906 18.0006C35.7612 18.3065 35.0301 18.5455 34.1982 18.7206C33.3663 18.8957 32.4445 18.9852 31.4327 18.9852C27.7079 18.9852 25.8455 17.0003 25.8455 13.0344C25.8455 11.9898 25.9651 11.0907 26.2051 10.3295C26.4452 9.5721 26.8009 8.94471 27.2693 8.45276C27.7376 7.96082 28.3146 7.59808 29.0042 7.36379C29.6939 7.12871 30.4882 7.00962 31.3882 7.00962C32.2873 7.00962 33.0551 7.13961 33.6931 7.40115C34.3296 7.66581 34.855 8.02465 35.267 8.48701C35.6791 8.94627 35.9832 9.49037 36.174 10.1139C36.3648 10.7405 36.4586 11.4192 36.4586 12.1509C36.4586 12.3743 36.4438 12.6063 36.4133 12.8414C36.3835 13.0764 36.3499 13.3006 36.3085 13.5092C36.2671 13.7178 36.2217 13.9124 36.1771 14.0837C36.1318 14.2549 36.0903 14.3896 36.0536 14.4869H30.274C30.3045 14.6846 30.3717 14.8597 30.4726 15.0014C30.5742 15.1478 30.7165 15.2661 30.9003 15.3634C31.0832 15.4568 31.3202 15.5307 31.6079 15.5798C31.8964 15.6288 32.249 15.6506 32.6689 15.6506V15.6498ZM32.4328 11.687C32.4249 11.2425 32.3358 10.9226 32.163 10.728C31.991 10.5303 31.7213 10.433 31.3538 10.433C30.9941 10.433 30.7173 10.5342 30.518 10.7389C30.3194 10.9405 30.2107 11.2573 30.1958 11.6862H32.4328V11.687ZM42.3226 18.8732C41.7081 19 41.1193 19.0148 40.5541 18.9183C39.988 18.821 39.486 18.6233 39.0505 18.3252C38.6158 18.0263 38.2679 17.6386 38.0051 17.1615C37.7424 16.6835 37.6119 16.1278 37.6119 15.4934V3.2593L41.8621 2.80005V14.7095C41.8621 14.9781 41.9075 15.2209 41.9935 15.4373C42.0795 15.6537 42.1882 15.8436 42.3195 16.0079C42.4509 16.1721 42.5932 16.3107 42.7503 16.4228C42.9075 16.5341 43.0615 16.6166 43.2116 16.6687L42.3234 18.8739L42.3226 18.8732ZM50.5597 15.6498C51.0616 15.6498 51.5941 15.6125 52.1523 15.5377C52.7114 15.463 53.2657 15.3626 53.8201 15.2357L54.2814 18.0006C53.652 18.3065 52.9209 18.5455 52.089 18.7206C51.2571 18.8957 50.3353 18.9852 49.3227 18.9852C45.5979 18.9852 43.7355 17.0003 43.7355 13.0344C43.7355 11.9898 43.8551 11.0907 44.0951 10.3295C44.3352 9.5721 44.6909 8.94471 45.1601 8.45276C45.6284 7.96082 46.2054 7.59808 46.895 7.36379C47.5854 7.12871 48.379 7.00962 49.279 7.00962C50.1781 7.00962 50.9459 7.13961 51.5839 7.40115C52.2204 7.66581 52.7458 8.02465 53.1578 8.48701C53.5699 8.94627 53.874 9.49037 54.0648 10.1139C54.2556 10.7405 54.3494 11.4192 54.3494 12.1509C54.3494 12.3743 54.3345 12.6063 54.304 12.8414C54.2743 13.0764 54.2407 13.3006 54.1993 13.5092C54.1578 13.7178 54.1125 13.9124 54.0679 14.0837C54.0226 14.2549 53.9811 14.3896 53.9444 14.4869H48.1656C48.1961 14.6846 48.2633 14.8597 48.3642 15.0014C48.4658 15.1478 48.6081 15.2661 48.7919 15.3634C48.9748 15.4568 49.2117 15.5307 49.5002 15.5798C49.7887 15.6288 50.1414 15.6506 50.5612 15.6506L50.5597 15.6498ZM50.3235 11.687C50.3165 11.2425 50.2266 10.9226 50.0538 10.728C49.8818 10.5303 49.612 10.433 49.2446 10.433C48.8849 10.433 48.6073 10.5342 48.4087 10.7389C48.2101 10.9405 48.1015 11.2573 48.0866 11.6862H50.3235V11.687Z" fill="#1F478A"/>
<path d="M53.418 27.6418C53.418 25.3276 53.9481 23.6027 55.0075 22.4631C56.067 21.3282 57.6065 20.7607 59.6252 20.7607C61.6605 20.7607 63.2 21.3368 64.243 22.4857C65.2852 23.6338 65.8067 25.3626 65.8067 27.6682C65.8067 30.0299 65.2813 31.7852 64.2258 32.9426C63.1702 34.0947 61.6268 34.6715 59.6002 34.6715C57.5728 34.6715 56.038 34.0947 54.9911 32.9426C53.9442 31.7852 53.4188 30.0213 53.4188 27.6425L53.418 27.6418ZM60.9622 27.6931C60.9622 27.0774 60.9372 26.5668 60.8864 26.1597C60.8364 25.7518 60.7566 25.4272 60.6464 25.1883C60.5416 24.9501 60.4024 24.7812 60.2343 24.6815C60.0654 24.5811 59.8684 24.5297 59.6456 24.5297C59.4188 24.5297 59.2163 24.5772 59.0482 24.673C58.8762 24.7679 58.7331 24.9368 58.619 25.1797C58.5056 25.4226 58.4219 25.7471 58.3672 26.1511C58.3125 26.5543 58.2875 27.0696 58.2875 27.6931C58.2875 28.3127 58.3125 28.8288 58.3672 29.2406C58.4219 29.6524 58.5064 29.9816 58.6151 30.2284C58.7245 30.4751 58.859 30.6487 59.0279 30.7483C59.196 30.8488 59.3977 30.9001 59.6331 30.9001C59.8559 30.9001 60.0529 30.8488 60.2218 30.7483C60.3907 30.6487 60.5291 30.4759 60.6339 30.2284C60.7433 29.9816 60.827 29.6516 60.8817 29.2406C60.9364 28.8288 60.9615 28.3135 60.9615 27.6931H60.9622Z" fill="#1F478A"/>
<path fill-rule="evenodd" clip-rule="evenodd" d="M60.897 4.14176C61.6906 4.98943 62.7547 6.54545 63.5483 7.3939C64.6875 7.18529 65.8267 6.97746 66.9643 6.77118C67.564 6.66298 67.8533 7.21954 67.5609 7.78621C67.0628 8.75376 66.564 9.72208 66.0652 10.6896C66.6258 11.7848 67.3474 12.9828 67.9057 14.0749C68.1536 14.5606 67.8869 14.8073 67.3826 14.7972C66.1582 14.7731 64.9463 14.675 63.7282 14.6252C62.0972 19.1033 60.467 22.3757 58.7781 24.9771C56.1948 28.9555 53.2253 31.9951 50.1299 34.7631C44.2025 40.0632 32.0545 41.827 29.1906 35.1437C28.9325 34.5413 29.4697 33.9069 29.8653 34.7133C30.2758 35.5493 30.8552 36.1798 31.5651 36.6079C36.2915 39.4646 44.1986 34.1824 47.6154 31.1264C50.0728 28.929 52.4387 26.2879 54.5177 23.0661C56.3575 20.2156 57.972 16.909 59.2269 13.0536L55.7296 11.317C55.1768 11.0422 55.3027 10.3144 55.7937 10.0677C56.8023 9.56173 58.4443 9.07056 59.4545 8.56227C59.628 7.44216 59.9212 5.52108 60.0909 4.4033C60.1605 3.94638 60.56 3.78058 60.8986 4.14176H60.897Z" fill="#FDCB14"/>
<path d="M6.125 16.7395H13.5051C14.2111 16.7395 14.8882 16.822 15.5325 16.9901C16.176 17.1591 16.7397 17.4229 17.2268 17.7779C17.7147 18.1328 18.1017 18.5913 18.3871 19.1549C18.6733 19.7176 18.8163 20.3878 18.8163 21.167C18.8163 22.0676 18.6443 22.8382 18.2948 23.4789C17.9461 24.1195 17.3409 24.5951 16.4825 24.9072V25.0894C16.8867 25.245 17.2612 25.4311 17.6013 25.6521C17.9422 25.8732 18.2323 26.1456 18.4762 26.4656C18.7202 26.7855 18.9086 27.1622 19.0439 27.5997C19.1783 28.0364 19.2456 28.5517 19.2456 29.1409C19.2456 29.9201 19.1361 30.6253 18.9172 31.262C18.6991 31.898 18.3292 32.4437 17.8077 32.8982C17.2862 33.3528 16.5966 33.7031 15.7342 33.9498C14.8726 34.1966 13.7959 34.3219 12.509 34.3219H6.125V16.7403L6.125 16.7395ZM10.8936 26.8672V30.6066H12.3573C12.9632 30.6066 13.4339 30.4689 13.7709 30.191C14.1071 29.9146 14.2752 29.4422 14.2752 28.7758C14.2752 28.178 14.1235 27.711 13.821 27.3732C13.5184 27.0361 13.0391 26.8664 12.3823 26.8664H10.8936V26.8672ZM10.8936 20.1676V23.4392H12.3573C13.4676 23.4392 14.0227 22.8725 14.0227 21.7384C14.0227 21.1748 13.8671 20.7724 13.5559 20.5303C13.2447 20.2882 12.8116 20.1668 12.2564 20.1668H10.8936V20.1676Z" fill="#1F478A"/>
<path d="M21.1454 34.3064V29.569L20.0859 29.3737V25.7938H25.9148V34.3064H21.1462H21.1454ZM20.3377 22.4397C20.3377 21.989 20.401 21.6084 20.5222 21.3001C20.6442 20.9927 20.8209 20.7451 21.0562 20.5544C21.2924 20.3637 21.5863 20.2252 21.9398 20.1427C22.2932 20.0602 22.6966 20.0212 23.1509 20.0212C23.6051 20.0212 24.0125 20.0609 24.3745 20.1427C24.7365 20.2252 25.0391 20.363 25.283 20.5544C25.527 20.7451 25.717 20.9927 25.8468 21.3001C25.9766 21.6076 26.0399 21.989 26.0399 22.4397C26.0399 22.8733 25.9766 23.2368 25.8507 23.5318C25.724 23.8268 25.5395 24.0596 25.2948 24.2378C25.0508 24.4153 24.7482 24.5414 24.3862 24.6153C24.025 24.6893 23.613 24.7282 23.1501 24.7282C22.6958 24.7282 22.2924 24.6885 21.939 24.6153C21.5856 24.5414 21.2916 24.4161 21.0555 24.2378C20.8201 24.0603 20.6434 23.826 20.5214 23.5318C20.3995 23.2368 20.3369 22.8733 20.3369 22.4397H20.3377Z" fill="#1F478A"/>
<path d="M32.3202 34.3064H27.5508V21.1235H31.3358L31.5751 22.4803C31.7776 22.246 32.0082 22.0249 32.2647 21.8171C32.5219 21.6085 32.8026 21.4224 33.1138 21.2667C33.4258 21.1111 33.762 20.9889 34.1193 20.8986C34.4766 20.8075 34.855 20.76 35.2593 20.76C36.0833 20.76 36.7644 20.8807 37.3031 21.1235C37.841 21.3664 38.2702 21.7346 38.5861 22.2281C38.9012 22.7223 39.1201 23.342 39.246 24.0915C39.3727 24.8411 39.4352 25.7293 39.4352 26.7521V34.3057H34.6666V26.2672C34.6666 25.6826 34.6033 25.249 34.4727 24.9711C34.3429 24.694 34.0857 24.5555 33.7072 24.5555C33.4125 24.5555 33.1646 24.6037 32.959 24.6987C32.7534 24.7937 32.5391 24.9244 32.3202 25.0887V34.3057V34.3064Z" fill="#1F478A"/>
<path d="M40.1992 35.8056C40.1992 35.5542 40.2414 35.3121 40.3259 35.0778C40.4095 34.8435 40.5276 34.6225 40.6754 34.4185C40.8224 34.2154 40.9905 34.0239 41.1836 33.8464C41.3775 33.6689 41.5878 33.5086 41.8146 33.37C41.4737 33.1443 41.2219 32.8586 41.0616 32.5076C40.8974 32.1565 40.8177 31.758 40.8177 31.3073C40.8177 31.0901 40.8513 30.869 40.9185 30.6394C40.9858 30.4098 41.078 30.1926 41.2008 29.9856C41.3181 29.777 41.4658 29.5824 41.6379 29.4049C41.8067 29.2313 41.9999 29.0756 42.2188 28.9456C41.6887 28.6164 41.2688 28.1524 40.9569 27.5593C40.6457 26.9607 40.4901 26.2329 40.4901 25.3751C40.4901 24.6683 40.6292 24.0355 40.9068 23.4634C41.1836 22.8959 41.5753 22.411 42.0718 22.0125C42.5683 21.6092 43.1656 21.301 43.8592 21.0846C44.5527 20.8682 45.3181 20.76 46.1547 20.76C46.4917 20.76 46.8318 20.7904 47.1727 20.8464C47.5128 20.9025 47.9249 20.985 48.405 21.0978L52.9805 21.0846V24.062L51.6177 23.9187C51.6849 24.0923 51.7396 24.322 51.7811 24.6037C51.8233 24.8847 51.8444 25.1797 51.8444 25.4833C51.8444 26.194 51.7099 26.8222 51.441 27.3725C51.1712 27.9181 50.7928 28.3782 50.301 28.7464C49.8084 29.1145 49.2244 29.3916 48.5434 29.5777C47.8663 29.7645 47.1094 29.8595 46.2767 29.8595C46.0617 29.8595 45.8639 29.8509 45.6919 29.8377C45.5199 29.8205 45.3604 29.8026 45.2087 29.7808C45.1414 29.8501 45.0867 29.928 45.0445 30.0151C45.003 30.1015 44.9819 30.1926 44.9819 30.2884C44.9819 30.5048 45.0578 30.6869 45.2087 30.834C45.3604 30.9811 45.5871 31.0543 45.8897 31.0543H47.6684C48.4003 31.0543 49.0813 31.1111 49.7122 31.224C50.3432 31.3361 50.8944 31.5486 51.3612 31.8607C51.828 32.1729 52.1939 32.6103 52.4582 33.1692C52.7232 33.7289 52.8538 34.452 52.8538 35.3402C52.8538 35.9995 52.7154 36.5926 52.4418 37.1211C52.1681 37.6497 51.7607 38.1011 51.2181 38.4685C50.6755 38.8367 49.9945 39.1193 49.1782 39.3139C48.362 39.5092 47.4081 39.6089 46.3103 39.6089C45.8905 39.6089 45.4487 39.5964 44.9858 39.5739C44.523 39.5521 44.0648 39.5007 43.6058 39.4182C43.1516 39.3357 42.7192 39.215 42.3064 39.0547C41.8943 38.8943 41.5331 38.6732 41.2219 38.3915C40.9107 38.1105 40.6629 37.7586 40.4776 37.3344C40.293 36.9141 40.2 36.4027 40.2 35.8041L40.1992 35.8056ZM44.1226 35.4024C44.1226 35.541 44.1438 35.6842 44.1813 35.8228C44.2196 35.9613 44.308 36.0874 44.451 36.1956C44.5933 36.3046 44.8084 36.3949 45.0984 36.4642C45.3846 36.5334 45.7755 36.5677 46.272 36.5677C46.7638 36.5677 47.1587 36.5334 47.4573 36.4681C47.756 36.4027 47.9874 36.3163 48.1509 36.2073C48.315 36.0991 48.4245 35.973 48.4792 35.8259C48.5332 35.6834 48.5637 35.527 48.5637 35.3627C48.5637 35.0327 48.4628 34.8077 48.2611 34.691C48.0594 34.5734 47.7904 34.5135 47.4495 34.5135H44.7411C44.5566 34.617 44.4088 34.7392 44.2962 34.8817C44.1821 35.0202 44.1234 35.1938 44.1234 35.4016L44.1226 35.4024ZM44.9553 25.3619C44.9553 26.2461 45.376 26.6883 46.2126 26.6883C47.0742 26.6883 47.5035 26.2508 47.5035 25.3759C47.5035 24.9338 47.3987 24.5959 47.1884 24.3617C46.982 24.1274 46.6629 24.0106 46.2376 24.0106C45.3838 24.0106 44.9553 24.4613 44.9553 25.3627V25.3619Z" fill="#1F478A"/>
</svg>
