<svg width="404" height="1584" viewBox="0 0 404 1584" fill="none" xmlns="http://www.w3.org/2000/svg">
<mask id="mask0_983_10241" style="mask-type:alpha" maskUnits="userSpaceOnUse" x="22" y="0" width="360" height="60">
<rect x="22" y="60" width="60" height="360" transform="rotate(-90 22 60)" fill="#004E8F"/>
</mask>
<g mask="url(#mask0_983_10241)">
<path fill-rule="evenodd" clip-rule="evenodd" d="M-599.097 -326.586L-729.269 -262.901C-735.023 -260.102 -741.054 -256.451 -747.429 -255.501C-750.345 -255.081 -753.311 -255.096 -756.234 -255.547C-760.048 -256.099 -763.727 -257.422 -767.055 -259.438C-770.383 -261.455 -773.293 -264.125 -775.616 -267.292C-777.939 -270.458 -779.628 -274.059 -780.584 -277.883C-781.541 -281.706 -781.745 -285.677 -781.185 -289.561C-780.116 -296.934 -774.53 -306.885 -771.353 -313.786L-712.866 -440.052L-819.16 -551.173C-820.582 -552.616 -821.932 -554.132 -823.205 -555.713C-825.748 -558.919 -827.612 -562.627 -828.676 -566.596C-829.739 -570.566 -829.979 -574.709 -829.379 -578.757C-828.345 -585.477 -825.136 -591.618 -820.262 -596.2C-815.389 -600.782 -809.134 -603.541 -802.496 -604.035C-798.086 -604.384 -791.262 -603.123 -786.096 -602.472L-641.756 -583.964L-569.254 -721.737C-568.873 -722.468 -568.44 -723.139 -568.021 -723.861C-564.975 -728.92 -560.539 -732.94 -555.259 -735.426C-549.978 -737.912 -544.083 -738.757 -538.296 -737.857C-526.083 -735.987 -516.769 -726.846 -513.934 -715.525C-513.729 -714.692 -513.521 -713.915 -513.354 -713.09L-483.745 -559.554L-340.486 -533.652C-335.345 -532.754 -328.453 -531.844 -324.347 -530.169C-319.363 -528.191 -314.991 -524.85 -311.714 -520.515C-308.436 -516.18 -306.38 -511.019 -305.773 -505.601C-305.165 -500.182 -306.029 -494.718 -308.269 -489.808C-310.51 -484.899 -314.04 -480.736 -318.47 -477.778C-320.185 -476.579 -321.818 -475.679 -323.633 -474.656L-457.007 -400.66C-306.438 -81.4712 52.6167 94.8658 402.388 1.14492C616.315 -56.1768 782.745 -202.745 873.06 -388.415C875.818 -394.26 880.964 -398.858 887.638 -400.646C905.591 -405.457 920.564 -388.378 914.808 -370.722C913.074 -365.429 910.473 -359.2 907.418 -352.647C893.468 -322.676 874.876 -290.258 857.313 -262.205C748.693 -88.8353 577.531 45.1811 365.318 102.043C-22.3263 205.912 -419.957 18.544 -599.102 -326.603L-599.097 -326.586Z" fill="#004E8F"/>
</g>
<rect width="360" height="1430" transform="translate(22 60)" fill="#004E8F"/>
<g filter="url(#filter0_d_983_10241)">
<mask id="mask1_983_10241" style="mask-type:alpha" maskUnits="userSpaceOnUse" x="22" y="1490" width="360" height="60">
<rect x="22" y="1550" width="60" height="360" transform="rotate(-90 22 1550)" fill="#004E8F"/>
</mask>
<g mask="url(#mask1_983_10241)">
<path fill-rule="evenodd" clip-rule="evenodd" d="M-599.097 1092.41L-729.269 1156.1C-735.023 1158.9 -741.054 1162.55 -747.429 1163.5C-750.345 1163.92 -753.311 1163.9 -756.234 1163.45C-760.048 1162.9 -763.727 1161.58 -767.055 1159.56C-770.383 1157.54 -773.293 1154.88 -775.616 1151.71C-777.939 1148.54 -779.628 1144.94 -780.584 1141.12C-781.541 1137.29 -781.745 1133.32 -781.185 1129.44C-780.116 1122.07 -774.53 1112.12 -771.353 1105.21L-712.866 978.948L-819.16 867.827C-820.582 866.384 -821.932 864.868 -823.205 863.287C-825.748 860.081 -827.612 856.373 -828.676 852.404C-829.739 848.434 -829.979 844.291 -829.379 840.243C-828.345 833.523 -825.136 827.382 -820.262 822.8C-815.389 818.218 -809.134 815.459 -802.496 814.965C-798.086 814.616 -791.262 815.877 -786.096 816.528L-641.756 835.036L-569.254 697.263C-568.873 696.532 -568.44 695.861 -568.021 695.139C-564.975 690.08 -560.539 686.06 -555.259 683.574C-549.978 681.088 -544.083 680.243 -538.296 681.143C-526.083 683.013 -516.769 692.154 -513.934 703.475C-513.729 704.308 -513.521 705.085 -513.354 705.91L-483.745 859.446L-340.486 885.348C-335.345 886.246 -328.453 887.156 -324.347 888.831C-319.363 890.809 -314.991 894.15 -311.714 898.485C-308.436 902.82 -306.38 907.981 -305.773 913.399C-305.165 918.818 -306.029 924.282 -308.269 929.192C-310.51 934.101 -314.04 938.264 -318.47 941.222C-320.185 942.421 -321.818 943.321 -323.633 944.344L-457.007 1018.34C-306.438 1337.53 52.6167 1513.87 402.388 1420.14C616.315 1362.82 782.745 1216.26 873.06 1030.59C875.818 1024.74 880.964 1020.14 887.638 1018.35C905.591 1013.54 920.564 1030.62 914.808 1048.28C913.074 1053.57 910.473 1059.8 907.418 1066.35C893.468 1096.32 874.876 1128.74 857.313 1156.8C748.693 1330.16 577.531 1464.18 365.318 1521.04C-22.3263 1624.91 -419.957 1437.54 -599.102 1092.4L-599.097 1092.41Z" fill="#004E8F"/>
</g>
</g>
<defs>
<filter id="filter0_d_983_10241" x="0" y="1480" width="404" height="103.634" filterUnits="userSpaceOnUse" color-interpolation-filters="sRGB">
<feFlood flood-opacity="0" result="BackgroundImageFix"/>
<feColorMatrix in="SourceAlpha" type="matrix" values="0 0 0 0 0 0 0 0 0 0 0 0 0 0 0 0 0 0 127 0" result="hardAlpha"/>
<feOffset dy="12"/>
<feGaussianBlur stdDeviation="11"/>
<feComposite in2="hardAlpha" operator="out"/>
<feColorMatrix type="matrix" values="0 0 0 0 0.316528 0 0 0 0 0.0418056 0 0 0 0 0.0418057 0 0 0 0.38 0"/>
<feBlend mode="normal" in2="BackgroundImageFix" result="effect1_dropShadow_983_10241"/>
<feBlend mode="normal" in="SourceGraphic" in2="effect1_dropShadow_983_10241" result="shape"/>
</filter>
</defs>
</svg>
