<svg width="360" height="60" viewBox="0 0 360 60" fill="none" xmlns="http://www.w3.org/2000/svg">
<path fill-rule="evenodd" clip-rule="evenodd" d="M-621.097 -326.586L-751.269 -262.901C-757.023 -260.102 -763.054 -256.451 -769.429 -255.501C-772.345 -255.081 -775.311 -255.096 -778.234 -255.547C-782.048 -256.099 -785.727 -257.422 -789.055 -259.438C-792.383 -261.455 -795.293 -264.125 -797.616 -267.292C-799.939 -270.458 -801.628 -274.059 -802.584 -277.883C-803.541 -281.706 -803.745 -285.677 -803.185 -289.561C-802.116 -296.934 -796.53 -306.885 -793.353 -313.786L-734.866 -440.052L-841.16 -551.173C-842.582 -552.616 -843.932 -554.132 -845.205 -555.713C-847.748 -558.919 -849.612 -562.627 -850.676 -566.596C-851.739 -570.566 -851.979 -574.709 -851.379 -578.757C-850.345 -585.477 -847.136 -591.618 -842.262 -596.2C-837.389 -600.782 -831.134 -603.541 -824.496 -604.035C-820.086 -604.384 -813.262 -603.123 -808.096 -602.472L-663.756 -583.964L-591.254 -721.737C-590.873 -722.468 -590.44 -723.139 -590.021 -723.861C-586.975 -728.92 -582.539 -732.94 -577.259 -735.426C-571.978 -737.912 -566.083 -738.757 -560.296 -737.857C-548.083 -735.987 -538.769 -726.846 -535.934 -715.525C-535.729 -714.692 -535.521 -713.915 -535.354 -713.09L-505.745 -559.554L-362.486 -533.652C-357.345 -532.754 -350.453 -531.844 -346.347 -530.169C-341.363 -528.191 -336.991 -524.85 -333.714 -520.515C-330.436 -516.18 -328.38 -511.019 -327.773 -505.601C-327.165 -500.182 -328.029 -494.718 -330.269 -489.808C-332.51 -484.899 -336.04 -480.736 -340.47 -477.778C-342.185 -476.579 -343.818 -475.679 -345.634 -474.656L-479.007 -400.66C-328.438 -81.4712 30.6167 94.8658 380.388 1.14491C594.315 -56.1768 760.745 -202.745 851.06 -388.415C853.818 -394.26 858.964 -398.858 865.638 -400.646C883.591 -405.457 898.563 -388.378 892.808 -370.722C891.074 -365.429 888.473 -359.2 885.418 -352.647C871.468 -322.675 852.876 -290.258 835.313 -262.205C726.693 -88.8353 555.531 45.1811 343.318 102.043C-44.3263 205.912 -441.957 18.544 -621.102 -326.603L-621.097 -326.586Z" fill="#004E8F"/>
</svg>
