<svg width="360" height="60" viewBox="0 0 360 60" fill="none" xmlns="http://www.w3.org/2000/svg">
<path fill-rule="evenodd" clip-rule="evenodd" d="M-621.097 -397.586L-751.269 -333.901C-757.023 -331.102 -763.054 -327.451 -769.429 -326.501C-772.345 -326.081 -775.311 -326.096 -778.234 -326.547C-782.048 -327.099 -785.727 -328.422 -789.055 -330.438C-792.383 -332.455 -795.293 -335.125 -797.616 -338.292C-799.939 -341.458 -801.628 -345.059 -802.584 -348.883C-803.541 -352.706 -803.745 -356.677 -803.185 -360.561C-802.116 -367.934 -796.53 -377.885 -793.353 -384.786L-734.866 -511.052L-841.16 -622.173C-842.582 -623.616 -843.932 -625.132 -845.205 -626.713C-847.748 -629.919 -849.612 -633.627 -850.676 -637.596C-851.739 -641.566 -851.979 -645.709 -851.379 -649.757C-850.345 -656.477 -847.136 -662.618 -842.262 -667.2C-837.389 -671.782 -831.134 -674.541 -824.496 -675.035C-820.086 -675.384 -813.262 -674.123 -808.096 -673.472L-663.756 -654.964L-591.254 -792.737C-590.873 -793.468 -590.44 -794.139 -590.021 -794.861C-586.975 -799.92 -582.539 -803.94 -577.259 -806.426C-571.978 -808.912 -566.083 -809.757 -560.296 -808.857C-548.083 -806.987 -538.769 -797.846 -535.934 -786.525C-535.729 -785.692 -535.521 -784.915 -535.354 -784.09L-505.745 -630.554L-362.486 -604.652C-357.345 -603.754 -350.453 -602.844 -346.347 -601.169C-341.363 -599.191 -336.991 -595.85 -333.714 -591.515C-330.436 -587.18 -328.38 -582.019 -327.773 -576.601C-327.165 -571.182 -328.029 -565.718 -330.269 -560.808C-332.51 -555.899 -336.04 -551.736 -340.47 -548.778C-342.185 -547.579 -343.818 -546.679 -345.633 -545.656L-479.007 -471.66C-328.438 -152.471 30.6167 23.8658 380.388 -69.8551C594.315 -127.177 760.745 -273.745 851.06 -459.415C853.818 -465.26 858.964 -469.858 865.638 -471.646C883.591 -476.457 898.564 -459.378 892.808 -441.722C891.074 -436.429 888.473 -430.2 885.418 -423.647C871.468 -393.676 852.876 -361.258 835.313 -333.205C726.693 -159.835 555.531 -25.8189 343.318 31.0433C-44.3263 134.912 -441.957 -52.456 -621.102 -397.603L-621.097 -397.586Z" fill="#004E8F"/>
</svg>
