<svg width="20" height="20" viewBox="0 0 20 20" fill="none" xmlns="http://www.w3.org/2000/svg">
<mask id="mask0_11356_37782" style="mask-type:alpha" maskUnits="userSpaceOnUse" x="3" y="1" width="14" height="18">
<path fill-rule="evenodd" clip-rule="evenodd" d="M12.4096 2.38807C11.9531 1.93152 11.3376 1.66877 10.6919 1.66726C10.4735 1.66675 10.2434 1.66675 10.0007 1.66675C7.6671 1.66675 6.50033 1.66675 5.60903 2.12089C4.82502 2.52036 4.18759 3.15778 3.78813 3.94179C3.33398 4.83309 3.33398 5.99987 3.33398 8.33342V11.6667C3.33398 14.0003 3.33398 15.1671 3.78813 16.0584C4.18759 16.8424 4.82502 17.4798 5.60903 17.8792C6.50033 18.3334 7.6671 18.3334 10.0007 18.3334C12.3342 18.3334 13.501 18.3334 14.3922 17.8792C15.1763 17.4798 15.8137 16.8424 16.2132 16.0584C16.6673 15.1671 16.6673 14.0003 16.6673 11.6667V8.33342C16.6673 8.09071 16.6673 7.86061 16.6668 7.64215C16.6653 6.99649 16.4026 6.38101 15.946 5.92447L12.4096 2.38807Z" fill="white"/>
</mask>
<g mask="url(#mask0_11356_37782)">
<path d="M5.60903 2.12089L6.17651 3.23465L5.60903 2.12089ZM3.78813 3.94179L4.90189 4.50927L3.78813 3.94179ZM3.78813 16.0584L2.67437 16.6258L3.78813 16.0584ZM5.60903 17.8792L6.17651 16.7655L5.60903 17.8792ZM14.3922 17.8792L13.8248 16.7655L14.3922 17.8792ZM16.2132 16.0584L15.0994 15.4909L16.2132 16.0584ZM15.946 5.92447L15.0622 6.80836L15.946 5.92447ZM10.0007 2.91675C10.2437 2.91675 10.4722 2.91675 10.689 2.91726L10.6948 0.417263C10.4747 0.416748 10.2431 0.416749 10.0007 0.416749V2.91675ZM6.17651 3.23465C6.41658 3.11232 6.74828 3.01982 7.36579 2.96937C7.99788 2.91772 8.81324 2.91675 10.0007 2.91675V0.416749C8.85449 0.416749 7.91971 0.415776 7.1622 0.477668C6.3901 0.540751 5.69277 0.67531 5.04154 1.00713L6.17651 3.23465ZM4.90189 4.50927C5.18151 3.96047 5.62771 3.51427 6.17651 3.23465L5.04154 1.00713C4.02233 1.52644 3.19368 2.35509 2.67437 3.3743L4.90189 4.50927ZM4.58399 8.33342C4.58399 7.14602 4.58496 6.33064 4.6366 5.69855C4.68705 5.08105 4.77956 4.74934 4.90189 4.50927L2.67437 3.3743C2.34254 4.02553 2.20799 4.72287 2.1449 5.49497C2.08301 6.25247 2.08399 7.18727 2.08399 8.33342H4.58399ZM4.58399 11.6667V8.33342H2.08399V11.6667H4.58399ZM4.90189 15.4909C4.77956 15.2508 4.68705 14.9191 4.6366 14.3016C4.58496 13.6695 4.58399 12.8542 4.58399 11.6667H2.08399C2.08399 12.8129 2.08301 13.7477 2.1449 14.5052C2.20799 15.2773 2.34254 15.9747 2.67437 16.6258L4.90189 15.4909ZM6.17651 16.7655C5.62771 16.4859 5.18151 16.0397 4.90189 15.4909L2.67437 16.6258C3.19368 17.6451 4.02233 18.4737 5.04154 18.993L6.17651 16.7655ZM10.0007 17.0834C8.81324 17.0834 7.99788 17.0824 7.36579 17.0308C6.74828 16.9803 6.41658 16.8878 6.17651 16.7655L5.04154 18.993C5.69277 19.3248 6.3901 19.4594 7.1622 19.5225C7.91971 19.5844 8.85449 19.5834 10.0007 19.5834V17.0834ZM13.8248 16.7655C13.5847 16.8878 13.253 16.9803 12.6355 17.0308C12.0034 17.0824 11.1881 17.0834 10.0007 17.0834V19.5834C11.1468 19.5834 12.0816 19.5844 12.8391 19.5225C13.6112 19.4594 14.3086 19.3248 14.9597 18.993L13.8248 16.7655ZM15.0994 15.4909C14.8198 16.0397 14.3736 16.4859 13.8248 16.7655L14.9597 18.993C15.979 18.4737 16.8077 17.6451 17.3269 16.6258L15.0994 15.4909ZM15.4173 11.6667C15.4173 12.8542 15.4163 13.6695 15.3647 14.3016C15.3142 14.9191 15.2217 15.2508 15.0994 15.4909L17.3269 16.6258C17.6587 15.9747 17.7933 15.2773 17.8564 14.5052C17.9183 13.7477 17.9173 12.8129 17.9173 11.6667H15.4173ZM15.4173 8.33342V11.6667H17.9173V8.33342H15.4173ZM15.4168 7.64507C15.4173 7.86181 15.4173 8.09038 15.4173 8.33342H17.9173C17.9173 8.09102 17.9173 7.85942 17.9168 7.63922L15.4168 7.64507ZM16.8299 5.04058L13.2935 1.50418L11.5257 3.27196L15.0622 6.80836L16.8299 5.04058ZM17.9168 7.63922C17.9145 6.65395 17.5136 5.72432 16.8299 5.04058L15.0622 6.80836C15.2915 7.03772 15.4161 7.33904 15.4168 7.64507L17.9168 7.63922ZM10.689 2.91726C10.9951 2.91797 11.2963 3.04259 11.5257 3.27196L13.2935 1.50418C12.6097 0.820461 11.6802 0.419568 10.6948 0.417263L10.689 2.91726Z" fill="#2B5DA8"/>
<path d="M11.25 2.08325V4.58325C11.25 5.96396 12.3692 7.08325 13.75 7.08325H15.8333" stroke="#2B5DA8" stroke-width="1.5"/>
</g>
</svg>
