<svg width="20" height="20" viewBox="0 0 20 20" fill="none" xmlns="http://www.w3.org/2000/svg">
<path d="M10 0C4.48578 0 0 4.48578 0 10C0 15.5142 4.48578 20 10 20C15.5142 20 20 15.5142 20 10C20 4.48578 15.5142 0 10 0Z" fill="#EC0016"/>
<path d="M10.7807 11.6312C10.776 11.6883 10.7618 11.7398 10.7382 11.7856C10.7145 11.8313 10.672 11.8713 10.6105 11.9056C10.5538 11.9342 10.4734 11.9571 10.3694 11.9743C10.2701 11.9914 10.1472 12 10.0006 12C9.8493 12 9.724 11.9914 9.62471 11.9743C9.52542 11.9571 9.44504 11.9342 9.38357 11.9056C9.32684 11.8713 9.28665 11.8313 9.26301 11.7856C9.23937 11.7398 9.22518 11.6883 9.22045 11.6312L8.42969 4.50322C8.42969 4.42888 8.44387 4.36312 8.47224 4.30593C8.50061 4.24875 8.55025 4.203 8.62118 4.16869C8.69683 4.12866 8.79612 4.10007 8.91905 4.08292C9.04671 4.06576 9.81147 4 10.0006 4C10.1897 4 11.1578 4.05147 11.2808 4.07434C11.4037 4.09149 11.5006 4.12009 11.5715 4.16011C11.6472 4.19442 11.6992 4.24017 11.7276 4.29736C11.7607 4.34882 11.7772 4.41172 11.7772 4.48606L10.7807 11.6312ZM11.0006 14.7477C11.0006 14.9821 10.984 15.1794 10.951 15.3395C10.9226 15.4996 10.8682 15.6283 10.7878 15.7255C10.7122 15.8227 10.6105 15.8914 10.4829 15.9314C10.3552 15.9771 10.1944 16 10.0006 16C9.80674 16 9.64362 15.9771 9.51123 15.9314C9.38357 15.8914 9.28192 15.8227 9.20627 15.7255C9.13062 15.6283 9.07625 15.4996 9.04315 15.3395C9.01478 15.1794 9.0006 14.9821 9.0006 14.7477C9.0006 14.5075 9.01478 14.3074 9.04315 14.1472C9.07625 13.9814 9.13062 13.8499 9.20627 13.7527C9.28192 13.6497 9.38357 13.5783 9.51123 13.5382C9.64362 13.4925 9.80674 13.4696 10.0006 13.4696C10.1944 13.4696 10.3552 13.4925 10.4829 13.5382C10.6105 13.5783 10.7122 13.6497 10.7878 13.7527C10.8682 13.8499 10.9226 13.9814 10.951 14.1472C10.984 14.3074 11.0006 14.5075 11.0006 14.7477Z" fill="white"/>
</svg>
