<svg width="118" height="171" viewBox="0 0 118 171" fill="none" xmlns="http://www.w3.org/2000/svg">
<g opacity="0.2">
<path d="M99.9657 95.5462C94.813 106.896 87.8313 118.204 80.6923 128.357C73.9201 137.929 66.6788 147.098 59 155.824C51.321 147.098 44.0797 137.929 37.3077 128.357C30.1687 118.204 23.187 106.896 18.0343 95.5462C12.8227 84.0786 9.83333 73.3376 9.83333 64.125C9.83333 49.9525 15.0134 36.3605 24.2339 26.339C33.4545 16.3175 45.9602 10.6875 59 10.6875C72.0398 10.6875 84.5455 16.3175 93.7661 26.339C102.987 36.3605 108.167 49.9525 108.167 64.125C108.167 73.3376 105.168 84.0786 99.9657 95.5462ZM59 171C59 171 118 110.231 118 64.125C118 47.118 111.784 30.8075 100.719 18.7818C89.6546 6.75601 74.6478 0 59 0C43.3522 0 28.3453 6.75601 17.2807 18.7818C6.21605 30.8075 2.3317e-07 47.118 0 64.125C0 110.231 59 171 59 171Z" fill="url(#paint0_linear_11221_49574)"/>
<path d="M59 85.5C53.7841 85.5 48.7818 83.248 45.0936 79.2394C41.4053 75.2308 39.3333 69.794 39.3333 64.125C39.3333 58.456 41.4053 53.0192 45.0936 49.0106C48.7818 45.002 53.7841 42.75 59 42.75C64.2159 42.75 69.2182 45.002 72.9064 49.0106C76.5946 53.0192 78.6667 58.456 78.6667 64.125C78.6667 69.794 76.5946 75.2308 72.9064 79.2394C69.2182 83.248 64.2159 85.5 59 85.5ZM59 96.1875C66.8239 96.1875 74.3273 92.8095 79.8597 86.7966C85.392 80.7837 88.5 72.6285 88.5 64.125C88.5 55.6215 85.392 47.4663 79.8597 41.4534C74.3273 35.4405 66.8239 32.0625 59 32.0625C51.1761 32.0625 43.6727 35.4405 38.1404 41.4534C32.608 47.4663 29.5 55.6215 29.5 64.125C29.5 72.6285 32.608 80.7837 38.1404 86.7966C43.6727 92.8095 51.1761 96.1875 59 96.1875Z" fill="url(#paint1_linear_11221_49574)"/>
</g>
<defs>
<linearGradient id="paint0_linear_11221_49574" x1="59" y1="0" x2="59" y2="171" gradientUnits="userSpaceOnUse">
<stop stop-color="white"/>
<stop offset="0.859375" stop-color="white" stop-opacity="0"/>
<stop offset="1" stop-color="white" stop-opacity="0"/>
</linearGradient>
<linearGradient id="paint1_linear_11221_49574" x1="59" y1="32.0625" x2="59" y2="96.1875" gradientUnits="userSpaceOnUse">
<stop stop-color="white"/>
<stop offset="0.859375" stop-color="white" stop-opacity="0"/>
<stop offset="1" stop-color="white" stop-opacity="0"/>
</linearGradient>
</defs>
</svg>
