<svg width="20" height="20" viewBox="0 0 20 20" fill="none" xmlns="http://www.w3.org/2000/svg">
<path d="M14.1616 3.33325H5.82825C2.63659 3.33325 1.74492 4.09992 1.66992 7.08325C3.27826 7.08325 4.57826 8.39159 4.57826 9.99992C4.57826 11.6083 3.27826 12.9083 1.66992 12.9166C1.74492 15.8999 2.63659 16.6666 5.82825 16.6666H14.1616C17.4949 16.6666 18.3283 15.8333 18.3283 12.4999V7.49992C18.3283 4.16659 17.4949 3.33325 14.1616 3.33325Z" stroke="white" stroke-width="1.5" stroke-linecap="round" stroke-linejoin="round"/>
<path d="M7.49414 3.33325V6.24992" stroke="white" stroke-width="1.5" stroke-linecap="round" stroke-linejoin="round"/>
<path d="M7.49414 13.75V16.6667" stroke="white" stroke-width="1.5" stroke-linecap="round" stroke-linejoin="round"/>
<path d="M12.52 7.77505L13.0367 8.81672C13.0867 8.91672 13.1867 8.99172 13.295 9.00838L14.445 9.17505C14.7284 9.21672 14.845 9.56672 14.6367 9.76672L13.8034 10.575C13.72 10.65 13.6867 10.7667 13.7034 10.8834L13.9034 12.025C13.9534 12.3084 13.6534 12.525 13.4034 12.3917L12.3784 11.85C12.2784 11.8 12.1534 11.8 12.0534 11.85L11.0284 12.3917C10.77 12.525 10.4784 12.3084 10.5284 12.025L10.7284 10.8834C10.745 10.7667 10.7117 10.6584 10.6284 10.575L9.80337 9.76672C9.59503 9.56672 9.7117 9.21672 9.99503 9.17505L11.145 9.00838C11.2617 8.99172 11.3534 8.92505 11.4034 8.81672L11.9117 7.77505C12.0284 7.51672 12.395 7.51672 12.52 7.77505Z" stroke="white" stroke-width="1.5" stroke-linecap="round" stroke-linejoin="round"/>
</svg>
